<?xml version="1.0" standalone="no"?>
<!DOCTYPE svg PUBLIC "-//W3C//DTD SVG 1.1//EN" "http://www.w3.org/Graphics/SVG/1.1/DTD/svg11.dtd" >
<svg xmlns="http://www.w3.org/2000/svg" xmlns:xlink="http://www.w3.org/1999/xlink" version="1.1">
<metadata>
Created by FontForge 20170731 at Mon Jun 15 07:03:26 2015
 By Aleksey,,,
Copyright 2015 by Carolina Giovagnoli. All rights reserved.
</metadata>
<defs>
<font id="Sura-Bold" horiz-adv-x="0" >
  <font-face 
    font-family="Sura"
    font-weight="700"
    font-stretch="normal"
    units-per-em="2048"
    panose-1="0 0 8 0 0 0 0 0 0 0"
    ascent="1638"
    descent="-410"
    x-height="1018"
    cap-height="1454"
    bbox="-621 -840 3637 2359"
    underline-thickness="102"
    underline-position="-306"
    unicode-range="U+0020-A8FB"
  />
<missing-glyph horiz-adv-x="366" 
 />
    <glyph glyph-name=".notdef" horiz-adv-x="366" 
 />
    <glyph glyph-name=".null" 
 />
    <glyph glyph-name="nonmarkingreturn" horiz-adv-x="682" 
 />
    <glyph glyph-name="space" unicode=" " horiz-adv-x="366" 
 />
    <glyph glyph-name="exclam" unicode="!" horiz-adv-x="489" 
d="M265.5 467q-64.5 4 -118.5 4l3 135l-19 852l246 19l59 -58q-4 -35 -16 -159.5t-23.5 -294.5t-11.5 -314q0 -51 2 -96t4 -61l-35 -33q-26 2 -90.5 6zM153 250q-40 -45 -40 -119t40 -118t111 -44q72 0 112 44t40 118q0 76 -40 120t-112 44q-71 0 -111 -45z" />
    <glyph glyph-name="quotedbl" unicode="&#x22;" horiz-adv-x="735" 
d="M103.5 1390.5q15.5 -116.5 17.5 -141.5l-2 -190l180 -10l27 499h-244q6 -41 21.5 -157.5zM431 1390.5q15 -116.5 18 -141.5l-3 -190l181 -10l26 499h-243q6 -41 21 -157.5z" />
    <glyph glyph-name="numbersign" unicode="#" horiz-adv-x="1167" 
d="M834 471l245 2v-186h-276l-49 -318l-164 21l47 297h-186l-50 -318l-163 21l47 297h-219v176l247 2l33 207l-240 -2v186h269l49 315l164 -20l-47 -295h186l49 315l164 -20l-47 -295h227v-176l-254 -2zM512 674l-33 -207l187 2l30 207z" />
    <glyph glyph-name="dollar" unicode="$" horiz-adv-x="1110" 
d="M910.5 92.5q-119.5 -104.5 -310.5 -121.5l-6 -159l-133 6l6 153q-102 8 -186 30t-137.5 44.5t-53.5 24.5l31 323l145 -10v-39t2 -51q-2 -6 4.5 -36t8.5 -44q23 -16 82 -34.5t153 -18.5q78 0 131 35.5t53 107.5q0 55 -30.5 96t-76.5 71t-132 75q-117 61 -190.5 112.5
t-126 137.5t-52.5 213q0 166 121 260t311 98l8 188l132 -6l-9 -188q141 -14 312 -57l-27 -312l-149 8v111l-5 25q-31 27 -74.5 40t-111.5 13q-80 0 -130 -38t-50 -103q0 -70 56 -115t177 -107q121 -61 195 -111t128 -135t54 -208q0 -174 -119.5 -278.5z" />
    <glyph glyph-name="percent" unicode="%" horiz-adv-x="1839" 
d="M342 -8l870 1483l144 -93l-869 -1482zM125 767q88 -114 268 -114t268.5 114t88.5 290t-88.5 288.5t-268.5 112.5t-268 -112.5t-88 -288.5t88 -290zM493.5 867.5q-28.5 -76.5 -100.5 -76.5q-127 0 -127 266t127 266q72 0 100.5 -77t28.5 -189q0 -113 -28.5 -189.5z
M1133.5 100.5q91.5 -116.5 281.5 -116.5t281.5 116.5t91.5 296.5q0 182 -91 299t-282 117q-190 0 -281.5 -116.5t-91.5 -299.5q0 -180 91.5 -296.5zM1415 125q-135 0 -135 272q0 274 135 275q135 0 135 -275q0 -272 -135 -272z" />
    <glyph glyph-name="ampersand" unicode="&#x26;" horiz-adv-x="1552" 
d="M1491 -10q-27 2 -130.5 6t-248.5 4h-33q-53 61 -82 90q-170 -111 -417 -110q-223 0 -360.5 93t-137.5 283q0 125 61.5 217.5t184.5 165.5q-119 156 -119 297q0 154 126 237t308 83q94 0 187.5 -20.5t156.5 -43.5l-24 -321l-134 8v88q0 6 -12 38t-16 42q-82 18 -125 18
q-123 0 -123 -121q0 -72 46 -146.5t144.5 -171.5t286.5 -261q12 43 12 92q0 27 -3 66t-5 53l-100 12l10 146q23 -2 99.5 -6.5t146.5 -4.5t127 4t74 7l10 -146l-133 -12l-13 -129q-12 -123 -59 -228l51 -45q88 -74 152 -118l102 -11zM485.5 244q69.5 -49 165.5 -49
q98 0 189 47l-111 98q-168 147 -244 221q-70 -82 -69 -172q0 -96 69.5 -145z" />
    <glyph glyph-name="quotesingle" unicode="'" horiz-adv-x="407" 
d="M103.5 1390.5q15.5 -116.5 17.5 -141.5l-2 -190l180 -10l27 499h-244q6 -41 21.5 -157.5z" />
    <glyph glyph-name="parenleft" unicode="(" horiz-adv-x="651" 
d="M372.5 315.5q30.5 -149.5 86.5 -295.5q8 -25 60 -102.5t71 -103.5l-111 -90q-203 186 -300 421.5t-97 503.5t97 504t300 422l111 -90q-18 -27 -70.5 -103.5t-60.5 -103.5q-55 -145 -86 -294.5t-31 -334.5q0 -184 30.5 -333.5z" />
    <glyph glyph-name="parenright" unicode=")" horiz-adv-x="651" 
d="M278.5 983.5q-30.5 149.5 -85.5 294.5q-8 25 -60.5 102.5t-71.5 104.5l111 90q203 -186 300 -421.5t97 -504.5q0 -268 -97 -503.5t-300 -421.5l-111 90q18 27 70.5 103.5t61.5 102.5q55 145 85.5 295t30.5 334q0 185 -30.5 334.5z" />
    <glyph glyph-name="asterisk" unicode="*" horiz-adv-x="837" 
d="M664 1122l92 -53l-62 -137l-184 84q-10 -66 -10 -82v-107l-150 -16l-20 201q-72 -31 -74 -31l-94 -53l-88 121l164 118q-18 14 -36 27.5t-28 19.5l-94 56l61 137l185 -82q10 61 10 78v108l149 17l21 -201l76 31l92 53l88 -121l-164 -116z" />
    <glyph glyph-name="plus" unicode="+" horiz-adv-x="1189" 
d="M698 422l4 -422h-215v420l-419 -4v215h419v416h205l4 -416h426v-205z" />
    <glyph glyph-name="comma" unicode="," horiz-adv-x="489" 
d="M55 -213l25 -66q104 18 177 78t108.5 142t35.5 165q0 94 -35.5 151.5t-119.5 57.5q-76 0 -115 -45t-39 -125q0 -68 36 -114.5t103 -50.5q-14 -138 -176 -193z" />
    <glyph glyph-name="hyphen" unicode="-" horiz-adv-x="577" 
d="M506 422h-440l-5 194h455z" />
    <glyph glyph-name="period" unicode="." horiz-adv-x="507" 
d="M135 267q-43 -48 -43 -126t43 -125t119 -47t119 47t43 125q0 82 -43 128t-119 46t-119 -48z" />
    <glyph glyph-name="slash" unicode="/" horiz-adv-x="811" 
d="M831 1522l-624 -1655l-193 61l627 1655z" />
    <glyph glyph-name="zero" unicode="0" horiz-adv-x="1171" 
d="M184 173.5q131 -193.5 402 -193.5q270 0 401 193.5t131 494.5t-131 494.5t-401 193.5t-401.5 -193.5t-131.5 -494.5t131 -494.5zM739 301.5q-43 -147.5 -153 -147.5q-111 0 -154 147.5t-43 366.5t43 366.5t154 147.5t153.5 -147.5t42.5 -366.5t-43 -366.5z" />
    <glyph glyph-name="one" unicode="1" horiz-adv-x="872" 
d="M688.5 -4q-108.5 4 -254.5 4q-59 0 -147 -4t-117 -6l-10 143l182 25q2 23 10 87t8 89v657l-210 -80l-76 127q39 31 133 101.5t155 120.5q14 12 51.5 56t49.5 60l211 -24q-2 -61 -9.5 -238.5t-7.5 -241.5v-477q0 -66 9.5 -151.5t11.5 -85.5l160 -13l-13 -155
q-28 2 -136.5 6z" />
    <glyph glyph-name="two" unicode="2" horiz-adv-x="1120" 
d="M849 1263.5q122 -92.5 122 -259.5q0 -109 -48.5 -210.5t-170 -231.5t-346.5 -320h245q39 0 97.5 8t80.5 12l33 105l15 75l159 -12l-16 -395l-62 -41q-29 0 -100.5 3t-122.5 3h-667l-29 203q246 221 372 355t178 229.5t52 189.5q0 86 -50 132t-134 46q-88 0 -178 -49
q-16 -51 -17 -78v-88l-162 -10l-14 354q201 72 414 72q227 0 349 -92.5z" />
    <glyph glyph-name="three" unicode="3" horiz-adv-x="1005" 
d="M750.5 1265q117.5 -91 117.5 -268q0 -96 -59 -179t-168 -138q121 -27 203 -119t82 -205q0 -143 -109.5 -267t-302 -205t-430.5 -99l-45 156q164 18 289 73.5t193.5 137t68.5 182.5q0 219 -209 219q-33 0 -74 -3t-53 -5l-29 149q162 27 247 108t85 208q0 82 -42 124
t-120 42q-76 0 -149 -25q-2 -12 -8.5 -38t-8.5 -42v-108l-161 -11l-29 344q178 59 369 60q225 0 342.5 -91z" />
    <glyph glyph-name="four" unicode="4" horiz-adv-x="1153" 
d="M820 1211.5q-95 -97.5 -113 -126.5l-390 -526h285v199l287 98v-278l192 10v-215h-192v-45q0 -74 9 -121t9 -49l178 -13l-10 -155q-37 2 -167 6t-271 4q-57 0 -144 -4t-116 -6l-10 143l217 25q0 4 9 72.5t9 99.5v43h-430l-152 188l725 952l205 -172q-35 -32 -130 -129.5z
" />
    <glyph glyph-name="five" unicode="5" horiz-adv-x="995" 
d="M703.5 1079.5q-121.5 -12.5 -160.5 -12.5h-193l-18 -291q55 8 127 8q223 0 343 -106.5t120 -294.5q0 -238 -199 -388.5t-590 -209.5l-45 152q272 61 393 154t121 245q0 238 -237 237q-84 0 -183 -28l-96 110l51 643l39 37h180l498 21l12 -260q-41 -4 -162.5 -16.5z" />
    <glyph glyph-name="six" unicode="6" horiz-adv-x="1130" 
d="M570 840q-46 -6 -70 -15l12 -147q6 2 26.5 4t43.5 2q84 0 121.5 -74.5t37.5 -183.5q0 -111 -38.5 -185.5t-127.5 -74.5q-102 0 -145 100.5t-43 237.5q0 182 63.5 357t204 318.5t361.5 215.5l-33 135q-295 -51 -504 -210t-313.5 -375t-104.5 -441q0 -158 62.5 -276.5
t179.5 -184.5t275 -66q135 0 247.5 56.5t178 159t65.5 233.5q0 193 -108.5 306.5t-298.5 113.5q-46 0 -92 -6z" />
    <glyph glyph-name="seven" unicode="7" horiz-adv-x="1046" 
d="M256 1343.5q92 -8.5 121 -8.5h651l33 -141l-647 -1409l-256 88l460 903q10 20 39 113.5t52 175.5h-314q-25 0 -114 -8q-8 -29 -16.5 -50.5t-14.5 -35.5l-17 -94l-161 6l22 430l37 41q33 -2 125 -10.5z" />
    <glyph glyph-name="eight" unicode="8" horiz-adv-x="1112" 
d="M977 550q70 -91 70 -231q0 -111 -72 -187.5t-184.5 -114t-237.5 -37.5q-129 0 -241.5 38.5t-181.5 118.5t-69 199q0 201 261 364q-100 68 -158 155t-58 214q0 104 65 178t167 112t217 38q113 0 216 -39t166.5 -115t63.5 -180q0 -102 -62 -190.5t-155 -155.5
q123 -76 193 -167zM444 1183q-43 -46 -43 -116q0 -78 50.5 -134t148.5 -114q106 123 107 242q0 74 -40 121t-112 47q-68 0 -111 -46zM693 195.5q50 48.5 50 136.5q0 84 -58 140t-173 120q-150 -119 -150 -254q0 -88 52.5 -139.5t140.5 -51.5t138 48.5z" />
    <glyph glyph-name="nine" unicode="9" horiz-adv-x="1130" 
d="M631 508l-13 147q-6 -2 -26.5 -4t-42.5 -2q-72 0 -116 74t-44 184q0 111 39 185.5t127 74.5q94 0 141 -97t47 -241q0 -307 -141 -553.5t-487 -338.5l45 -152q295 51 499.5 214t307 384t102.5 446q0 156 -60.5 275t-176 185.5t-279.5 66.5q-133 0 -246.5 -60.5
t-179.5 -163t-66 -225.5q0 -199 114 -309.5t314 -110.5q81 1 142 21z" />
    <glyph glyph-name="colon" unicode=":" horiz-adv-x="487" 
d="M132 952q-40 -45 -40 -118q0 -74 40 -118t112 -44t111.5 44t39.5 118q0 76 -40 119.5t-111 43.5q-72 0 -112 -45zM132 250q-40 -45 -40 -119t40 -118t112 -44t111.5 44t39.5 118q0 76 -40 120t-111 44q-72 0 -112 -45z" />
    <glyph glyph-name="semicolon" unicode=";" horiz-adv-x="489" 
d="M132 932q-40 -45 -40 -119t40 -118t112 -44t111.5 44t39.5 118q0 76 -40 120t-111 44q-72 0 -112 -45zM55 -213l25 -66q104 18 177 78t108.5 142t35.5 165q0 94 -35.5 151.5t-119.5 57.5q-76 0 -115 -45t-39 -125q0 -68 36 -114.5t103 -50.5q-14 -138 -176 -193z" />
    <glyph glyph-name="less" unicode="&#x3c;" horiz-adv-x="985" 
d="M381 510l440 387l-133 154l-606 -541l606 -541l133 154z" />
    <glyph glyph-name="equal" unicode="=" horiz-adv-x="1198" 
d="M133 807v-217l932 10v207h-932zM133 418v-217l932 10v207h-932z" />
    <glyph glyph-name="greater" unicode="&#x3e;" horiz-adv-x="985" 
d="M604 508l-440 -387l133 -154l606 541l-606 541l-133 -154z" />
    <glyph glyph-name="question" unicode="?" horiz-adv-x="864" 
d="M532.5 879.5q-57.5 -74.5 -153.5 -74.5q-70 0 -121 6l-63 -70v-266l6 -6q66 0 121 -3t84 -5l34 33l-6 163q195 6 312.5 115t117.5 293q0 203 -126 313.5t-347 110.5q-86 0 -163.5 -19.5t-166.5 -60.5l25 -303l139 10l-4 74q0 20 3 58t9 57q49 33 138 32q109 0 164 -74.5
t55 -195.5q0 -113 -57.5 -187.5zM198 250q-40 -45 -40 -119t40 -118t111 -44q72 0 112 44t40 118q0 76 -40 120t-112 44q-71 0 -111 -45z" />
    <glyph glyph-name="at" unicode="@" horiz-adv-x="1953" 
d="M1023 18.5q-71 -38.5 -163 -38.5q-139 0 -220 77.5t-81 212.5q0 117 65.5 187.5t204.5 95.5l291 47v62q0 94 -30.5 148t-112.5 54q-41 0 -85 -14t-77 -31l-8 -80l2 -100l-154 -6l-30 342q16 4 73.5 17.5t138.5 25.5t152 12q203 0 310.5 -98t107.5 -270v-267q0 -63 7 -147
t11 -111l-2 -2q117 29 175.5 164t58.5 289q0 188 -81 332.5t-232.5 224.5t-356.5 80q-266 0 -416.5 -123t-206 -291t-55.5 -336q0 -342 167 -543.5t521 -199.5q47 0 200 35.5t206 50.5l33 -78q-25 -14 -109 -56t-182 -81t-148 -39q-346 0 -555 132t-295 337t-86 442
q0 236 95.5 437.5t302.5 327.5t528 126q274 0 478 -92t315.5 -268.5t111.5 -417.5q0 -131 -69.5 -262t-202.5 -221.5t-311 -104.5h-150l-16 147q-49 -90 -120 -128.5zM886.5 398.5q-24.5 -29.5 -24.5 -87.5q0 -63 26.5 -92t84.5 -29q68 0 105.5 41t41.5 123v113l-151 -29
q-58 -10 -82.5 -39.5z" />
    <glyph glyph-name="A" unicode="A" horiz-adv-x="1366" 
d="M1286 -4q-55 4 -100 4q-152 0 -269.5 -4t-148.5 -6l-10 149l121 19l-11 106l-28 103h-387l-35 -131l-12 -78l118 -25l-10 -143q-20 2 -89 6t-128 4q-109 0 -186.5 -4t-98.5 -6l-10 149l92 15l86 176l387 1114l230 22l409 -1204l47 -110l115 -19l-10 -143q-17 2 -72 6z
M655 1020l-147 -485l278 4z" />
    <glyph glyph-name="B" unicode="B" horiz-adv-x="1296" 
d="M951.5 1422q105.5 -42 168 -121.5t62.5 -188.5q0 -133 -79 -227t-206 -125v-15q158 -25 253 -114.5t95 -243.5q0 -195 -139 -296t-350 -101q-104 0 -232 6q-164 4 -221 4q-59 0 -115.5 -4t-72.5 -6l-11 143l123 25q6 33 12.5 90t6.5 86v715q0 61 -5 126.5t-14 100.5
l-121 24l11 154q16 -2 72.5 -6t115.5 -4q72 0 205 10q43 2 112.5 6t98.5 4q125 0 230.5 -42zM565 1205.5q-2 -54.5 -2 -95.5v-715q0 -145 6 -231q55 -6 115 -6q113 0 180.5 68.5t67.5 189.5q0 240 -270 239h-21l14 179h13q102 0 159.5 64.5t57.5 188.5q0 88 -60.5 148.5
t-154.5 60.5q-35 0 -101 -8q-2 -28 -4 -82.5z" />
    <glyph glyph-name="C" unicode="C" horiz-adv-x="1304" 
d="M993.5 -12.5q-104.5 -18.5 -221.5 -18.5q-233 0 -394 93.5t-242 263.5t-81 395t81 395t243 264.5t393 94.5q115 0 204 -16.5t238 -53.5l-24 -367l-158 9l-6 124q0 20 -25 84q-131 29 -229 29q-178 0 -263 -153.5t-85 -407.5t84 -408.5t262 -154.5q117 0 254 30
q4 10 18.5 49.5t14.5 51.5l6 96l154 4l16 -352q-135 -33 -239.5 -51.5z" />
    <glyph glyph-name="D" unicode="D" horiz-adv-x="1513" 
d="M1132.5 1371q161.5 -93 243.5 -260t82 -390q0 -219 -82 -384t-244.5 -257t-394.5 -92q-68 0 -123 2t-96 4q-113 6 -211 6q-59 0 -122.5 -4t-82.5 -6l-10 143l135 25q2 23 10.5 87t8.5 89v715q0 63 -7.5 134.5t-11.5 92.5l-133 24l10 154q18 -2 82 -6t123 -4q76 0 213 10
q39 2 109.5 6t105.5 4q234 0 395.5 -93zM571 1278q-8 -139 -8 -168v-715q0 -133 8 -231q68 -6 134 -6q217 0 314 153.5t97 413.5q0 256 -97 412.5t-310 156.5q-44 0 -138 -16z" />
    <glyph glyph-name="E" unicode="E" horiz-adv-x="1261" 
d="M195.5 1448q68.5 -4 113.5 -4h549q27 0 115 8t119 12l38 -37l15 -319l-148 -10q-12 98 -18 121q-6 27 -21 49q-82 8 -161 8h-226q-8 -147 -8 -166v-293q20 -2 53 -2h115q27 0 54.5 7t35.5 12l19 131l127 -11l-2 -170q0 -84 2 -158.5t4 -101.5l-131 -12l-19 123
q-14 2 -60 7t-71 5h-63q-49 0 -64 -2v-250q0 -94 6 -217h256q76 0 158 17q27 49 39 88q18 70 25 116l143 -10l-31 -360l-39 -37q-31 2 -105.5 5t-127.5 3h-578q-74 -2 -131 -5t-76 -5l-10 143l135 25q4 16 11.5 80.5t7.5 95.5v715q0 150 -19 227l-133 24l10 154
q23 -2 91.5 -6z" />
    <glyph glyph-name="F" unicode="F" horiz-adv-x="1165" 
d="M973 1452q-88 -8 -115 -8h-549q-59 0 -122.5 4t-82.5 6l-10 -154l133 -24q6 -25 12.5 -90.5t6.5 -136.5v-715q0 -31 -7.5 -95.5t-11.5 -80.5l-135 -25l10 -143q18 2 82 6t123 4q145 0 282.5 -4t176.5 -6l10 155l-194 13q-6 29 -12.5 94t-6.5 137v234q16 2 51 2h76
q25 0 71 -5.5t60 -7.5l19 -123l131 13q-2 27 -4 101.5t-2 158.5l2 170l-127 10l-19 -131q-8 -4 -35.5 -11t-54.5 -7h-119q-27 0 -49 2v315q0 18 8 166h226q61 0 164 -10q18 -45 18 -47q6 -23 18 -121l148 10l-15 319l-38 37q-31 -4 -119 -12z" />
    <glyph glyph-name="G" unicode="G" horiz-adv-x="1431" 
d="M1023 1458.5q93 -16.5 253 -53.5l-27 -338l-162 8l-6 96q0 20 -24 84q-139 29 -250 29q-195 0 -289 -154.5t-94 -406.5q0 -254 93 -408.5t288 -154.5q92 0 201 16q14 66 14 86v139q0 27 -8 69t-13 56l-217 17l11 200h227q66 0 137.5 3.5t97.5 3.5l58 -52
q-4 -33 -11.5 -133t-7.5 -164v-362q-143 -33 -253.5 -51.5t-233.5 -18.5q-244 0 -413 93.5t-254 263.5t-85 395t85 395t254 264.5t413 94.5q123 0 216 -16.5z" />
    <glyph glyph-name="H" unicode="H" horiz-adv-x="1693" 
d="M1454 1191q-6 -52 -6 -81v-715q0 -109 18 -237l133 -13l-10 -155q-29 2 -140.5 6t-256.5 4q-59 0 -122.5 -4t-82.5 -6l-10 143l135 25q2 12 10 78.5t8 97.5v284h-567v-223q0 -109 19 -237l133 -13l-10 -155q-29 2 -140.5 6t-257.5 4q-59 0 -122.5 -4t-82.5 -6l-10 143
l135 25q2 12 10.5 78.5t8.5 97.5v715q0 90 -9.5 155.5t-9.5 71.5l-133 24l10 154q18 -2 82 -6t123 -4q145 0 257 4t141 6l10 -166l-135 -12q-6 -33 -12.5 -85t-6.5 -81v-313l567 8v244q0 90 -9 155.5t-9 71.5l-133 24l10 154q18 -2 82 -6t123 -4q145 0 257 4t140 6l11 -166
l-136 -12q-6 -33 -12 -85z" />
    <glyph glyph-name="I" unicode="I" horiz-adv-x="829" 
d="M579.5 1191q-6.5 -52 -6.5 -81v-715q0 -109 19 -237l133 -13l-10 -155q-29 2 -140.5 6t-257.5 4q-59 0 -122.5 -4t-81.5 -6l-11 143l136 25q2 12 10 78.5t8 97.5v715q0 90 -9 155.5t-9 71.5l-134 24l11 154q18 -2 81.5 -6t122.5 -4q145 0 257 4t141 6l10 -166l-135 -12
q-6 -33 -12.5 -85z" />
    <glyph glyph-name="J" unicode="J" horiz-adv-x="759" 
d="M545 1192q-6 -55 -6 -82v-1090q0 -47 -101.5 -164.5t-261.5 -265.5l-110 64q25 51 90 196.5t65 172.5v1026q0 68 -6 132t-12 95l-133 24l10 154q18 -2 81.5 -6t123.5 -4q145 0 256.5 4t140.5 6l10 -166l-135 -12q-6 -29 -12 -84z" />
    <glyph glyph-name="K" unicode="K" horiz-adv-x="1538" 
d="M561.5 1448q-110.5 -4 -254.5 -4q-61 0 -120.5 4t-75.5 6l-11 -154l127 -24q0 -6 9.5 -71.5t9.5 -155.5v-715q0 -31 -8.5 -97.5t-10.5 -78.5l-129 -25l11 -143q16 2 75.5 6t120.5 4q143 0 253 -4t138 -6l11 155l-125 13q-18 129 -19 237v715q0 29 6 81t13 85l129 12
l-11 166q-28 -2 -138.5 -6zM1386.5 -4q-118.5 4 -262.5 4q-61 0 -119.5 -4t-74.5 -6l-10 143l79 17q-88 141 -120 186q-27 31 -147 182.5t-161 204.5l332 459l58 106l-64 12l10 154q16 -2 76.5 -6t122.5 -4q141 0 230 4t110 6l10 -166l-119 -12q-94 -90 -155 -158l-264 -360
l147 -172l272 -322q16 -20 113 -106l98 -13l-10 -155q-33 2 -151.5 6z" />
    <glyph glyph-name="L" unicode="L" horiz-adv-x="1157" 
d="M569 1191q-6 -52 -6 -81v-715q0 -102 17 -217h192q80 0 158 17q37 80 39 88q18 70 24 116l144 -10l-31 -360l-39 -37q-31 2 -105.5 5t-127.5 3h-527q-59 0 -122.5 -4t-82.5 -6l-10 143l135 25q2 12 10.5 78.5t8.5 97.5v715q0 90 -9.5 155.5t-9.5 71.5l-133 24l10 154
q18 -2 82 -6t123 -4q145 0 257 4t141 6l10 -166l-135 -12q-7 -33 -13 -85z" />
    <glyph glyph-name="M" unicode="M" horiz-adv-x="2007" 
d="M1715 1448q89 4 116 6l8 -147l-131 -23q-6 -55 -6 -119l65 -895q2 -20 7.5 -40.5t9.5 -34.5l10 -43l137 -13l-10 -149q-27 2 -128 6t-241 4q-53 0 -121.5 -4t-89.5 -6l-10 137l137 25q8 94 9 180l-33 729l-377 -1061h-188l-367 1061l-39 -729q0 -86 8 -180l140 -13
l-13 -149q-18 2 -97 6t-218 4q-53 0 -120 -4t-87 -6l-10 137l139 25q8 27 29 118l57 895q0 43 -12 117l-137 25l10 147q23 -2 92.5 -6t124.5 -4h289l41 -41q10 -37 36.5 -133t51.5 -176l211 -641l229 671q20 63 47 152.5t37 126.5l41 41h199q65 0 154 4z" />
    <glyph glyph-name="N" unicode="N" horiz-adv-x="1642" 
d="M1458.5 1448q-102.5 -4 -207.5 -4l-204 10l-11 -154l133 -24q18 -147 19 -227v-578l-451 629q-18 29 -86.5 145.5t-93.5 157.5l-39 41h-209q-59 0 -122.5 4t-82.5 6l-10 -154l133 -24q6 -31 12.5 -96.5t6.5 -130.5v-715q0 -27 -7.5 -86.5t-11.5 -89.5l-135 -25l10 -143
q18 2 82 6t123 4q145 0 232.5 -4t107.5 -6l10 155l-133 13q0 6 -9 78.5t-9 158.5v527l665 -922h277v395v715q0 27 7 81t11 85l136 12l-11 166q-30 -2 -132.5 -6z" />
    <glyph glyph-name="O" unicode="O" horiz-adv-x="1572" 
d="M1427.5 321q-90.5 -171 -256 -265.5t-385.5 -94.5q-219 0 -384.5 94.5t-256 265.5t-90.5 400t90.5 401t255 266.5t385.5 94.5t386 -94.5t255.5 -266.5t90.5 -401t-90.5 -400zM513 298q89 -138 273 -138t273.5 138t89.5 423q0 287 -89 425t-274 138q-184 0 -273 -138
t-89 -425q0 -285 89 -423z" />
    <glyph glyph-name="P" unicode="P" horiz-adv-x="1261" 
d="M563 555v-160q0 -109 19 -237l153 -13l-10 -155q-33 2 -152.5 6t-265.5 4q-59 0 -122.5 -4t-82.5 -6l-10 143l135 25q2 12 10.5 78.5t8.5 97.5v715q0 90 -9.5 155.5t-9.5 71.5l-133 24l10 154q18 -2 81 -6t122 -4q41 0 113 4l108 6q137 10 220 10q219 0 351 -118.5
t132 -329.5q0 -141 -77 -245.5t-204 -160t-274 -55.5h-113zM836.5 1229.5q-64.5 66.5 -207.5 66.5l-56 -2q-10 -133 -10 -184v-387h35q141 0 222 78t81 217q0 145 -64.5 211.5z" />
    <glyph glyph-name="Q" unicode="Q" horiz-adv-x="1585" 
d="M786 -39q-219 0 -384.5 94.5t-256 265.5t-90.5 400t90.5 401t255 266.5t385.5 94.5t386 -94.5t255.5 -266.5t90.5 -401q0 -246 -105.5 -426t-294.5 -266l142 -95q20 -12 149 -66t174 -73l-184 -254l-570 420h-43zM513 298q89 -138 273 -138t273.5 138t89.5 423
q0 287 -89 425t-274 138q-184 0 -273 -138t-89 -425q0 -285 89 -423z" />
    <glyph glyph-name="R" unicode="R" horiz-adv-x="1353" 
d="M1346 -10q-29 2 -137.5 6t-254.5 4q-12 31 -48 119t-52 119l-170 329h-31q-35 0 -90 6v-178q0 -109 19 -237l133 -13l-10 -155q-29 2 -140.5 6t-257.5 4q-59 0 -122.5 -4t-82.5 -6l-10 143l135 25q2 12 10.5 78.5t8.5 97.5v715q0 111 -19 227l-133 24l10 154q18 -2 83 -6
t128 -4q43 0 114 4t103 6q127 10 205 10q217 0 348.5 -115.5t131.5 -316.5q0 -127 -67 -226t-181 -163q74 -147 142.5 -255.5t74.5 -119.5l71 -114l99 -9zM612 739q143 0 209 72t66 217q0 135 -65.5 201.5t-203.5 66.5l-43 -2q-12 -123 -12 -184v-371h49z" />
    <glyph glyph-name="S" unicode="S" horiz-adv-x="1173" 
d="M293 309q0 -14 29 -84q109 -57 221 -57q92 0 152.5 44t60.5 128q0 61 -35 107.5t-87 78t-147 78.5q-121 59 -197.5 111.5t-131 138.5t-54.5 213q0 123 61.5 216t171 142.5t249.5 49.5q205 0 450 -74l-28 -395l-170 10v151q0 10 -25 70q-41 23 -79 35t-87 12
q-94 0 -149.5 -44t-55.5 -122q0 -55 34 -97t85 -72.5t141 -74.5q123 -59 202 -110t134.5 -137t55.5 -209q0 -137 -70 -238.5t-189.5 -156t-267.5 -54.5q-123 0 -229.5 21.5t-177 48.5t-70.5 29l31 395l170 -10z" />
    <glyph glyph-name="T" unicode="T" horiz-adv-x="1282" 
d="M1098 1219q0 2 -19 47q-92 10 -155 10h-105q-6 -35 -12 -86t-6 -80v-715q0 -109 18 -237l133 -13l-10 -155q-29 2 -140.5 6t-256.5 4q-59 0 -123 -4t-82 -6l-10 143l135 25q2 12 10 78.5t8 97.5v715q0 84 -8 151.5t-10 75.5h-96q-61 0 -164 -10q-18 -45 -19 -47
q-12 -45 -18 -142l-148 10l15 340l39 37q31 -4 119 -12t114 -8h668q25 0 114 8t119 12l39 -37l17 -340l-148 -10q-6 97 -18 142z" />
    <glyph glyph-name="U" unicode="U" horiz-adv-x="1595" 
d="M1397 1191q-6 -52 -6 -81v-561q0 -268 -154 -424t-440 -156q-287 0 -439.5 156t-152.5 424v500q0 68 -6 133t-13 94l-133 24l10 154q18 -2 82 -6t123 -4q145 0 261 4t147 6l10 -166l-135 -12q-4 -18 -11.5 -77.5t-7.5 -88.5v-578q0 -143 79 -236t220 -93q156 0 222.5 84
t66.5 245v517q0 90 -18 227l-133 24l10 154q18 -2 81.5 -6t123.5 -4q145 0 236 4t114 6l10 -166l-135 -12q-6 -33 -12 -85z" />
    <glyph glyph-name="V" unicode="V" horiz-adv-x="1447" 
d="M145.5 1248q-18.5 34 -24.5 44l-123 19l10 143q18 -2 80 -6t109 -4q145 0 268 4t158 6l10 -149l-133 -19q0 -12 4 -48t12 -58l238 -756l260 784q8 27 11 49.5t3 28.5l-131 25l10 143q23 -2 94.5 -6t131.5 -4q106 0 192 4t109 6l10 -149l-103 -15q-12 -18 -44.5 -77.5
t-47.5 -98.5l-409 -1114h-236l-428 1182q-12 32 -30.5 66z" />
    <glyph glyph-name="W" unicode="W" horiz-adv-x="2107" 
d="M1957 1219.5q-28 -54.5 -44 -105.5l-357 -1114h-235l-262 866l-275 -866h-235l-375 1182q-12 39 -27.5 70.5t-19.5 39.5l-123 19l10 143q18 -2 80 -6t109 -4q145 0 268 4t158 6l10 -149l-133 -19v-41t8 -65l184 -756l273 958h231l268 -958l207 784q6 18 6 49
q0 12 -1 19.5t-1 9.5l-131 25l11 143q23 -2 94 -6t131 -4q106 0 192 4t109 6l10 -149l-102 -15q-10 -16 -38 -70.5z" />
    <glyph glyph-name="X" unicode="X" horiz-adv-x="1427" 
d="M127 1294l-109 17l13 143q18 -2 81.5 -6t110.5 -4q145 0 257 4t143 6l6 -151l-86 -11q47 -104 84 -155l116 -176l140 223q27 39 59 110l-84 17l12 143q18 -2 82 -6t123 -4q106 0 192.5 4t108.5 6l8 -151l-133 -17q-102 -98 -121 -121l-256 -391l357 -504q70 -82 100 -114
l105 -11l-13 -155q-31 2 -142.5 6t-256.5 4q-47 0 -104.5 -4t-75.5 -6l-8 143l75 14q-53 109 -80 144l-159 227l-168 -248q-25 -37 -64 -116l101 -9l-13 -155q-23 2 -108.5 6t-192.5 4q-59 0 -122.5 -4t-81.5 -6l-9 143l107 19q141 147 168 184l254 366l-307 441z" />
    <glyph glyph-name="Y" unicode="Y" horiz-adv-x="1458" 
d="M1331 1290q-14 -18 -59 -76.5t-68 -99.5l-313 -602v-117q0 -109 18 -237l133 -13l-10 -155q-29 2 -140.5 6t-256.5 4q-59 0 -122.5 -4t-82.5 -6l-10 143l135 25q2 12 10 78.5t8 97.5v176l-364 672q-18 31 -52 65.5t-46 44.5l-123 19l10 143q18 -2 79.5 -6t108.5 -4
q145 0 268.5 4t157.5 6l11 -149l-109 -19q2 -10 12.5 -46t22.5 -60l215 -424l225 452q6 10 7 39t1 39l-90 25l11 143q23 -2 94 -6t131 -4q106 0 192 4t109 6l10 -149z" />
    <glyph glyph-name="Z" unicode="Z" horiz-adv-x="1251" 
d="M270 1251l-26 -57q-8 -33 -17.5 -77t-13.5 -79l-147 11l14 378l41 37q31 -4 121 -12t114 -8h777l20 -164l-219 -330l-320 -516l-131 -252h322q86 0 172 17q39 80 41 96q23 82 26 121l140 -10l-31 -377l-41 -37q-31 2 -106.5 5t-128.5 3h-791l-20 164q29 39 112.5 153.5
t114.5 167.5l358 572l103 205h-314q-68 -1 -170 -11z" />
    <glyph glyph-name="bracketleft" unicode="[" horiz-adv-x="542" 
d="M329 1340.5q7 58.5 11 74.5l141 19l-6 135q-35 -2 -145.5 -5t-198.5 -3l-49 -60q2 -53 5 -175t5 -198v-935q-2 -78 -5 -203t-5 -178l49 -60q88 0 198.5 -3t145.5 -5l6 135l-141 19q-4 16 -11 74.5t-7 109.5v1149q0 51 7 109.5z" />
    <glyph glyph-name="backslash" unicode="\" horiz-adv-x="815" 
d="M176 1583l627 -1655l-193 -61l-624 1655z" />
    <glyph glyph-name="bracketright" unicode="]" horiz-adv-x="542" 
d="M214 -27.5q-7 -58.5 -11 -74.5l-142 -19l7 -135q35 2 145.5 5t198.5 3l49 60q-2 53 -5 178t-5 203v935q2 76 5 198t5 175l-49 60q-88 0 -199 3t-145 5l-7 -135l142 -19q4 -16 11 -74.5t7 -109.5v-1149q0 -51 -7 -109.5z" />
    <glyph glyph-name="asciicircum" unicode="^" horiz-adv-x="1204" 
d="M223 643l379 541l379 -541l182 121l-561 735l-561 -735z" />
    <glyph glyph-name="underscore" unicode="_" horiz-adv-x="1032" 
d="M1022 -475h-1018l-4 194h1032z" />
    <glyph glyph-name="grave" unicode="`" horiz-adv-x="737" 
d="M241.5 1329q-94.5 43 -132.5 62l96 155l424 -270l-97 -119l-137 100q-59 29 -153.5 72z" />
    <glyph glyph-name="a" unicode="a" horiz-adv-x="1071" 
d="M524.5 20.5q-69.5 -40.5 -166.5 -40.5q-139 0 -220 77.5t-81 212.5q0 240 271 283l290 47v59q0 100 -34.5 142.5t-118.5 42.5q-37 0 -84 -11.5t-82 -27.5l-14 -82l2 -88l-154 -6l-31 346q94 23 201 39t174 16q203 0 315.5 -97t112.5 -271v-267q0 -63 7.5 -139t11.5 -98
l123 -13l-13 -155q-20 2 -112.5 6t-264.5 4l-16 147q-47 -86 -116.5 -126.5zM385 402.5q-25 -29.5 -25 -87.5q0 -125 111 -125q53 0 93 35t54 97v145l-151 -25q-57 -10 -82 -39.5z" />
    <glyph glyph-name="b" unicode="b" horiz-adv-x="1175" 
d="M107.5 1556.5q80.5 -8.5 134.5 -8.5l180 4l43 -39q-4 -43 -12.5 -176t-8.5 -196v-254q55 70 125 106.5t166 36.5q201 0 295 -140t94 -370q0 -256 -132 -398t-382 -142q-223 0 -473 73q4 39 12.5 147.5t8.5 133.5v868q0 27 -8.5 91.5t-12.5 86.5l-153 35l18 154
q25 -4 105.5 -12.5zM444 532v-137q0 -35 7 -194q84 -27 135 -27q125 0 169 82t44 238q0 139 -36 222t-138 83q-167 -1 -181 -267z" />
    <glyph glyph-name="c" unicode="c" horiz-adv-x="954" 
d="M714 1019q81 -11 134 -22.5t67 -15.5l-30 -363l-174 7l2 110q-4 53 -8 80q-27 25 -64 39t-70 14q-100 0 -147 -89t-47 -277q0 -334 246 -334q63 0 116.5 14.5t84 29.5t38.5 21l72 -118q-78 -70 -175 -108t-196 -38q-250 0 -381 136.5t-131 396.5q0 246 134 387t368 141
q80 0 161 -11z" />
    <glyph glyph-name="d" unicode="d" horiz-adv-x="1204" 
d="M1032 -4q-92 4 -264 4l-16 154q-63 -92 -138 -133t-176 -41q-186 0 -287.5 133t-101.5 376q0 258 134 399.5t380 141.5q68 0 166 -10v182q0 27 -8 91.5t-12 86.5l-154 35l18 154q25 -4 106 -12.5t134 -8.5l180 4l43 -39q-4 -43 -12 -176t-8 -196v-746q0 -63 7 -139
t11 -98l123 -13l-12 -155q-21 2 -113 6zM588 836q-113 0 -163 -76t-50 -244q0 -156 42 -230.5t132 -74.5q164 0 180 266v332q-82 27 -141 27z" />
    <glyph glyph-name="e" unicode="e" horiz-adv-x="1019" 
d="M379 453q10 -156 71.5 -221.5t184.5 -65.5q66 0 121 15.5t86.5 30.5t40.5 21l71 -118q-162 -145 -401 -146q-236 0 -369 138.5t-133 388.5q0 254 134 394t360 140q205 0 317.5 -118.5t112.5 -329.5l-2 -50l-43 -79h-551zM651 635q0 233 -129 233q-74 0 -106.5 -68.5
t-36.5 -195.5l270 14z" />
    <glyph glyph-name="f" unicode="f" horiz-adv-x="739" 
d="M770.5 1563.5q106.5 -13.5 106.5 -15.5l-31 -342l-152 6v93q0 29 -8 90q-37 16 -76 16q-72 0 -95 -55.5t-23 -188.5v-155h227l-19 -154h-208v-463q0 -63 7 -139t11 -98l174 -13l-10 -155q-29 2 -135.5 6t-251.5 4q-59 0 -123 -4t-82 -6l-10 143l114 25q2 23 10.5 87
t8.5 89v524h-117l-6 129q47 14 57 17q14 6 30.5 11t35.5 11v162q0 113 46 201t130 138t194 50q89 0 195.5 -13.5z" />
    <glyph glyph-name="g" unicode="g" horiz-adv-x="1073" 
d="M954.5 769q12.5 -44 12.5 -105q0 -111 -55.5 -196t-155 -132t-230.5 -47q-74 0 -139 16q-29 -35 -29 -55q0 -33 39 -50.5t131 -27.5q213 -23 298 -35t122 -26q106 -41 107 -191q0 -111 -73 -203t-199 -145t-277 -53q-223 0 -337 73.5t-114 219.5q0 33 52.5 82t136.5 98
q-45 33 -66.5 78t-21.5 110q0 41 125 164q-88 47 -137.5 128t-49.5 183q0 111 55.5 196t154.5 132t231 47q129 0 223 -43l268 45l8 -176h-121q29 -43 41.5 -87zM406 651q0 -227 122 -227q66 0 96.5 59.5t30.5 184.5q0 115 -29.5 171t-90.5 56q-129 0 -129 -244zM328 -156
q0 -78 68.5 -119.5t199.5 -41.5q96 0 152.5 34.5t56.5 94.5q0 29 -17.5 47t-50.5 22l-266 41q-68 10 -106 21q-37 -50 -37 -99z" />
    <glyph glyph-name="h" unicode="h" horiz-adv-x="1292" 
d="M148.5 1556.5q80.5 -8.5 134.5 -8.5l180 4l43 -39q-8 -82 -14.5 -192.5t-6.5 -179.5v-250q113 139 279 139q178 0 270 -93t92 -271v-271q0 -63 7.5 -139t11.5 -98l133 -13l-10 -155q-25 2 -123 6t-244 4q-59 0 -110.5 -4t-65.5 -6l-10 143l114 25l7 90l4 86v303
q0 84 -38 136t-114 52q-82 0 -142.5 -75.5t-60.5 -206.5v-148q0 -63 7.5 -139t11.5 -98l133 -13l-10 -155q-25 2 -123 6t-244 4q-59 0 -122.5 -4t-82.5 -6l-10 143l135 25q4 31 11.5 90t7.5 86v868q0 27 -8.5 91.5t-12.5 86.5l-153 35l18 154q25 -4 105.5 -12.5z" />
    <glyph glyph-name="i" unicode="i" horiz-adv-x="679" 
d="M465 1461q43 -44 43 -120q0 -74 -42 -117.5t-120 -43.5t-120 44t-42 117q0 74 43 119t119 45t119 -44zM514 -4q-98 4 -244 4q-59 0 -122.5 -4t-81.5 -6l-11 143l135 25q2 23 10.5 87t8.5 89v332q0 27 -8 91t-13 87l-153 35l18 151q25 -4 106 -11t134 -7l180 4l43 -39
q-4 -43 -12 -176t-8 -197v-209q0 -63 7 -139t11 -98l133 -13l-10 -155q-25 2 -123 6z" />
    <glyph glyph-name="j" unicode="j" horiz-adv-x="630" 
d="M428 1461q43 -44 43 -120q0 -74 -42 -117.5t-120 -43.5t-120 44t-42 117q0 74 43 119t119 45t119 -44zM134 1019q81 -7 134 -7l181 4l43 -39q-4 -43 -12.5 -176t-8.5 -197v-624q0 -37 -77 -139.5t-158.5 -198t-108.5 -123.5l-96 53q12 29 49 127t70.5 202.5t33.5 141.5
v197v426q0 27 -8 91t-12 87l-154 35l19 151q24 -4 105 -11z" />
    <glyph glyph-name="k" unicode="k" horiz-adv-x="1251" 
d="M148.5 1556.5q80.5 -8.5 134.5 -8.5l180 4l43 -39q-8 -82 -14.5 -192.5t-6.5 -179.5v-746q0 -63 7.5 -139t11.5 -98l133 -13l-10 -155q-25 2 -123 6t-244 4q-59 0 -122.5 -4t-82.5 -6l-10 143l135 25q4 31 11.5 90t7.5 86v868q0 27 -8.5 91.5t-12.5 86.5l-153 35l18 154
q25 -4 105.5 -12.5zM796.5 1016q102.5 -4 192.5 -4q72 0 142.5 3t95.5 5l-4 -143l-109 -11q-68 -39 -108.5 -66.5t-59.5 -49.5l-137 -177l154 -241q14 -23 100 -109l61 -65l123 -13l-12 -155q-18 2 -88 6t-143 4h-201l-60 123l-8 16l-45 86l-182 318l256 321l-111 13l11 145
q30 -2 132.5 -6z" />
    <glyph glyph-name="l" unicode="l" horiz-adv-x="673" 
d="M148.5 1556.5q80.5 -8.5 134.5 -8.5l180 4l43 -39q-8 -82 -14.5 -192.5t-6.5 -179.5v-746q0 -63 7.5 -139t11.5 -98l133 -13l-10 -155q-25 2 -123 6t-244 4q-59 0 -122.5 -4t-82.5 -6l-10 143l135 25q4 31 11.5 90t7.5 86v868q0 27 -8.5 91.5t-12.5 86.5l-153 35l18 154
q25 -4 105.5 -12.5z" />
    <glyph glyph-name="m" unicode="m" horiz-adv-x="1878" 
d="M1853 -10q-25 2 -123 6t-243 4q-59 0 -110.5 -4t-65.5 -6l-11 143l115 25l6 90l4 86v303q0 86 -32.5 137t-102.5 51q-76 0 -131 -75.5t-55 -206.5v-148q0 -63 7 -139t11 -98l133 -13l-10 -155q-25 2 -123 6t-243 4q-59 0 -110.5 -4t-66.5 -6l-10 143l115 25l6 90l4 86
v303q0 86 -32.5 137t-102.5 51q-76 0 -131 -75.5t-55 -206.5v-148q0 -63 7 -139t11 -98l133 -13l-10 -155q-25 2 -123 6t-244 4q-59 0 -122.5 -4t-81.5 -6l-11 143l135 25q2 23 10.5 86t8.5 90v332q0 25 -8 90t-13 88l-153 35l18 151q25 -4 106 -11t134 -7l98 4l43 -39
l21 -143q61 94 140 145t183 51q223 0 295 -180q125 180 313 180q160 0 243 -93t83 -271v-271q0 -63 7 -139t12 -98l133 -13z" />
    <glyph glyph-name="n" unicode="n" horiz-adv-x="1302" 
d="M1278 -10q-25 2 -123 6t-244 4q-59 0 -110 -4t-66 -6l-10 143l115 25l6 90l4 86v303q0 84 -38 136t-114 52q-82 0 -142 -75.5t-60 -206.5v-148q0 -63 7 -139t11 -98l133 -13l-10 -155q-25 2 -123 6t-244 4q-59 0 -122.5 -4t-81.5 -6l-11 143l135 25q2 23 10.5 86t8.5 90
v332q0 25 -8 90t-13 88l-153 35l18 151q25 -4 106 -11t134 -7l98 4l43 -39l21 -146q66 96 147.5 147.5t192.5 51.5q168 0 255 -93t87 -271v-271q0 -63 7 -139t11 -98l133 -13z" />
    <glyph glyph-name="o" unicode="o" horiz-adv-x="1114" 
d="M932 106.5q-131 -137.5 -375 -137.5t-375 137.5t-131 393.5t131 393t375 137t375 -137t131 -393t-131 -393.5zM695 772q-42 84 -138 84t-138 -84t-42 -272t42 -272.5t138 -84.5t138 84t42 273q0 188 -42 272z" />
    <glyph glyph-name="p" unicode="p" horiz-adv-x="1206" 
d="M1053.5 897q101.5 -133 101.5 -377q0 -258 -134 -399t-380 -141q-70 0 -166 10v-64q0 -63 8.5 -143t12.5 -105l161 -12l-10 -145q-25 2 -123 6t-243 4q-59 0 -123 -4t-82 -6l-10 133l102 24q4 23 12 91.5t8 95.5v801q0 27 -8 91t-12 87l-154 35l19 151q23 -4 99.5 -11
t139.5 -7l99 4l43 -39l20 -150q66 106 144.5 154.5t187.5 48.5q186 0 287.5 -133zM528 731.5q-45 -67.5 -53 -199.5v-329q86 -29 141 -29q113 0 163 76t50 244q0 156 -42 230.5t-132 74.5q-82 0 -127 -67.5z" />
    <glyph glyph-name="q" unicode="q" horiz-adv-x="1169" 
d="M1128 -481q-25 2 -123 6t-243 4q-59 0 -123 -4t-82 -6l-10 133l164 24q4 23 12 91.5t8 95.5v260q-59 -76 -129 -111t-162 -35q-186 0 -287.5 133.5t-101.5 376.5q0 258 134 399.5t380 141.5q102 0 229.5 -19.5t243.5 -54.5q-4 -39 -12 -146.5t-8 -133.5v-750
q0 -63 8 -143t12 -105l101 -12zM731 475v137q0 37 -6 197q-84 25 -135 25q-113 0 -163 -76t-50 -244q0 -156 42 -230.5t132 -74.5q164 0 180 266z" />
    <glyph glyph-name="r" unicode="r" horiz-adv-x="937" 
d="M741 1030q47 0 99.5 -8t68.5 -12l-30 -412l-152 6v113q0 8 -16 106q-4 2 -13 2q-82 0 -142 -75.5t-60 -206.5v-148q0 -63 7 -139t11 -98l170 -13l-10 -155q-29 2 -135.5 6t-251.5 4q-59 0 -131 -4t-95 -6l-10 143l139 25q2 23 10.5 87t8.5 89v332q0 27 -8 91t-13 87
l-153 35l18 153q25 -4 106 -12t134 -8l98 4l43 -39l19 -135q120 188 288 188z" />
    <glyph glyph-name="s" unicode="s" horiz-adv-x="878" 
d="M778 981l-24 -324l-138 11v88q0 8 -9 33.5t-19 44.5q-74 33 -144 32q-68 0 -100.5 -22.5t-32.5 -55.5q0 -39 40 -63.5t130 -58.5q102 -39 172 -77t120 -108.5t50 -181.5q0 -154 -107.5 -236.5t-291.5 -82.5q-66 0 -146.5 10t-140 21.5t-76.5 15.5l25 338l145 -11v-92
q2 -16 8.5 -40.5t10.5 -35.5q111 -45 180 -45q55 0 93 23.5t38 64.5q0 43 -39 68t-129 61q-100 41 -164.5 78t-112.5 107.5t-48 181.5q0 152 102 228.5t281 76.5q171 0 327 -49z" />
    <glyph glyph-name="t" unicode="t" horiz-adv-x="733" 
d="M618.5 8.5q-63.5 -28.5 -145.5 -28.5q-164 0 -235.5 82.5t-71.5 256.5v539h-131l-6 129q12 6 101 40t97 46q16 23 57.5 89.5t55.5 88.5l113 -8v-231h243l-18 -154h-225v-565q0 -53 28.5 -91t77.5 -38q25 0 49.5 9t41 18.5t20.5 13.5l75 -117q-63 -51 -126.5 -79.5z" />
    <glyph glyph-name="u" unicode="u" horiz-adv-x="1273" 
d="M755 1019q81 -7 134 -7l180 4l43 -39q-4 -43 -12 -176t-8 -197v-209q0 -63 7 -139t11 -98l123 -13l-12 -155q-20 2 -112.5 6t-264.5 4l-19 160q-59 -82 -130.5 -125t-166.5 -43q-178 0 -269 93t-91 271v310q0 27 -8 94t-13 90l-112 29l18 151q25 -4 100.5 -11t129.5 -7
l149 4l43 -39q-4 -43 -12 -176t-8 -197v-219q0 -86 36.5 -137t112.5 -51q82 0 141.5 75.5t59.5 206.5v187q0 27 -8.5 91t-12.5 87l-153 35l18 151q25 -4 106 -11z" />
    <glyph glyph-name="v" unicode="v" horiz-adv-x="1144" 
d="M940 653l-246 -653h-260l-246 705q-25 80 -61 161l-133 23l10 141q27 -4 121 -11t184 -7q51 0 121 4t92 6l10 -145l-92 -9q12 -92 25 -143l115 -422l139 422q12 37 37 143l-92 9l10 145q20 -2 97 -6t167 -4q51 0 107.5 4t72.5 6l10 -145l-92 -13q-84 -178 -96 -211z" />
    <glyph glyph-name="w" unicode="w" horiz-adv-x="1705" 
d="M1511 653l-239 -653h-266l-152 494l-166 -494h-264l-246 705q-25 80 -61 161l-113 23l10 141q25 -4 110 -11t175 -7q51 0 137 4t115 6l10 -145l-135 -9l10 -53l19 -92l114 -420l217 709h181l190 -709l133 424q14 41 37 141l-119 9l11 145q25 -2 112.5 -6t177.5 -4
q51 0 105.5 4t71.5 6l10 -145l-88 -13q-85 -178 -97 -211z" />
    <glyph glyph-name="x" unicode="x" horiz-adv-x="1177" 
d="M569 1022q-20 -2 -88.5 -6t-118.5 -4q-86 0 -186 7t-131 11l-10 -139l67 -17l193 -212l102 -146l-102 -139l-189 -221l-77 -15l10 -151q16 2 72.5 6t105.5 4q88 0 163 -4t95 -6l10 153l-65 7l16 34l121 187l117 -176l26 -45l-82 -9l11 -151q20 2 88.5 6t118.5 4
q88 0 188 -7t131 -11l6 149l-84 23l-180 196l-125 170l86 117l197 229l73 13l-10 143q-16 -2 -72.5 -6t-105.5 -4q-88 0 -163 4t-95 6l-10 -143l69 -9l-57 -90l-74 -121l-78 127l-49 84l97 9z" />
    <glyph glyph-name="y" unicode="y" horiz-adv-x="1169" 
d="M757 799q7 41 9 67l-90 11l12 145q18 -2 89 -6t155 -4q57 0 129 4t94 6l8 -145l-100 -11q-16 -27 -43 -89t-43 -105l-447 -1153l-405 26l22 162l113 -4q49 0 90 12q39 45 64 115l63 170l-254 666q-59 152 -86 200l-129 23l12 141q27 -4 114 -11t171 -7q57 0 133 4t99 6
l8 -145l-86 -11q2 -31 11 -72.5t17 -64.5l129 -405l125 409q9 25 16 66z" />
    <glyph glyph-name="z" unicode="z" horiz-adv-x="942" 
d="M183.5 1015q58.5 -3 105.5 -3h588l14 -142l-158 -200l-246 -379q-20 -29 -65 -127h166q14 0 65 10q16 2 38 6t44 6q33 76 33 86l14 90l142 -12l-23 -315l-41 -41q-25 0 -85 3t-107 3h-596l-29 143q23 25 88.5 98.5t83.5 102.5l250 377q27 37 67 127h-161l-56 -8
q-45 -12 -77 -15q-8 -18 -17.5 -46.5t-9.5 -39.5l-8 -116l-156 6l10 348l43 41q25 0 83.5 -3z" />
    <glyph glyph-name="braceleft" unicode="{" horiz-adv-x="591" 
d="M353.5 605.5q-31.5 19.5 -54.5 29.5t-29 12v19q6 2 29 12t54.5 29.5t58.5 44.5l-21 479q0 51 7.5 109.5t11.5 74.5l141 19l-6 135q-35 -2 -145.5 -5t-198.5 -3l-49 -60l61 -717q-25 -27 -76 -52t-67 -25l-9 -101q20 0 72.5 -25.5t77.5 -52.5l-59 -716l49 -60
q88 0 198.5 -3t145.5 -5l6 135l-141 19q-4 16 -11.5 74.5t-7.5 109.5l21 479q-27 25 -58.5 44.5z" />
    <glyph glyph-name="bar" unicode="|" horiz-adv-x="571" 
d="M383 1540v-1790l-195 19v1787z" />
    <glyph glyph-name="braceright" unicode="}" horiz-adv-x="591" 
d="M238.5 707.5q31.5 -19.5 54 -29.5t29.5 -12v-19q-6 -2 -29 -12t-54.5 -29.5t-58.5 -44.5l21 -479q0 -51 -7.5 -109.5t-11.5 -74.5l-141 -19l6 -135q35 2 145.5 5t198.5 3l49 60q-4 49 -20.5 234t-40.5 482q25 25 76 51.5t67 26.5l8 101q-23 0 -75 25.5t-76 51.5l61 717
l-49 60q-88 0 -198.5 3t-145.5 5l-6 -135l141 -19q4 -16 11.5 -74.5t7.5 -109.5l-21 -479q27 -25 58.5 -44.5z" />
    <glyph glyph-name="asciitilde" unicode="~" horiz-adv-x="1236" 
d="M972 381q54 53 98 116.5t44 67.5l-110 92q-6 -8 -28 -31.5t-52.5 -46t-57.5 -22.5q-35 0 -85 13.5t-136 41.5q-98 33 -163.5 50.5t-116.5 17.5q-45 0 -99.5 -53.5t-98.5 -117t-44 -67.5l110 -92q6 8 28 32t52.5 46.5t57.5 22.5q57 0 239 -60q106 -33 163.5 -48t98.5 -15
q46 0 100 53z" />
    <glyph glyph-name="nbsp" unicode="&#xa0;" horiz-adv-x="366" 
 />
    <glyph glyph-name="exclamdown" unicode="&#xa1;" horiz-adv-x="489" 
d="M114 995q-40 -45 -40 -118q0 -74 40 -118t111 -44q72 0 112 44t40 118q0 76 -40 119.5t-112 43.5q-71 0 -111 -45zM224.5 543q64.5 -4 117.5 -4l-2 -136l18 -852l-245 -18l-60 57q4 35 16.5 160t23.5 295t11 313q0 51 -2 96.5t-4 61.5l35 33q27 -2 91.5 -6z" />
    <glyph glyph-name="cent" unicode="&#xa2;" horiz-adv-x="1036" 
d="M807 178q-88 -37 -178 -43l-8 -221l-134 6l9 219q-205 27 -309.5 161t-104.5 366q0 225 118.5 368.5t338.5 157.5l10 219l131 -6l-8 -215q92 -6 183 -24.5t91 -20.5l-31 -363l-153 6l2 111l-8 80q-25 23 -62 38t-71 15q-92 0 -139.5 -48t-61.5 -126t-14 -192
q0 -154 55 -244t190 -90q63 0 116.5 14t84.5 29.5t39 21.5l72 -118q-70 -64 -158 -101z" />
    <glyph glyph-name="sterling" unicode="&#xa3;" horiz-adv-x="1261" 
d="M1169 29l-39 -37q-31 2 -105.5 5t-127.5 3h-561q-59 0 -122.5 -4t-82.5 -6l-10 143l135 25q2 23 10 86t8 90v129l-168 -8l-4 133l172 8v84l-178 -8l-4 133l182 8v143q0 195 131.5 302.5t337.5 107.5q150 0 416 -66l-24 -333l-148 6l-6 92q0 20 -16 78q-57 25 -109.5 34
t-114.5 9q-76 0 -123 -54.5t-47 -132.5v-174l361 17l4 -131l-365 -17v-86l371 17l4 -131l-375 -17v-82q0 -109 17 -217h248q80 0 157 17q37 80 39 88q18 70 25 116l143 -10z" />
    <glyph glyph-name="yen" unicode="&#xa5;" horiz-adv-x="1339" 
d="M821 395q0 -63 7.5 -139t11.5 -98l133 -13l-10 -155q-25 2 -123.5 6t-243.5 4q-59 0 -127 -4t-88 -6l-10 143l135 25q2 23 10 87t8 89v133l-305 -12l-4 133l260 10l-47 84l-219 -10l-4 133l149 6l-137 246q-20 39 -92 123l-100 22l10 144q16 -2 75.5 -6.5t118.5 -4.5
q145 0 243.5 4t123.5 7l10 -156l-112 -10l30 -78l178 -318l193 340l18 54l-141 24l10 144q23 -2 92.5 -6.5t122.5 -4.5q145 0 218 4t90 7l10 -156l-101 -10q-121 -147 -137 -179l-98 -165l147 6l4 -131l-231 -11l-51 -88l289 13l4 -131l-320 -15v-84z" />
    <glyph glyph-name="brokenbar" unicode="&#xa6;" horiz-adv-x="571" 
d="M383 1540v-737l-195 16v737zM188 -231v665l195 -14v-670z" />
    <glyph glyph-name="section" unicode="&#xa7;" horiz-adv-x="1175" 
d="M851 561q-38 41 -95.5 73t-159.5 77q-137 59 -223 109t-147.5 131t-61.5 194q0 158 116.5 244t303.5 86q176 0 385 -60l-25 -307l-145 10v111q0 4 -8 41q-47 39 -150 39q-74 0 -119 -36t-45 -97q0 -59 57.5 -97.5t178.5 -87.5q102 -43 165.5 -77.5t108.5 -89t45 -130.5
q0 -53 -24.5 -108.5t-51 -91t-34.5 -45.5l-33 20q0 51 -38 92zM345 698q38 -41 95.5 -72.5t159.5 -76.5q137 -59 223 -109.5t147.5 -131.5t61.5 -193q0 -158 -119.5 -244t-310.5 -86q-94 0 -206.5 16.5t-209.5 42.5l25 328l145 -10v-111q0 -18 11 -63q57 -37 178 -37
q80 0 127 36t47 97q0 59 -57.5 97t-178.5 87q-102 43 -165.5 78t-108.5 89t-45 130q0 53 24.5 108.5t51 91.5t34.5 46l33 -20q0 -52 38 -93z" />
    <glyph glyph-name="dieresis" unicode="&#xa8;" horiz-adv-x="737" 
d="M228.5 1447q35.5 -38 35.5 -106q0 -66 -35.5 -103.5t-101.5 -37.5t-102.5 39t-36.5 102q0 66 36.5 105t102.5 39t101.5 -38zM714 1447q36 -38 36 -106q0 -66 -36 -103.5t-102 -37.5t-101.5 38t-35.5 103q0 66 36 105t101 39q66 0 102 -38z" />
    <glyph glyph-name="copyright" unicode="&#xa9;" horiz-adv-x="1730" 
d="M1512.5 140q-101.5 -171 -273.5 -273.5t-375 -102.5q-201 0 -373 99.5t-273 270.5t-101 378q0 203 101 375t273.5 272.5t372.5 100.5q205 0 377 -99.5t272.5 -271.5t100.5 -377q0 -201 -101.5 -372zM1388.5 813q-81.5 139 -221 222t-303.5 83t-303 -81t-221 -220
t-82 -305q0 -164 82 -303t221 -221t303 -82q166 0 304.5 82t220 221t81.5 303q0 162 -81.5 301zM1016.5 100.5q-58.5 -10.5 -125.5 -10.5q-213 0 -324.5 117t-111.5 311q0 197 111.5 313.5t324.5 116.5q61 0 113.5 -8t95.5 -18.5t57 -14.5l-18 -223l-101 4l-6 80
q-2 6 -5 18.5t-9 24.5q-74 12 -127 12q-96 0 -140 -82t-44 -221q0 -137 43 -221t139 -84q70 0 145 16q2 6 9.5 23.5t9.5 28.5l6 57l96 2l10 -211q-90 -20 -148.5 -30.5z" />
    <glyph glyph-name="ordfeminine" unicode="&#xaa;" horiz-adv-x="724" 
d="M347 932.5q-42 -25.5 -105 -25.5q-94 0 -147.5 52.5t-53.5 142.5q0 158 178 184l189 29v39q0 61 -24 87.5t-73 26.5q-23 0 -53.5 -7t-52.5 -17l-10 -51l2 -68l-107 -4l-20 233q57 14 129.5 25.5t117.5 11.5q137 0 216 -62.5t79 -168.5v-174q0 -43 4.5 -93.5t6.5 -64.5
l79 -8l-8 -105q-14 2 -76.5 4.5t-187.5 2.5l-8 94q-33 -58 -75 -83.5zM273.5 1187.5q-15.5 -18.5 -15.5 -54.5q0 -39 16.5 -57.5t51.5 -18.5q59 0 82 71v97l-82 -11q-37 -8 -52.5 -26.5z" />
    <glyph glyph-name="guillemetleft" unicode="&#xab;" horiz-adv-x="909" 
d="M276 496l216 -383l-138 -93l-313 476l313 475l138 -92zM633 496l215 -383l-137 -93l-314 476l314 475l137 -92z" />
    <glyph glyph-name="logicalnot" unicode="&#xac;" horiz-adv-x="1198" 
d="M872 432l-4 -299h197v498h-932v-207z" />
    <glyph glyph-name="registered" unicode="&#xae;" horiz-adv-x="1730" 
d="M1512.5 140q-101.5 -171 -273.5 -273.5t-375 -102.5q-201 0 -373 99.5t-273 270.5t-101 378q0 203 101 375t273.5 272.5t372.5 100.5q205 0 377 -99.5t272.5 -271.5t100.5 -377q0 -201 -101.5 -372zM1388.5 813q-81.5 139 -221 222t-303.5 83t-303 -81t-221 -220
t-82 -305q0 -164 82 -303t221 -221t303 -82q166 0 304.5 82t220 221t81.5 303q0 162 -81.5 301zM1107 897q81 -68 81 -182q0 -68 -37 -124t-100 -93q35 -70 77.5 -136.5t53.5 -76.5q6 -12 15 -26.5t20 -31.5l45 -6l-5 -96q-16 2 -83.5 4t-161.5 2q-6 16 -23.5 59t-34.5 76
l-94 178h-53v-75q0 -51 7 -92t7 -48l66 -8l-4 -96q-18 2 -91 4t-167 2q-43 0 -74 -2t-39 -4l-6 92l74 12q2 18 6 49t4 56v366q0 55 -5 95.5t-5 50.5l-72 14l6 98q10 -2 44 -4t81 -2q37 0 70.5 2t62.5 4q68 6 125 7q129 0 210 -68zM807 764v-209h10q80 0 110.5 39t30.5 119
q0 74 -30.5 107.5t-104.5 33.5h-10q-6 -55 -6 -90z" />
    <glyph glyph-name="macron" unicode="&#xaf;" horiz-adv-x="737" 
d="M698 1370l-14 -149h-645v149h659z" />
    <glyph glyph-name="degree" unicode="&#xb0;" horiz-adv-x="780" 
d="M630 836q-89 -82 -241 -82t-240 82t-88 223t88.5 223t239.5 82q152 0 241 -82t89 -223t-89 -223zM293 930q33 -51 98 -51q66 0 97.5 51t31.5 129t-31.5 129t-97.5 51t-98.5 -51t-32.5 -129t33 -129z" />
    <glyph glyph-name="plusminus" unicode="&#xb1;" horiz-adv-x="1230" 
d="M1081 625l-368 -4l4 -340h-205v337l-362 -4v205h362v332h195l4 -332h370v-194zM1081 197v-197h-931v186z" />
    <glyph glyph-name="acute" unicode="&#xb4;" horiz-adv-x="737" 
d="M495.5 1329q-94.5 -43 -153.5 -72l-137 -100l-96 119l423 270l97 -155q-39 -19 -133.5 -62z" />
    <glyph glyph-name="mu" unicode="&#xb5;" horiz-adv-x="1210" 
d="M1045.5 214q7.5 -34 27 -49t94.5 -52l-39 -144q-16 2 -106 10.5t-135 44t-72 103.5q-100 -135 -264 -135q-94 0 -152 31v-164l11 -305h-285l-43 38q4 37 17.5 151t13.5 177v746q-2 72 -5.5 184.5t-5.5 161.5h275l43 -39q-4 -43 -12.5 -174t-8.5 -195v-219q0 -84 38 -136
t114 -52q82 0 142.5 75.5t60.5 206.5v207l-11 326h275l43 -39q-4 -39 -12.5 -159t-10.5 -189v-283q0 -94 7.5 -128z" />
    <glyph glyph-name="paragraph" unicode="&#xb6;" horiz-adv-x="1280" 
d="M1061 17q8 -130 10 -173l-39 -37l-43 3q-154 6 -233 6q-59 0 -123 -4.5t-82 -6.5l-10 144l176 24q2 23 10 86.5t8 90.5v899v395h187q145 0 204.5 4t59.5 6l10 -166l-135 -12q-8 -147 -8 -166v-899q0 -64 8 -194zM301 648q-113 52 -179.5 149.5t-66.5 228.5
q0 125 58.5 222.5t162 150.5t230.5 53q66 0 127 -8v-768l-84 -80q-135 0 -248 52z" />
    <glyph glyph-name="periodcentered" unicode="&#xb7;" horiz-adv-x="497" 
d="M125 738q-43 -48 -43 -126t43 -125t119 -47t119 47.5t43 124.5q0 82 -43.5 128t-118.5 46q-76 0 -119 -48z" />
    <glyph glyph-name="cedilla" unicode="&#xb8;" horiz-adv-x="737" 
d="M561 -170q57 -47 57 -129q0 -92 -64.5 -137t-168.5 -45q-53 0 -110.5 11t-86.5 26l37 100q72 -23 113 -23t68.5 16.5t27.5 51.5t-22.5 49t-63.5 14l-43 -2l-22 29l22 229h135l-28 -141q92 -2 149 -49z" />
    <glyph glyph-name="ordmasculine" unicode="&#xba;" horiz-adv-x="753" 
d="M628 989q-87 -88 -251 -88t-251 88t-87 256q0 170 87 258t251 88q162 0 250 -89t88 -257t-87 -256zM457.5 1420q-25.5 50 -80.5 50q-57 0 -82 -50t-25 -175q0 -123 24.5 -173t82.5 -50q55 0 80.5 50t25.5 173q0 125 -25.5 175z" />
    <glyph glyph-name="guillemetright" unicode="&#xbb;" horiz-adv-x="909" 
d="M276 496l-215 383l138 92l313 -475l-313 -476l-138 93zM633 496l-215 383l137 92l313 -475l-313 -476l-137 93z" />
    <glyph glyph-name="questiondown" unicode="&#xbf;" horiz-adv-x="864" 
d="M462 995q-40 -45 -40 -118q0 -74 40 -118t111 -44q72 0 112 44t40 118q0 76 -40 119.5t-112 43.5q-71 0 -111 -45zM352.5 130q57.5 75 153.5 75q70 0 121 -6l63 69v267l-6 6q-66 0 -121 3t-84 5l-35 -33l7 -164q-195 -6 -313 -114.5t-118 -292.5q0 -203 126 -313.5
t348 -110.5q86 0 163.5 19.5t165.5 60.5l-24 303l-140 -10l5 -74q0 -20 -3.5 -58t-9.5 -57q-49 -33 -137 -33q-109 0 -164 75t-55 196q0 112 57.5 187z" />
    <glyph glyph-name="AE" unicode="&#xc6;" horiz-adv-x="1867" 
d="M1651 1208q0 2 -19 47q-102 10 -164 11h-342q6 -102 13 -156l45 -291q16 -4 53 -4h166q27 0 54.5 7t35.5 12l18 131l127 -11l-2 -163q0 -84 2 -159t4 -102l-131 -12l-18 123q-14 2 -59 7t-72 5h-115q-25 0 -37 -4l39 -254l41 -217h207q76 0 158 17q37 80 39 88
q18 70 24 116l144 -10l-31 -360l-39 -37q-31 2 -105.5 5t-127.5 3h-555q-47 0 -99.5 -4t-66.5 -6l-11 143l138 25q0 88 -4 112l-17 107h-444l-80 -141q-4 -10 -12.5 -31t-20.5 -47l141 -13l-10 -155q-23 2 -108.5 6t-192.5 4q-59 0 -122.5 -4t-82.5 -6l-10 143l104 19
q98 135 123 178l539 946l-131 24l10 154q18 -2 82 -6t123 -4h678q27 0 115 8t118 12l39 -37l15 -329l-148 -11q-12 98 -18 121zM846 997l-252 -452l324 4l-68 432z" />
    <glyph glyph-name="Ccedilla" unicode="&#xc7;" horiz-adv-x="1304" 
d="M962.5 -170q57.5 -47 57.5 -129q0 -92 -64.5 -137t-169.5 -45q-53 0 -110.5 11t-85.5 26l37 100q72 -23 112 -23q41 0 69 16.5t28 51.5t-22.5 49t-63.5 14l-43 -2l-23 29l18 180q-315 20 -481 222t-166 528q0 225 81 395t243 264.5t393 94.5q115 0 204 -16.5t238 -53.5
l-24 -367l-158 9l-6 124q0 20 -25 84q-131 29 -229 29q-178 0 -263 -153.5t-85 -407.5t84 -408.5t262 -154.5q115 0 254 30q4 10 18.5 49.5t14.5 51.5l6 96l154 4l16 -352q-119 -29 -211 -46.5t-191 -21.5l-18 -92q92 -2 149.5 -49z" />
    <glyph glyph-name="Eth" unicode="&#xd0;" horiz-adv-x="1400" 
d="M167.5 1448q63.5 -4 123.5 -4q76 0 213 10q39 2 109.5 6t105.5 4q233 0 395 -93t244 -260t82 -390q0 -219 -82 -384t-245 -257t-394 -92q-68 0 -123 2t-96 4q-113 6 -211 6q-59 0 -123 -4t-82 -6l-10 143l135 25q2 23 10 87t8 89v325h-141v150h141v240q0 63 -7 134.5
t-11 92.5l-133 24l10 154q18 -2 81.5 -6zM553 164q68 -6 133 -6q217 0 314.5 153.5t97.5 413.5q0 256 -97.5 412.5t-310.5 156.5q-43 0 -137 -16q-8 -139 -8 -168v-301h200l-10 -150h-190v-264q0 -133 8 -231z" />
    <glyph glyph-name="multiply" unicode="&#xd7;" horiz-adv-x="1138" 
d="M569 354l-303 -305l-141 139l301 308l-303 303l139 141l305 -299l297 301l148 -145l-299 -299l303 -297l-146 -148z" />
    <glyph glyph-name="Oslash" unicode="&#xd8;" horiz-adv-x="1572" 
d="M1437 1105q81 -167 81 -384q0 -229 -90.5 -400t-256 -265.5t-385.5 -94.5q-160 0 -294 51l-156 -293l-117 60l154 293q-152 96 -235 263t-83 386q0 229 90.5 401t255 266.5t385.5 94.5q164 0 299 -53l152 286l121 -59l-152 -289q150 -96 231 -263zM502 317l479 912
q-76 55 -195 55q-184 0 -273 -138t-89 -425q0 -269 78 -404zM1060 298q89 138 89 423q0 260 -74 399l-479 -909q76 -51 190 -51q185 0 274 138z" />
    <glyph glyph-name="Thorn" unicode="&#xde;" horiz-adv-x="1228" 
d="M555 1159q139 8 182 8q219 0 351.5 -115.5t132.5 -318.5q0 -135 -69 -233.5t-185.5 -149.5t-257.5 -51h-152q2 -49 8 -90t6 -51l134 -13l-11 -155q-29 2 -140.5 6t-256.5 4q-59 0 -122.5 -4t-82.5 -6l-10 143l135 25q2 12 10.5 78.5t8.5 97.5v715q0 90 -9.5 155.5
t-9.5 71.5l-133 24l10 154q18 -2 82 -6t123 -4q145 0 257 4t140 6l11 -166l-136 -12q-10 -51 -16 -117zM588 467q141 0 222 68.5t81 199.5q0 135 -65.5 199.5t-207.5 64.5q-37 0 -65 -2v-530h35z" />
    <glyph glyph-name="germandbls" unicode="&#xdf;" horiz-adv-x="1269" 
d="M205 334v524h-117l-6 129q47 14 57 17q14 6 30.5 11t35.5 11v162q2 389 475 389q440 0 440 -322q0 -78 -26.5 -138t-62.5 -101t-93 -92q-55 -49 -81 -82t-26 -74t34 -66.5t114 -64.5q82 -37 137 -73t94 -99.5t39 -155.5q0 -156 -93 -242.5t-251 -86.5q-57 0 -127.5 10
t-122 21.5t-65.5 15.5l24 338l144 -11v-92q2 -16 6 -41.5t6 -36.5q78 -45 133 -45q41 0 67.5 24.5t26.5 65.5q0 59 -39.5 95t-123.5 79q-76 41 -124 75t-82 92.5t-34 144.5q0 96 40 157.5t116 133.5q70 63 104.5 114t34.5 127q0 80 -58.5 119t-150.5 39q-115 0 -151.5 -68.5
t-36.5 -218.5v-723q0 -98 14 -317l4 -78h-160q-92 0 -170 -4t-98 -6l-10 143l114 25q19 147 19 176z" />
    <glyph glyph-name="agrave" unicode="&#xe0;" horiz-adv-x="1071" 
d="M524.5 20.5q-69.5 -40.5 -166.5 -40.5q-139 0 -220 77.5t-81 212.5q0 240 271 283l290 47v59q0 100 -34.5 142.5t-118.5 42.5q-37 0 -84 -11.5t-82 -27.5l-14 -82l2 -88l-154 -6l-31 346q94 23 201 39t174 16q203 0 315.5 -97t112.5 -271v-267q0 -63 7.5 -139t11.5 -98
l123 -13l-13 -155q-20 2 -112.5 6t-264.5 4l-16 147q-47 -86 -116.5 -126.5zM385 402.5q-25 -29.5 -25 -87.5q0 -125 111 -125q53 0 93 35t54 97v145l-151 -25q-57 -10 -82 -39.5zM327.5 1329q-94.5 43 -132.5 62l96 155l424 -270l-97 -119l-137 100q-59 29 -153.5 72z" />
    <glyph glyph-name="aacute" unicode="&#xe1;" horiz-adv-x="1071" 
d="M524.5 20.5q-69.5 -40.5 -166.5 -40.5q-139 0 -220 77.5t-81 212.5q0 240 271 283l290 47v59q0 100 -34.5 142.5t-118.5 42.5q-37 0 -84 -11.5t-82 -27.5l-14 -82l2 -88l-154 -6l-31 346q94 23 201 39t174 16q203 0 315.5 -97t112.5 -271v-267q0 -63 7.5 -139t11.5 -98
l123 -13l-13 -155q-20 2 -112.5 6t-264.5 4l-16 147q-47 -86 -116.5 -126.5zM385 402.5q-25 -29.5 -25 -87.5q0 -125 111 -125q53 0 93 35t54 97v145l-151 -25q-57 -10 -82 -39.5zM663.5 1329q-94.5 -43 -153.5 -72l-137 -100l-96 119l423 270l97 -155q-39 -19 -133.5 -62z
" />
    <glyph glyph-name="acircumflex" unicode="&#xe2;" horiz-adv-x="1071" 
d="M524.5 20.5q-69.5 -40.5 -166.5 -40.5q-139 0 -220 77.5t-81 212.5q0 240 271 283l290 47v59q0 100 -34.5 142.5t-118.5 42.5q-37 0 -84 -11.5t-82 -27.5l-14 -82l2 -88l-154 -6l-31 346q94 23 201 39t174 16q203 0 315.5 -97t112.5 -271v-267q0 -63 7.5 -139t11.5 -98
l123 -13l-13 -155q-20 2 -112.5 6t-264.5 4l-16 147q-47 -86 -116.5 -126.5zM385 402.5q-25 -29.5 -25 -87.5q0 -125 111 -125q53 0 93 35t54 97v145l-151 -25q-57 -10 -82 -39.5zM805 1155l-137 109l-172 92l-172 -92l-138 -109l-96 119l406 293l405 -293z" />
    <glyph glyph-name="atilde" unicode="&#xe3;" horiz-adv-x="1071" 
d="M524.5 20.5q-69.5 -40.5 -166.5 -40.5q-139 0 -220 77.5t-81 212.5q0 240 271 283l290 47v59q0 100 -34.5 142.5t-118.5 42.5q-37 0 -84 -11.5t-82 -27.5l-14 -82l2 -88l-154 -6l-31 346q94 23 201 39t174 16q203 0 315.5 -97t112.5 -271v-267q0 -63 7.5 -139t11.5 -98
l123 -13l-13 -155q-20 2 -112.5 6t-264.5 4l-16 147q-47 -86 -116.5 -126.5zM385 402.5q-25 -29.5 -25 -87.5q0 -125 111 -125q53 0 93 35t54 97v145l-151 -25q-57 -10 -82 -39.5zM821.5 1364q-30.5 -55 -70.5 -101t-79 -46q-29 0 -76 12t-92 26q-121 39 -170 39
q-23 0 -44.5 -19.5t-36.5 -40t-20 -26.5l-96 58q0 4 31 61t72 105.5t80 48.5q49 0 169 -39q45 -14 92.5 -26.5t75.5 -12.5q23 0 43.5 17.5t34 36t17.5 24.5l100 -58q0 -4 -30.5 -59z" />
    <glyph glyph-name="adieresis" unicode="&#xe4;" horiz-adv-x="1071" 
d="M524.5 20.5q-69.5 -40.5 -166.5 -40.5q-139 0 -220 77.5t-81 212.5q0 240 271 283l290 47v59q0 100 -34.5 142.5t-118.5 42.5q-37 0 -84 -11.5t-82 -27.5l-14 -82l2 -88l-154 -6l-31 346q94 23 201 39t174 16q203 0 315.5 -97t112.5 -271v-267q0 -63 7.5 -139t11.5 -98
l123 -13l-13 -155q-20 2 -112.5 6t-264.5 4l-16 147q-47 -86 -116.5 -126.5zM385 402.5q-25 -29.5 -25 -87.5q0 -125 111 -125q53 0 93 35t54 97v145l-151 -25q-57 -10 -82 -39.5zM355.5 1447q35.5 -38 35.5 -106q0 -66 -35.5 -103.5t-101.5 -37.5t-102.5 39t-36.5 102
q0 66 36.5 105t102.5 39t101.5 -38zM841 1447q36 -38 36 -106q0 -66 -36 -103.5t-102 -37.5t-101.5 38t-35.5 103q0 66 36 105t101 39q66 0 102 -38z" />
    <glyph glyph-name="ae" unicode="&#xe6;" horiz-adv-x="1488" 
d="M286.5 1015.5q100.5 14.5 172.5 14.5q193 0 303 -86q117 86 297 86q201 0 314.5 -121t113.5 -338l-43 -79l-553 -33q10 -158 68.5 -225.5t189.5 -67.5q66 0 121 15.5t87 30.5t40 21l71 -118q-162 -145 -401 -146q-240 0 -360 189q-68 -94 -150 -136t-197 -42
q-143 0 -232 79.5t-89 210.5q0 125 68.5 198t201.5 85l291 29v80q0 104 -38 153t-116 49q-33 0 -81 -12t-91 -33l-6 -80v-100l-153 -6l-31 342q102 26 202.5 40.5zM893 602l270 19l2 16q0 119 -31.5 175t-97.5 56q-133 0 -143 -266zM365.5 391.5q-23.5 -24.5 -23.5 -80.5
q0 -63 26.5 -92t84.5 -29q72 0 109.5 46.5t37.5 136.5v65l-151 -14q-60 -8 -83.5 -32.5z" />
    <glyph glyph-name="ccedilla" unicode="&#xe7;" horiz-adv-x="954" 
d="M751.5 -170q57.5 -47 57.5 -129q0 -92 -64.5 -137t-169.5 -45q-53 0 -110 11t-86 26l37 100q72 -23 112 -23q41 0 69 16.5t28 51.5t-22.5 49t-63.5 14l-43 -2l-23 29l19 182q-217 18 -329 153.5t-112 375.5q0 246 134 387t368 141q80 0 161 -11t134 -22.5t67 -15.5
l-30 -363l-174 7l2 110q-4 53 -8 80q-27 25 -64 39t-70 14q-100 0 -147 -89t-47 -277q0 -334 246 -334q63 0 116.5 14.5t84 29.5t38.5 21l72 -118q-68 -59 -148.5 -96t-164.5 -46l-19 -94q92 -2 149.5 -49z" />
    <glyph glyph-name="egrave" unicode="&#xe8;" horiz-adv-x="1019" 
d="M379 453q10 -156 71.5 -221.5t184.5 -65.5q66 0 121 15.5t86.5 30.5t40.5 21l71 -118q-162 -145 -401 -146q-236 0 -369 138.5t-133 388.5q0 254 134 394t360 140q205 0 317.5 -118.5t112.5 -329.5l-2 -50l-43 -79h-551zM651 635q0 233 -129 233q-74 0 -106.5 -68.5
t-36.5 -195.5l270 14zM366.5 1329q-94.5 43 -132.5 62l96 155l424 -270l-97 -119l-137 100q-59 29 -153.5 72z" />
    <glyph glyph-name="eacute" unicode="&#xe9;" horiz-adv-x="1019" 
d="M379 453q10 -156 71.5 -221.5t184.5 -65.5q66 0 121 15.5t86.5 30.5t40.5 21l71 -118q-162 -145 -401 -146q-236 0 -369 138.5t-133 388.5q0 254 134 394t360 140q205 0 317.5 -118.5t112.5 -329.5l-2 -50l-43 -79h-551zM651 635q0 233 -129 233q-74 0 -106.5 -68.5
t-36.5 -195.5l270 14zM702.5 1329q-94.5 -43 -153.5 -72l-137 -100l-96 119l423 270l97 -155q-39 -19 -133.5 -62z" />
    <glyph glyph-name="ecircumflex" unicode="&#xea;" horiz-adv-x="1019" 
d="M379 453q10 -156 71.5 -221.5t184.5 -65.5q66 0 121 15.5t86.5 30.5t40.5 21l71 -118q-162 -145 -401 -146q-236 0 -369 138.5t-133 388.5q0 254 134 394t360 140q205 0 317.5 -118.5t112.5 -329.5l-2 -50l-43 -79h-551zM651 635q0 233 -129 233q-74 0 -106.5 -68.5
t-36.5 -195.5l270 14zM844 1155l-137 109l-172 92l-172 -92l-138 -109l-96 119l406 293l405 -293z" />
    <glyph glyph-name="edieresis" unicode="&#xeb;" horiz-adv-x="1019" 
d="M379 453q10 -156 71.5 -221.5t184.5 -65.5q66 0 121 15.5t86.5 30.5t40.5 21l71 -118q-162 -145 -401 -146q-236 0 -369 138.5t-133 388.5q0 254 134 394t360 140q205 0 317.5 -118.5t112.5 -329.5l-2 -50l-43 -79h-551zM651 635q0 233 -129 233q-74 0 -106.5 -68.5
t-36.5 -195.5l270 14zM394.5 1447q35.5 -38 35.5 -106q0 -66 -35.5 -103.5t-101.5 -37.5t-102.5 39t-36.5 102q0 66 36.5 105t102.5 39t101.5 -38zM880 1447q36 -38 36 -106q0 -66 -36 -103.5t-102 -37.5t-101.5 38t-35.5 103q0 66 36 105t101 39q66 0 102 -38z" />
    <glyph glyph-name="eth" unicode="&#xf0;" horiz-adv-x="1056" 
d="M994.5 955.5q72.5 -205.5 72.5 -439.5q0 -252 -136 -399.5t-382 -147.5q-244 0 -375 140.5t-131 388.5q0 145 55.5 256.5t156.5 173t232 61.5q55 0 99.5 -14t68.5 -33l-24 -143q-49 12 -82 12q-104 0 -141 -92t-37 -236q0 -143 36.5 -234t141.5 -91q193 0 192 413
q0 188 -31.5 350t-115.5 293l-213 -108l-66 113l195 102q-72 78 -178 135l51 121q166 -53 301 -168l219 115l66 -117l-185 -94q138 -152 210.5 -357.5z" />
    <glyph glyph-name="ntilde" unicode="&#xf1;" horiz-adv-x="1302" 
d="M1278 -10q-25 2 -123 6t-244 4q-59 0 -110 -4t-66 -6l-10 143l115 25l6 90l4 86v303q0 84 -38 136t-114 52q-82 0 -142 -75.5t-60 -206.5v-148q0 -63 7 -139t11 -98l133 -13l-10 -155q-25 2 -123 6t-244 4q-59 0 -122.5 -4t-81.5 -6l-11 143l135 25q2 23 10.5 86t8.5 90
v332q0 25 -8 90t-13 88l-153 35l18 151q25 -4 106 -11t134 -7l98 4l43 -39l21 -146q66 96 147.5 147.5t192.5 51.5q168 0 255 -93t87 -271v-271q0 -63 7 -139t11 -98l133 -13zM981.5 1364q-30.5 -55 -70.5 -101t-79 -46q-29 0 -76 12t-92 26q-121 39 -170 39
q-23 0 -44.5 -19.5t-36.5 -40t-20 -26.5l-96 58q0 4 31 61t72 105.5t80 48.5q49 0 169 -39q45 -14 92.5 -26.5t75.5 -12.5q23 0 43.5 17.5t34 36t17.5 24.5l100 -58q0 -4 -30.5 -59z" />
    <glyph glyph-name="ograve" unicode="&#xf2;" horiz-adv-x="1114" 
d="M932 106.5q-131 -137.5 -375 -137.5t-375 137.5t-131 393.5t131 393t375 137t375 -137t131 -393t-131 -393.5zM695 772q-42 84 -138 84t-138 -84t-42 -272t42 -272.5t138 -84.5t138 84t42 273q0 188 -42 272zM388.5 1329q-94.5 43 -132.5 62l96 155l424 -270l-97 -119
l-137 100q-59 29 -153.5 72z" />
    <glyph glyph-name="oacute" unicode="&#xf3;" horiz-adv-x="1114" 
d="M932 106.5q-131 -137.5 -375 -137.5t-375 137.5t-131 393.5t131 393t375 137t375 -137t131 -393t-131 -393.5zM695 772q-42 84 -138 84t-138 -84t-42 -272t42 -272.5t138 -84.5t138 84t42 273q0 188 -42 272zM724.5 1329q-94.5 -43 -153.5 -72l-137 -100l-96 119l423 270
l97 -155q-39 -19 -133.5 -62z" />
    <glyph glyph-name="ocircumflex" unicode="&#xf4;" horiz-adv-x="1114" 
d="M932 106.5q-131 -137.5 -375 -137.5t-375 137.5t-131 393.5t131 393t375 137t375 -137t131 -393t-131 -393.5zM695 772q-42 84 -138 84t-138 -84t-42 -272t42 -272.5t138 -84.5t138 84t42 273q0 188 -42 272zM866 1155l-137 109l-172 92l-172 -92l-138 -109l-96 119
l406 293l405 -293z" />
    <glyph glyph-name="otilde" unicode="&#xf5;" horiz-adv-x="1114" 
d="M932 106.5q-131 -137.5 -375 -137.5t-375 137.5t-131 393.5t131 393t375 137t375 -137t131 -393t-131 -393.5zM695 772q-42 84 -138 84t-138 -84t-42 -272t42 -272.5t138 -84.5t138 84t42 273q0 188 -42 272zM882.5 1364q-30.5 -55 -70.5 -101t-79 -46q-29 0 -76 12
t-92 26q-121 39 -170 39q-23 0 -44.5 -19.5t-36.5 -40t-20 -26.5l-96 58q0 4 31 61t72 105.5t80 48.5q49 0 169 -39q45 -14 92.5 -26.5t75.5 -12.5q23 0 43.5 17.5t34 36t17.5 24.5l100 -58q0 -4 -30.5 -59z" />
    <glyph glyph-name="odieresis" unicode="&#xf6;" horiz-adv-x="1114" 
d="M932 106.5q-131 -137.5 -375 -137.5t-375 137.5t-131 393.5t131 393t375 137t375 -137t131 -393t-131 -393.5zM695 772q-42 84 -138 84t-138 -84t-42 -272t42 -272.5t138 -84.5t138 84t42 273q0 188 -42 272zM416.5 1447q35.5 -38 35.5 -106q0 -66 -35.5 -103.5
t-101.5 -37.5t-102.5 39t-36.5 102q0 66 36.5 105t102.5 39t101.5 -38zM902 1447q36 -38 36 -106q0 -66 -36 -103.5t-102 -37.5t-101.5 38t-35.5 103q0 66 36 105t101 39q66 0 102 -38z" />
    <glyph glyph-name="divide" unicode="&#xf7;" horiz-adv-x="1210" 
d="M492.5 1012q-39.5 -45 -39.5 -119t39.5 -118t111.5 -44t112 44t40 118q0 76 -40 120t-112 44t-111.5 -45zM139 631v-215l932 10v205h-932zM492.5 268q-39.5 -45 -39.5 -118q0 -74 39.5 -118t111.5 -44t112 44t40 118q0 76 -40 119.5t-112 43.5t-111.5 -45z" />
    <glyph glyph-name="oslash" unicode="&#xf8;" horiz-adv-x="1089" 
d="M1051 500q0 -256 -131.5 -393.5t-374.5 -137.5q-102 0 -189 25l-104 -197l-117 60l103 192q-199 135 -199 451q0 256 131 393t375 137q106 0 196 -29l119 224l121 -60l-119 -223q189 -131 189 -442zM379 315l268 506q-37 35 -102 35q-96 0 -138 -84t-42 -272
q0 -115 14 -185zM683 227q42 84 42 273q0 96 -12 166l-262 -494q35 -29 94 -29q96 0 138 84z" />
    <glyph glyph-name="ugrave" unicode="&#xf9;" horiz-adv-x="1273" 
d="M755 1019q81 -7 134 -7l180 4l43 -39q-4 -43 -12 -176t-8 -197v-209q0 -63 7 -139t11 -98l123 -13l-12 -155q-20 2 -112.5 6t-264.5 4l-19 160q-59 -82 -130.5 -125t-166.5 -43q-178 0 -269 93t-91 271v310q0 27 -8 94t-13 90l-112 29l18 151q25 -4 100.5 -11t129.5 -7
l149 4l43 -39q-4 -43 -12 -176t-8 -197v-219q0 -86 36.5 -137t112.5 -51q82 0 141.5 75.5t59.5 206.5v187q0 27 -8.5 91t-12.5 87l-153 35l18 151q25 -4 106 -11zM448.5 1329q-94.5 43 -132.5 62l96 155l424 -270l-97 -119l-137 100q-59 29 -153.5 72z" />
    <glyph glyph-name="uacute" unicode="&#xfa;" horiz-adv-x="1273" 
d="M755 1019q81 -7 134 -7l180 4l43 -39q-4 -43 -12 -176t-8 -197v-209q0 -63 7 -139t11 -98l123 -13l-12 -155q-20 2 -112.5 6t-264.5 4l-19 160q-59 -82 -130.5 -125t-166.5 -43q-178 0 -269 93t-91 271v310q0 27 -8 94t-13 90l-112 29l18 151q25 -4 100.5 -11t129.5 -7
l149 4l43 -39q-4 -43 -12 -176t-8 -197v-219q0 -86 36.5 -137t112.5 -51q82 0 141.5 75.5t59.5 206.5v187q0 27 -8.5 91t-12.5 87l-153 35l18 151q25 -4 106 -11zM784.5 1329q-94.5 -43 -153.5 -72l-137 -100l-96 119l423 270l97 -155q-39 -19 -133.5 -62z" />
    <glyph glyph-name="ucircumflex" unicode="&#xfb;" horiz-adv-x="1273" 
d="M755 1019q81 -7 134 -7l180 4l43 -39q-4 -43 -12 -176t-8 -197v-209q0 -63 7 -139t11 -98l123 -13l-12 -155q-20 2 -112.5 6t-264.5 4l-19 160q-59 -82 -130.5 -125t-166.5 -43q-178 0 -269 93t-91 271v310q0 27 -8 94t-13 90l-112 29l18 151q25 -4 100.5 -11t129.5 -7
l149 4l43 -39q-4 -43 -12 -176t-8 -197v-219q0 -86 36.5 -137t112.5 -51q82 0 141.5 75.5t59.5 206.5v187q0 27 -8.5 91t-12.5 87l-153 35l18 151q25 -4 106 -11zM926 1155l-137 109l-172 92l-172 -92l-138 -109l-96 119l406 293l405 -293z" />
    <glyph glyph-name="udieresis" unicode="&#xfc;" horiz-adv-x="1273" 
d="M755 1019q81 -7 134 -7l180 4l43 -39q-4 -43 -12 -176t-8 -197v-209q0 -63 7 -139t11 -98l123 -13l-12 -155q-20 2 -112.5 6t-264.5 4l-19 160q-59 -82 -130.5 -125t-166.5 -43q-178 0 -269 93t-91 271v310q0 27 -8 94t-13 90l-112 29l18 151q25 -4 100.5 -11t129.5 -7
l149 4l43 -39q-4 -43 -12 -176t-8 -197v-219q0 -86 36.5 -137t112.5 -51q82 0 141.5 75.5t59.5 206.5v187q0 27 -8.5 91t-12.5 87l-153 35l18 151q25 -4 106 -11zM476.5 1447q35.5 -38 35.5 -106q0 -66 -35.5 -103.5t-101.5 -37.5t-102.5 39t-36.5 102q0 66 36.5 105
t102.5 39t101.5 -38zM962 1447q36 -38 36 -106q0 -66 -36 -103.5t-102 -37.5t-101.5 38t-35.5 103q0 66 36 105t101 39q66 0 102 -38z" />
    <glyph glyph-name="yacute" unicode="&#xfd;" horiz-adv-x="1169" 
d="M757 799q7 41 9 67l-90 11l12 145q18 -2 89 -6t155 -4q57 0 129 4t94 6l8 -145l-100 -11q-16 -27 -43 -89t-43 -105l-447 -1153l-405 26l22 162l113 -4q49 0 90 12q39 45 64 115l63 170l-254 666q-59 152 -86 200l-129 23l12 141q27 -4 114 -11t171 -7q57 0 133 4t99 6
l8 -145l-86 -11q2 -31 11 -72.5t17 -64.5l129 -405l125 409q9 25 16 66zM753.5 1329q-94.5 -43 -153.5 -72l-137 -100l-96 119l423 270l97 -155q-39 -19 -133.5 -62z" />
    <glyph glyph-name="thorn" unicode="&#xfe;" horiz-adv-x="1132" 
d="M118 1555.5q77 -7.5 140 -7.5l180 4l43 -39l-20 -276v-350q119 143 291 143q186 0 287.5 -133t101.5 -377q0 -258 -134.5 -399t-379.5 -141q-70 0 -166 10v-64q0 -63 8 -143t12 -105l162 -12l-10 -145q-25 2 -123 6t-244 4q-59 0 -122.5 -4t-82.5 -6l-10 133l103 24
q4 23 12 91.5t8 95.5v1337q0 27 -8 91.5t-12 86.5l-154 35l18 152q23 -4 100 -11.5zM514 731.5q-45 -67.5 -53 -199.5v-329q86 -29 141 -29q113 0 163 76t50 244q0 156 -42 230.5t-132 74.5q-82 0 -127 -67.5z" />
    <glyph glyph-name="ydieresis" unicode="&#xff;" horiz-adv-x="1169" 
d="M757 799q7 41 9 67l-90 11l12 145q18 -2 89 -6t155 -4q57 0 129 4t94 6l8 -145l-100 -11q-16 -27 -43 -89t-43 -105l-447 -1153l-405 26l22 162l113 -4q49 0 90 12q39 45 64 115l63 170l-254 666q-59 152 -86 200l-129 23l12 141q27 -4 114 -11t171 -7q57 0 133 4t99 6
l8 -145l-86 -11q2 -31 11 -72.5t17 -64.5l129 -405l125 409q9 25 16 66zM445.5 1447q35.5 -38 35.5 -106q0 -66 -35.5 -103.5t-101.5 -37.5t-102.5 39t-36.5 102q0 66 36.5 105t102.5 39t101.5 -38zM931 1447q36 -38 36 -106q0 -66 -36 -103.5t-102 -37.5t-101.5 38
t-35.5 103q0 66 36 105t101 39q66 0 102 -38z" />
    <glyph glyph-name="OE" unicode="&#x152;" horiz-adv-x="2058" 
d="M1879 -3q-75 3 -128 3h-577l-148 -6q-106 -33 -240 -33q-219 0 -384.5 94.5t-256 265.5t-90.5 400t90.5 401t255 266.5t385.5 94.5q133 0 238 -33q135 -6 150 -6h548q27 0 115 8t119 12l39 -37l14 -319l-147 -10q-12 98 -19 121q-6 27 -20 49q-82 8 -162 8h-225
q-8 -147 -9 -166v-293q20 -2 54 -2h114q27 0 54.5 7t36.5 12l18 131l127 -11l-2 -163q0 -84 2 -159t4 -102l-131 -12l-18 123q-14 2 -59.5 7t-72.5 5h-63q-49 0 -64 -2v-256q0 -94 7 -217h256q76 0 157 17q27 49 39 88q18 70 25 116l143 -10l-31 -360l-38 -37q-31 2 -106 5z
M1037 1206q-36 35 -95 56.5t-156 21.5q-184 0 -273 -138t-89 -425q0 -285 89 -423t273 -138q141 0 214 58t130 183v697q-57 73 -93 108z" />
    <glyph glyph-name="oe" unicode="&#x153;" horiz-adv-x="1585" 
d="M1540 912.5q113 -117.5 113 -330.5l-2 -50l-43 -79h-551q10 -152 70.5 -219.5t185.5 -67.5q66 0 121 15.5t86.5 30.5t40.5 21l71 -118q-162 -145 -401 -146q-229 0 -336 158q-152 -158 -346 -158q-244 0 -375 137.5t-131 393.5t131 393t375 137q199 0 346 -160
q111 160 328 160q204 0 317 -117.5zM1095.5 803.5q-34.5 -64.5 -38.5 -199.5l270 14l2 17q0 233 -129 233q-70 0 -104.5 -64.5zM411 772q-42 -84 -42 -272t42 -272.5t138 -84.5t138 84t42 273q0 188 -42 272t-138 84t-138 -84z" />
    <glyph glyph-name="florin" unicode="&#x192;" horiz-adv-x="788" 
d="M705 858h-232l-31 -901q-8 -164 -119.5 -259t-312.5 -95l4 159q61 0 91 31t39.5 83t11.5 144l30 838h-114l-6 129l53 17q61 18 74 24l8 195q6 164 102 259t264 95q88 0 194.5 -13.5t106.5 -15.5l-30 -342l-154 6l2 93l-8 90q-37 16 -76 16q-70 0 -91.5 -60.5
t-27.5 -203.5l-6 -135h246z" />
    <glyph glyph-name="circumflex" unicode="&#x2c6;" horiz-adv-x="737" 
d="M678 1155l-137 109l-172 92l-172 -92l-138 -109l-96 119l406 293l405 -293z" />
    <glyph glyph-name="tilde" unicode="&#x2dc;" horiz-adv-x="737" 
d="M694.5 1364q-30.5 -55 -70.5 -101t-79 -46q-29 0 -76 12t-92 26q-121 39 -170 39q-23 0 -44.5 -19.5t-36.5 -40t-20 -26.5l-96 58q0 4 31 61t72 105.5t80 48.5q49 0 169 -39q45 -14 92.5 -26.5t75.5 -12.5q23 0 43.5 17.5t34 36t17.5 24.5l100 -58q0 -4 -30.5 -59z" />
    <glyph glyph-name="invertedCandraBindu-deva" unicode="&#x900;" 
d="M475 1701q-78 0 -130 -36.5t-83 -114.5l-227 80q51 123 157.5 190.5t233.5 67.5t234.5 -68.5t158.5 -193.5l-129 -80q-61 155 -215 155zM536.5 1621.5q30.5 -22.5 54 -61.5t23.5 -88q0 -14 -20.5 -41t-56 -48.5t-85.5 -21.5q-14 0 -43.5 23t-53 60.5t-23.5 86.5
q0 14 19 42t55 49.5t85 21.5q15 0 45.5 -22.5z" />
    <glyph glyph-name="candraBindu-deva" unicode="&#x901;" 
d="M391 1561q78 0 130 36.5t83 114.5l227 -80q-51 -123 -157.5 -190.5t-233.5 -67.5t-234.5 68.5t-158.5 193.5l129 80q61 -155 215 -155zM456.5 1888.5q30.5 -22.5 54 -61.5t23.5 -88q0 -14 -20.5 -41t-56 -48.5t-85.5 -21.5q-14 0 -43.5 23t-53 60.5t-23.5 86.5
q0 14 19 42t55 49.5t85 21.5q15 0 45.5 -22.5z" />
    <glyph glyph-name="anusvara-deva" unicode="&#x902;" 
d="M229.5 1644.5q30.5 -22.5 54 -61.5t23.5 -88q0 -14 -20.5 -41t-56 -48.5t-85.5 -21.5q-14 0 -43.5 23t-53 60.5t-23.5 86.5q0 14 19 42t55 49.5t85 21.5q15 0 45.5 -22.5z" />
    <glyph glyph-name="visarga-deva" unicode="&#x903;" horiz-adv-x="421" 
d="M275 950.5q31 -22.5 54.5 -61.5t23.5 -88q0 -14 -20.5 -41t-56.5 -48.5t-85 -21.5q-14 0 -44 22.5t-53.5 60.5t-23.5 87q0 14 19.5 42t55.5 49.5t85 21.5q14 0 45 -22.5zM275 342.5q31 -22.5 54.5 -61.5t23.5 -88q0 -14 -20.5 -41t-56.5 -48.5t-85 -21.5q-14 0 -44 22.5
t-53.5 60.5t-23.5 87q0 14 19.5 42t55.5 49.5t85 21.5q14 0 45 -22.5z" />
    <glyph glyph-name="aShort-deva" unicode="&#x904;" horiz-adv-x="1685" 
d="M1513 377l29 -395l-57 -52l-240 39l35 410v88q-63 -25 -127 -25q-70 0 -149 23q6 -25 6 -51q0 -109 -57.5 -189t-152.5 -122t-210 -42q-150 0 -289 68t-250 197l92 100q92 -88 191.5 -133t187.5 -45q104 0 169 55t65 154q0 49 -34 92t-99 67q-96 -35 -240 -57l-59 172
l30 82q365 49 365 215q0 98 -117 98q-74 0 -155.5 -34.5t-157.5 -100.5l-80 37l-70 205q199 90 367 90q195 0 313.5 -95t118.5 -253q0 -174 -147 -277q172 -55 294 -55q106 0 195 51v404h-203l-51 153l21 62h256q-23 53 -59 76.5t-107 40.5q-133 31 -215 47l-101 22
q-98 25 -157.5 75t-131.5 155l-43 59l105 90q49 -66 98 -100.5t85 -46t112 -27.5l305 -68q104 -29 157.5 -82t84.5 -143q16 -49 24 -98h254l51 -154l-26 -61h-226v-721z" />
    <glyph glyph-name="a-deva" unicode="&#x905;" horiz-adv-x="1685" 
d="M1513 377l29 -395l-57 -52l-240 39l35 410v88q-63 -25 -127 -25q-70 0 -149 23q6 -25 6 -51q0 -109 -57.5 -189t-152.5 -122t-210 -42q-150 0 -289 68t-250 197l92 100q92 -88 191.5 -133t187.5 -45q104 0 169 55t65 154q0 49 -34 92t-99 67q-96 -35 -240 -57l-59 172
l30 82q365 49 365 215q0 98 -117 98q-74 0 -155.5 -34.5t-157.5 -100.5l-80 37l-70 205q199 90 367 90q195 0 313.5 -95t118.5 -253q0 -174 -147 -277q172 -55 294 -55q106 0 195 51v404h-203l-51 153l21 62h667l51 -154l-26 -61h-226v-721z" />
    <glyph glyph-name="aa-deva" unicode="&#x906;" horiz-adv-x="2322" 
d="M2122 377l28 -395l-57 -52l-240 39l35 410v719h-375v-721l29 -395l-57 -52l-240 39l35 410v88q-63 -25 -127 -25q-70 0 -149 23q6 -25 6 -51q0 -109 -57.5 -189t-152.5 -122t-210 -42q-150 0 -289 68t-250 197l92 100q92 -88 191.5 -133t187.5 -45q104 0 169 55t65 154
q0 49 -34 92t-99 67q-96 -35 -240 -57l-59 172l30 82q365 49 365 215q0 98 -117 98q-74 0 -155.5 -34.5t-157.5 -100.5l-80 37l-70 205q199 90 367 90q195 0 313.5 -95t118.5 -253q0 -174 -147 -277q172 -55 294 -55q106 0 195 51v404h-203l-51 153l21 62h1275l52 -154
l-27 -61h-225v-721z" />
    <glyph glyph-name="i-deva" unicode="&#x907;" horiz-adv-x="1150" 
d="M359.5 715.5q-31.5 -21.5 -31.5 -62.5q0 -35 25.5 -66.5t54.5 -31.5q25 0 71.5 10t95.5 23q16 4 83 19.5t106 15.5q55 0 128 -39t125 -112t52 -165q0 -125 -64.5 -221t-218.5 -125q109 -68 267 -131l-148 -211q-94 47 -186 130t-197 208q-162 20 -281.5 75.5
t-129.5 147.5l43 64q63 45 149 45q25 0 57.5 -6.5t57.5 -12.5q76 -80 143 -137q125 8 210 65.5t85 147.5q0 25 -13.5 43.5t-35.5 18.5q-43 0 -145 -33q-106 -33 -148 -33q-102 0 -200.5 48t-160 132t-61.5 183q0 141 80 199.5t266 58.5h232v135h-670l-51 153l20 62h1182
l51 -154l-20 -61h-279v-295l-61 -66h-404q-47 0 -78.5 -21.5z" />
    <glyph glyph-name="ii-deva" unicode="&#x908;" horiz-adv-x="1150" 
d="M359.5 715.5q-31.5 -21.5 -31.5 -62.5q0 -35 25.5 -66.5t54.5 -31.5q25 0 71.5 10t95.5 23q16 4 83 19.5t106 15.5q55 0 128 -39t125 -112t52 -165q0 -125 -64.5 -221t-218.5 -125q109 -68 267 -131l-148 -211q-94 47 -186 130t-197 208q-162 20 -281.5 75.5
t-129.5 147.5l43 64q63 45 149 45q25 0 57.5 -6.5t57.5 -12.5q76 -80 143 -137q125 8 210 65.5t85 147.5q0 25 -13.5 43.5t-35.5 18.5q-43 0 -145 -33q-106 -33 -148 -33q-102 0 -200.5 48t-160 132t-61.5 183q0 141 80 199.5t266 58.5h232v135h-670l-51 153l20 62h1182
l51 -154l-20 -61h-279v-295l-61 -66h-404q-47 0 -78.5 -21.5zM1052 1618q-68 23 -129 22q-76 0 -116.5 -40.5t-40.5 -114.5q0 -66 59 -172h-105q-47 45 -75.5 109.5t-28.5 127.5q0 121 72.5 191.5t195.5 70.5q37 0 68 -4t88 -16l39 -143z" />
    <glyph glyph-name="u-deva" unicode="&#x909;" horiz-adv-x="1089" 
d="M809 1098q68 -72 68 -164q0 -135 -119 -227q252 -127 252 -314q0 -166 -114 -249t-306 -83q-150 0 -289 68t-250 197l92 100q92 -88 191.5 -133t187.5 -45q104 0 169 55t65 154q0 53 -39 98t-117 68q-125 -47 -278 -76l-60 172l31 82q186 27 275 85t89 128q0 57 -53 84
h-614l-51 153l20 62h1141l51 -154l-27 -61h-315z" />
    <glyph glyph-name="uu-deva" unicode="&#x90a;" horiz-adv-x="1593" 
d="M877 934q0 -135 -119 -227q37 -16 65 -37q135 76 269 75q176 0 281.5 -94t105.5 -256q0 -92 -38 -186t-114 -172l-160 125v82q55 41 88 95t33 103q0 53 -33.5 87t-99.5 34q-78 0 -164 -74q18 -43 19 -96q0 -166 -114 -249t-306 -83q-150 0 -289 68t-250 197l92 100
q92 -88 191.5 -133t187.5 -45q104 0 169 55t65 154q0 53 -39 98t-117 68q-125 -47 -278 -76l-60 172l31 82q186 27 275 85t89 128q0 57 -53 84h-614l-51 153l20 62h1645l51 -154l-21 -61h-825q68 -72 68 -164z" />
    <glyph glyph-name="rVocalic-deva" unicode="&#x90b;" horiz-adv-x="1814" 
d="M991 610q141 41 244 115q-12 55 -21 115l109 92q193 -27 309 -178q-51 -70 -155 -142q63 -119 180 -211v-79h-15q-197 -2 -196 -111q0 -35 25.5 -55.5t64.5 -20.5q88 0 176 103l105 -127q-100 -115 -252 -115q-78 0 -150 31.5t-117 92t-45 138.5q0 104 99 174
q-23 37 -45 88q-139 -63 -316 -106v-37l29 -395l-57 -52l-240 39l33 375l-471 -354l-158 219q340 170 612 338q-86 90 -150.5 129t-127.5 39q-55 0 -107.5 -32t-148.5 -126l-164 213q86 80 183.5 124t199.5 44q98 0 176 -54.5t158 -152.5v367h-772l-52 153l21 62h1860
l51 -154l-21 -61h-854v-488z" />
    <glyph glyph-name="lVocalic-deva" unicode="&#x90c;" horiz-adv-x="1681" 
d="M1481 377l20 -266h-2q-211 0 -211 -111q0 -35 25.5 -55.5t64.5 -20.5q88 0 176 103l105 -127q-100 -115 -252 -115q-78 0 -149.5 31.5t-116.5 92t-45 138.5q0 63 35.5 114.5t103.5 82.5l12 135v344q-53 18 -88 18q-141 0 -203.5 -97t-62.5 -238l-238 61q0 145 41 250
q-72 25 -127 24q-129 0 -185 -65.5t-56 -161.5q0 -104 76.5 -206.5t230.5 -170.5l-70 -125q-213 98 -344 241.5t-131 321.5q0 182 97.5 272.5t283.5 90.5q147 0 303 -102q100 102 287 102q92 0 186 -49v209h-1253l-51 153l20 62h1718l52 -154l-27 -61h-225v-721z" />
    <glyph glyph-name="eCandra-deva" unicode="&#x90d;" horiz-adv-x="1155" 
d="M1030 1098v-381q0 -121 -20.5 -194.5t-70.5 -126t-148 -105.5l-164 84v139q88 18 121.5 49t33.5 92v443h-409v-641q0 -117 102 -162l322 -141q174 -84 174 -256q0 -63 -39 -119h-137l-115 63q59 49 59 97q0 55 -88 98l-364 174q-162 86 -162 276v611h-143l-52 153l21 62
h1210l51 -154l-26 -61h-156zM862 1561q78 0 130 36.5t83 114.5l227 -80q-51 -123 -157.5 -190.5t-233.5 -67.5t-234.5 68.5t-158.5 193.5l129 80q61 -155 215 -155z" />
    <glyph glyph-name="eShort-deva" unicode="&#x90e;" horiz-adv-x="1155" 
d="M1030 1098v-381q0 -121 -20.5 -194.5t-70.5 -126t-148 -105.5l-164 84v139q88 18 121.5 49t33.5 92v443h-409v-641q0 -117 102 -162l322 -141q174 -84 174 -256q0 -63 -39 -119h-137l-115 63q59 49 59 97q0 55 -88 98l-364 174q-162 86 -162 276v611h-143l-52 153l21 62
h1210l51 -154l-26 -61h-156zM198 1777.5q49 -34.5 85 -46t112 -27.5l305 -68q104 -29 157.5 -82t84.5 -143q16 -45 32 -139h-151q-23 76 -60.5 106.5t-119.5 51.5q-133 31 -215 47l-101 22q-98 25 -157.5 75t-131.5 155l-43 59l105 90q49 -66 98 -100.5z" />
    <glyph glyph-name="e-deva" unicode="&#x90f;" horiz-adv-x="1155" 
d="M1030 1098v-381q0 -121 -20.5 -194.5t-70.5 -126t-148 -105.5l-164 84v139q88 18 121.5 49t33.5 92v443h-409v-641q0 -117 102 -162l322 -141q174 -84 174 -256q0 -63 -39 -119h-137l-115 63q59 49 59 97q0 55 -88 98l-364 174q-162 86 -162 276v611h-143l-52 153l21 62
h1210l51 -154l-26 -61h-156z" />
    <glyph glyph-name="ai-deva" unicode="&#x910;" horiz-adv-x="1155" 
d="M1030 1098v-381q0 -121 -20.5 -194.5t-70.5 -126t-148 -105.5l-164 84v139q88 18 121.5 49t33.5 92v443h-409v-641q0 -117 102 -162l322 -141q174 -84 174 -256q0 -63 -39 -119h-137l-115 63q59 49 59 97q0 55 -88 98l-364 174q-162 86 -162 276v611h-143l-52 153l21 62
h1210l51 -154l-26 -61h-156zM387 1866q106 0 196.5 -64.5t166 -166t198.5 -292.5l33 -51h-149l-56 70q-90 113 -140 169t-101.5 90t-104.5 34q-55 0 -121 -39l-121 199q109 51 199 51z" />
    <glyph glyph-name="oCandra-deva" unicode="&#x911;" horiz-adv-x="2322" 
d="M2122 377l28 -395l-57 -52l-240 39l35 410v719h-375v-721l29 -395l-57 -52l-240 39l35 410v88q-63 -25 -127 -25q-70 0 -149 23q6 -25 6 -51q0 -109 -57.5 -189t-152.5 -122t-210 -42q-150 0 -289 68t-250 197l92 100q92 -88 191.5 -133t187.5 -45q104 0 169 55t65 154
q0 49 -34 92t-99 67q-96 -35 -240 -57l-59 172l30 82q365 49 365 215q0 98 -117 98q-74 0 -155.5 -34.5t-157.5 -100.5l-80 37l-70 205q199 90 367 90q195 0 313.5 -95t118.5 -253q0 -174 -147 -277q172 -55 294 -55q106 0 195 51v404h-203l-51 153l21 62h1275l52 -154
l-27 -61h-225v-721zM1964 1559q78 0 130 36.5t83 114.5l227 -80q-51 -123 -157.5 -190.5t-233.5 -67.5t-234.5 68.5t-158.5 193.5l129 80q61 -155 215 -155z" />
    <glyph glyph-name="oShort-deva" unicode="&#x912;" horiz-adv-x="2322" 
d="M2122 377l28 -395l-57 -52l-240 39l35 410v719h-375v-721l29 -395l-57 -52l-240 39l35 410v88q-63 -25 -127 -25q-70 0 -149 23q6 -25 6 -51q0 -109 -57.5 -189t-152.5 -122t-210 -42q-150 0 -289 68t-250 197l92 100q92 -88 191.5 -133t187.5 -45q104 0 169 55t65 154
q0 49 -34 92t-99 67q-96 -35 -240 -57l-59 172l30 82q365 49 365 215q0 98 -117 98q-74 0 -155.5 -34.5t-157.5 -100.5l-80 37l-70 205q199 90 367 90q195 0 313.5 -95t118.5 -253q0 -174 -147 -277q172 -55 294 -55q106 0 195 51v404h-203l-51 153l21 62h864
q-23 51 -58.5 74.5t-107.5 39.5q-133 31 -215 48l-100 22q-98 25 -158 75t-131 154l-43 60l104 90q49 -66 98.5 -100.5t85 -46t111.5 -27.5l305 -68q104 -29 157.5 -82t84.5 -143q16 -51 24 -96h254l52 -154l-27 -61h-225v-721z" />
    <glyph glyph-name="o-deva" unicode="&#x913;" horiz-adv-x="2322" 
d="M2122 377l28 -395l-57 -52l-240 39l35 410v719h-375v-721l29 -395l-57 -52l-240 39l35 410v88q-63 -25 -127 -25q-70 0 -149 23q6 -25 6 -51q0 -109 -57.5 -189t-152.5 -122t-210 -42q-150 0 -289 68t-250 197l92 100q92 -88 191.5 -133t187.5 -45q104 0 169 55t65 154
q0 49 -34 92t-99 67q-96 -35 -240 -57l-59 172l30 82q365 49 365 215q0 98 -117 98q-74 0 -155.5 -34.5t-157.5 -100.5l-80 37l-70 205q199 90 367 90q195 0 313.5 -95t118.5 -253q0 -174 -147 -277q172 -55 294 -55q106 0 195 51v404h-203l-51 153l21 62h868l-33 41
q-90 115 -141 172t-102.5 92t-106.5 35t-121 -39l-121 198q109 51 199 52q109 0 201 -67.5t169.5 -172t208.5 -311.5h254l52 -154l-27 -61h-225v-721z" />
    <glyph glyph-name="au-deva" unicode="&#x914;" horiz-adv-x="2322" 
d="M2122 377l28 -395l-57 -52l-240 39l35 410v719h-375v-721l29 -395l-57 -52l-240 39l35 410v88q-63 -25 -127 -25q-70 0 -149 23q6 -25 6 -51q0 -109 -57.5 -189t-152.5 -122t-210 -42q-150 0 -289 68t-250 197l92 100q92 -88 191.5 -133t187.5 -45q104 0 169 55t65 154
q0 49 -34 92t-99 67q-96 -35 -240 -57l-59 172l30 82q365 49 365 215q0 98 -117 98q-74 0 -155.5 -34.5t-157.5 -100.5l-80 37l-70 205q199 90 367 90q195 0 313.5 -95t118.5 -253q0 -174 -147 -277q172 -55 294 -55q106 0 195 51v404h-203l-51 153l21 62h864q-6 43 -85 95
t-186.5 88t-189.5 36q-115 0 -186 -45l-99 178q125 59 226 59q86 0 191.5 -41t213.5 -114q-82 121 -155.5 180t-145.5 59q-51 0 -102 -24l-93 188q80 33 156 33q176 0 313.5 -171t290.5 -521h262l52 -154l-27 -61h-225v-721z" />
    <glyph glyph-name="ka-deva" unicode="&#x915;" horiz-adv-x="1777" 
d="M1053 854q127 63 247 64q176 0 282 -94.5t106 -256.5q0 -129 -69 -260t-206 -241l-168 133v82q123 92 186.5 164.5t63.5 144.5q0 61 -35 95t-94 34q-74 0 -155 -63.5t-158 -170.5v-108l28 -395l-57 -52l-240 39l25 297q-123 -76 -293 -76q-115 0 -213 47.5t-157.5 134.5
t-59.5 203q0 182 97.5 272.5t283.5 90.5q166 0 352 -121v281h-819l-51 153l20 62h1809l51 -154l-21 -61h-755v-244zM656.5 441.5q91.5 66.5 162.5 215.5v35l-2 -4q-164 53 -252 53q-129 0 -185 -65.5t-56 -161.5q0 -139 145 -139q96 0 187.5 66.5z" />
    <glyph glyph-name="kha-deva" unicode="&#x916;" horiz-adv-x="1839" 
d="M1638 377l29 -395l-57 -52l-240 39l25 295q-106 -49 -244 -49q-113 0 -215 51t-163.5 137t-61.5 187q0 154 95 232.5t275 78.5q160 0 324 -108v305h-842q84 -131 84 -262q0 -145 -75.5 -255t-225.5 -180q166 -178 451 -311l-156 -201q-180 104 -341 301t-241 408l144 143
l104 -51q53 39 82 96.5t29 128.5q0 82 -41 183h-387l-51 153l20 62h1880l51 -154l-26 -61h-226v-721zM1264.5 448.5q76.5 49.5 140.5 143.5v43q-141 70 -242 70q-100 0 -157.5 -40t-57.5 -116q0 -70 41 -110t115 -40q84 0 160.5 49.5z" />
    <glyph glyph-name="ga-deva" unicode="&#x917;" horiz-adv-x="1280" 
d="M1120 377l29 -395l-57 -52l-240 39l35 410v719h-406l2 -62q4 -82 4 -145q0 -385 -67 -643q-94 0 -174 50t-129 132t-51 172l51 68q57 14 143 18q10 45 10 133q0 137 -32 277h-238l-51 153l20 62h1352l51 -154l-26 -61h-226v-721z" />
    <glyph glyph-name="gha-deva" unicode="&#x918;" horiz-adv-x="1402" 
d="M1202 377l29 -395l-57 -52l-240 39l24 283q-166 -125 -383 -125q-137 0 -241.5 43t-161.5 120t-57 177q0 176 166 278q-158 92 -158 232q0 68 20 121h-153l-51 153l20 62h1444l51 -154l-27 -61h-225v-721zM442 1098q-35 -27 -53 -63t-18 -74q0 -78 61 -150q98 29 209 41
l72 -182l-41 -64q-305 -39 -305 -200q0 -47 35.5 -75t95.5 -28q154 0 280.5 94.5t190.5 245.5v455h-527z" />
    <glyph glyph-name="nga-deva" unicode="&#x919;" horiz-adv-x="1304" 
d="M1335 1098h-401v-295l-62 -66h-383q-47 0 -78.5 -21.5t-31.5 -62.5q0 -37 20.5 -67.5t49.5 -30.5q25 0 70.5 10t92.5 23q10 2 76 18.5t107 16.5q55 0 127.5 -39t125 -112t52.5 -165q0 -139 -92.5 -237.5t-315.5 -98.5q-143 0 -305 65.5t-311 182.5l71 115
q178 -104 274.5 -138t223.5 -34q104 0 173 49t69 135q0 25 -13.5 43.5t-35.5 18.5q-43 0 -146 -33q-106 -33 -147 -33q-98 0 -191.5 48t-152 132t-58.5 183q0 141 80 199.5t266 58.5h211v135h-700l-51 153l20 62h1336l51 -154zM1222.5 808.5q30.5 -22.5 54 -61t23.5 -88.5
q0 -14 -20 -40.5t-56 -48t-85 -21.5q-14 0 -44 22.5t-53.5 60.5t-23.5 87q0 14 19.5 41.5t55 49t85.5 21.5q14 0 44.5 -22.5z" />
    <glyph glyph-name="ca-deva" unicode="&#x91a;" horiz-adv-x="1480" 
d="M1280 377l29 -395l-58 -52l-239 39l26 310q-117 -68 -266 -68q-131 0 -239.5 48t-172 131t-63.5 185q0 90 29 160q-61 -2 -172 -10l-101 213h649l99 -197q-119 0 -192.5 -60t-73.5 -159q0 -61 43 -94t114 -33q94 0 186.5 52.5t168.5 152.5v498h-1057l-51 153l20 62h1522
l51 -154l-27 -61h-225v-721z" />
    <glyph glyph-name="cha-deva" unicode="&#x91b;" horiz-adv-x="1517" 
d="M1208 946q111 -47 172.5 -144t61.5 -235q0 -266 -184.5 -406.5t-518.5 -140.5q-178 0 -320.5 54.5t-224 152t-81.5 219.5q0 190 163 299q-156 90 -155 232q0 68 20 121h-151l-51 153l20 62h1577l51 -154l-20 -61h-359v-152zM440 1098q-35 -27 -53 -63t-18 -74
q0 -76 57 -146q104 33 213 45l72 -196l-41 -64q-150 -20 -227.5 -76.5t-77.5 -138.5q0 -94 83.5 -140t208.5 -46q254 0 395.5 112.5t141.5 341.5q0 74 -28.5 114t-78.5 40q-43 0 -63 -32t-20 -83q0 -33 15 -68.5t44 -66.5l-92 -94q-88 43 -150.5 131t-77.5 180
q16 84 80 141.5t152 65.5v117h-535z" />
    <glyph glyph-name="ja-deva" unicode="&#x91c;" horiz-adv-x="1644" 
d="M1444 377l29 -395l-58 -52l-239 39l34 410v311q-193 -4 -354 -12q78 -47 120 -116.5t42 -151.5q0 -121 -81 -190.5t-220 -69.5q-213 0 -385 163.5t-273 466.5l140 41q78 -219 188.5 -342t226.5 -123q72 0 111 34t39 95q0 76 -55.5 125t-169.5 76l-47 154l55 57
q305 -4 663 -23v224h-1220l-51 153l20 62h1686l51 -154l-27 -61h-225v-721z" />
    <glyph glyph-name="jha-deva" unicode="&#x91d;" horiz-adv-x="1792" 
d="M1591 377l29 -395l-57 -52l-240 39l31 350q-35 -8 -76 -8q-102 0 -215 54q6 -27 6 -58q0 -125 -64.5 -221t-218.5 -125q109 -68 267 -131l-148 -211q-94 47 -186 130t-197 208q-162 20 -281.5 75.5t-129.5 147.5l43 64q63 45 149 45q25 0 57.5 -6.5t57.5 -12.5
q76 -80 143 -137q125 8 210 65.5t85 147.5q0 25 -13.5 43.5t-35.5 18.5q-43 0 -145 -33q-106 -33 -148 -33q-102 0 -200.5 48t-160 132t-61.5 183q0 141 80 199.5t266 58.5h232v135h-670l-51 153l20 62h1823l51 -154l-26 -61h-226v-721zM903 1098v-295l-61 -66h-404
q-47 0 -78.5 -21.5t-31.5 -62.5q0 -35 25.5 -66.5t54.5 -31.5q25 0 71.5 10t95.5 23q16 4 83 19.5t106 15.5q41 0 96 -23q209 -86 357 -86q80 0 141 25v559h-455z" />
    <glyph glyph-name="nya-deva" unicode="&#x91e;" horiz-adv-x="1757" 
d="M1556 377l29 -395l-57 -52l-240 39l35 410v53l-33 -2q-76 0 -180 41q-10 -150 -115.5 -226.5t-253.5 -76.5q-203 0 -392 165t-314 460l141 53q92 -225 219 -349t258 -124q111 0 175.5 54t64.5 148q0 70 -49 111t-131 41q-119 0 -209 -72l-103 211q47 33 112 52.5
t128 19.5q160 0 280.5 -81t165.5 -212q68 -12 142 -12q47 0 94 10v455h-1333l-51 153l20 62h1798l51 -154l-26 -61h-226v-721z" />
    <glyph glyph-name="tta-deva" unicode="&#x91f;" horiz-adv-x="1153" 
d="M348 483q0 -80 16.5 -130t67.5 -78.5t148 -28.5q121 0 200.5 28.5t116.5 100.5l205 -174q-68 -86 -186.5 -133.5t-274.5 -47.5q-141 0 -268 72t-204 197t-77 272q0 176 111.5 277.5t302.5 101.5h233v158h-749l-51 153l20 62h1204l51 -154l-20 -61h-221v-328l-51 -55h-347
q-227 -1 -227 -232z" />
    <glyph glyph-name="ttha-deva" unicode="&#x920;" horiz-adv-x="1273" 
d="M1126.5 672.5q57.5 -103.5 57.5 -219.5q0 -131 -66.5 -229.5t-190.5 -151t-288 -52.5q-141 0 -268 72t-204 198t-77 275q0 172 111.5 272.5t302.5 100.5h233v160h-747l-51 153l20 62h1325l51 -154l-20 -61h-344v-224q98 -98 155.5 -201.5zM838 305.5q90 59.5 90 220.5
q0 94 -37 187h-318q-227 0 -227 -226q0 -82 16.5 -133t66.5 -79.5t149 -28.5q170 0 260 59.5z" />
    <glyph glyph-name="dda-deva" unicode="&#x921;" horiz-adv-x="1181" 
d="M410.5 715.5q-31.5 -21.5 -31.5 -62.5q0 -37 20.5 -67.5t49.5 -30.5q25 0 70.5 10t92.5 23q10 2 76 18.5t107 16.5q55 0 127.5 -39t125 -112t52.5 -165q0 -139 -92.5 -237.5t-315.5 -98.5q-143 0 -305 65.5t-311 182.5l71 115q178 -104 274.5 -138t223.5 -34
q104 0 173 49t69 135q0 25 -13.5 43.5t-35.5 18.5q-43 0 -146 -33q-106 -33 -147 -33q-98 0 -191.5 48t-152 132t-58.5 183q0 141 80 199.5t266 58.5h211v135h-700l-51 153l20 62h1213l51 -154l-21 -61h-278v-295l-62 -66h-383q-47 0 -78.5 -21.5z" />
    <glyph glyph-name="ddha-deva" unicode="&#x922;" horiz-adv-x="1200" 
d="M328 520q0 -147 73.5 -232t204.5 -85h4q-55 51 -89 106.5t-52 124.5q14 90 97 144.5t204 54.5q102 0 185 -37t130.5 -101.5t47.5 -142.5q0 -152 -123 -240.5t-332 -88.5q-131 0 -271.5 55t-237.5 176t-97 307q0 193 122.5 298.5t348.5 103.5h176v135h-729l-51 153l20 62
h1251l52 -154l-21 -61h-289v-283l-63 -80l-305 2q-256 0 -256 -217zM762 225q129 45 129 170q0 33 -19.5 57.5t-56.5 24.5q-35 0 -63.5 -30.5t-28.5 -73.5q0 -70 39 -148z" />
    <glyph glyph-name="nna-deva" unicode="&#x923;" horiz-adv-x="1550" 
d="M1350 377l28 -395l-57 -52l-240 39l35 410v719h-264v-482q0 -168 -90 -264t-262 -96q-111 0 -198 52t-136 142.5t-49 198.5v449h-127l-51 153l20 62h1591l52 -154l-27 -61h-225v-721zM342 1098v-467q0 -106 33 -150.5t102 -44.5q61 0 105.5 54.5t44.5 144.5v463h-285z
" />
    <glyph glyph-name="ta-deva" unicode="&#x924;" horiz-adv-x="1249" 
d="M1049 377l28 -395l-57 -52l-240 39l35 410v289h-291q-102 0 -153.5 -49.5t-51.5 -131.5q0 -90 56.5 -189t154.5 -177l-94 -107q-172 131 -259 273.5t-87 259.5q0 319 387 319h338v232h-825l-51 153l20 62h1290l51 -154l-26 -61h-225v-721z" />
    <glyph glyph-name="tha-deva" unicode="&#x925;" horiz-adv-x="1386" 
d="M1186 377l28 -395l-57 -52l-239 39l28 334q-129 -86 -270 -86q-203 0 -355.5 120t-211.5 314l38 78q381 70 381 283q0 57 -25.5 91t-76.5 34q-43 0 -69.5 -26t-26.5 -69q0 -35 13 -61.5t38 -52.5l-92 -94q-84 35 -152.5 120.5t-77.5 169.5q82 205 312 205
q113 0 195.5 -50t126.5 -135t44 -183q0 -82 -46 -164t-139 -147.5t-226 -98.5q109 -119 297 -119q100 0 186 49t143 137v480h-202l-52 153l21 62h667l52 -154l-27 -61h-225v-721z" />
    <glyph glyph-name="da-deva" unicode="&#x926;" horiz-adv-x="1216" 
d="M409.5 662.5q-65.5 -48.5 -65.5 -142.5q0 -119 66.5 -195.5t179.5 -76.5q84 0 141 31q-20 63 -35 112l109 109q199 0 334 -133q-41 -143 -166 -226q45 -55 103.5 -103t144.5 -106l-197 -159q-121 133 -207 305q-72 -16 -145 -17q-160 0 -294 67t-212 181.5t-78 251.5
q0 180 124 278.5t347 96.5h176v162h-745l-51 153l20 62h1268l51 -154l-21 -61h-288v-310l-64 -79l-305 2q-125 0 -190.5 -48.5z" />
    <glyph glyph-name="dha-deva" unicode="&#x927;" horiz-adv-x="1511" 
d="M1311 377l28 -395l-57 -52l-240 39l25 287q-88 -76 -208 -115t-245 -39q-137 0 -232 42t-142 112t-47 152q0 78 39.5 146.5t117.5 121.5q-117 57 -177 151.5t-60 210.5q0 131 88 211t223 80q100 0 173 -40t108.5 -99.5t35.5 -116.5q0 -104 -59 -160.5t-150 -56.5
q-92 0 -186 53q27 -90 143 -164q98 35 226 48l71 -185l-41 -65q-143 -10 -225 -60.5t-82 -126.5q0 -39 28 -64.5t87 -25.5q127 0 276.5 98.5t247.5 237.5v496h-203l-51 153l21 62h667l52 -154l-27 -61h-225v-721zM403.5 1096q-45.5 -39 -59.5 -99l29 -2q90 0 145 31t55 66
q0 18 -18 30.5t-53 12.5q-53 0 -98.5 -39z" />
    <glyph glyph-name="na-deva" unicode="&#x928;" horiz-adv-x="1382" 
d="M1182 377l28 -395l-57 -52l-240 39l35 410v131q-217 -6 -456 -33q-18 -66 -43 -123t-48 -90q-109 0 -183.5 57.5t-112 140.5t-37.5 159l51 67q86 16 176 20.5t244 4.5q96 0 409 -11v396h-948l-51 153l20 62h1413l52 -154l-27 -61h-225v-721z" />
    <glyph glyph-name="nnna-deva" unicode="&#x929;" horiz-adv-x="1382" 
d="M1182 377l28 -395l-57 -52l-240 39l35 410v131q-217 -6 -456 -33q-18 -66 -43 -123t-48 -90q-109 0 -183.5 57.5t-112 140.5t-37.5 159l51 67q86 16 176 20.5t244 4.5q96 0 409 -11v396h-948l-51 153l20 62h1413l52 -154l-27 -61h-225v-721zM475 119.5
q31 -22.5 54.5 -61.5t23.5 -88q0 -14 -20.5 -41t-56.5 -48.5t-85 -21.5q-14 0 -44 22.5t-53.5 60.5t-23.5 87q0 14 19.5 42t55.5 49.5t85 21.5q14 0 45 -22.5z" />
    <glyph glyph-name="pa-deva" unicode="&#x92a;" horiz-adv-x="1245" 
d="M1044 377l29 -395l-57 -52l-240 39l31 367q-125 -63 -283 -64q-96 0 -190 58.5t-152.5 154t-58.5 199.5v414h-133l-51 153l20 62h1286l51 -154l-26 -61h-226v-721zM369 1098v-502q0 -70 27.5 -104.5t92.5 -34.5q117 0 186.5 57t135.5 162v422h-442z" />
    <glyph glyph-name="pha-deva" unicode="&#x92b;" horiz-adv-x="1726" 
d="M1044 868q106 49 216 50q176 0 281.5 -94.5t105.5 -256.5q0 -129 -69 -260t-206 -241l-168 133v82q123 92 186.5 164.5t63.5 144.5q0 61 -35 95t-94 34q-66 0 -137.5 -51.5t-143.5 -139.5v-151l29 -395l-57 -52l-240 39l31 367q-125 -63 -283 -64q-96 0 -190 58.5
t-152.5 154t-58.5 199.5v414h-133l-51 153l20 62h1757l51 -154l-20 -61h-703v-230zM369 1098v-502q0 -70 27.5 -104.5t92.5 -34.5q117 0 186.5 57t135.5 162v422h-442z" />
    <glyph glyph-name="ba-deva" unicode="&#x92c;" horiz-adv-x="1236" 
d="M1036 377l29 -395l-57 -52l-240 39l23 271q-109 -49 -244 -50q-129 0 -234.5 50.5t-166 138.5t-60.5 196q0 178 105.5 270.5t306.5 92.5q150 0 305 -86v246h-813l-51 153l20 62h1278l51 -154l-26 -61h-226v-721zM596 741q-53 0 -88 -8l248 -239q33 37 47 57v149
q-121 41 -207 41zM637 408l-266 254q-47 -51 -47 -127t48 -118t128 -42q71 0 137 33z" />
    <glyph glyph-name="bha-deva" unicode="&#x92d;" horiz-adv-x="1505" 
d="M1305 377l28 -395l-57 -52l-240 39l35 410v108q-233 -10 -420 -30q-41 -137 -92 -213q-109 0 -183.5 57t-112.5 140t-38 159l51 68q92 16 203 20q66 205 66 316q0 63 -30 99t-75 36q-33 0 -57.5 -21.5t-24.5 -60.5q0 -37 17.5 -66.5t48.5 -62.5l-92 -94
q-84 35 -152.5 120.5t-77.5 169.5q31 90 102.5 147.5t168.5 57.5q119 0 201.5 -71.5t124.5 -166t42 -155.5q0 -106 -28 -244q121 0 358 -8v414h-203l-51 153l21 62h667l51 -154l-26 -61h-225v-721z" />
    <glyph glyph-name="ma-deva" unicode="&#x92e;" horiz-adv-x="1425" 
d="M1225 377l28 -395l-57 -52l-240 39l35 410v94q-213 -2 -499 -35q-18 -66 -43 -123t-48 -90q-109 0 -183.5 57.5t-112 140.5t-37.5 159l51 67q82 14 182 21q4 23 6 63.5t2 87.5q0 137 -33 277h-276l-51 153l20 62h1456l52 -154l-27 -61h-225v-721zM520 1098q6 -102 6 -207
q0 -74 -4 -217h17q72 0 368 -10l84 -2v436h-471z" />
    <glyph glyph-name="ya-deva" unicode="&#x92f;" horiz-adv-x="1275" 
d="M1075 377l29 -395l-57 -52l-240 39l29 330q-133 -82 -265 -82q-119 0 -226 57.5t-182 157.5t-97 223l38 78q111 16 160 56t49 112q0 96 -118 197h-205l-51 153l20 62h1317l51 -154l-27 -61h-225v-721zM403 1098q78 -70 113 -133.5t35 -133.5q0 -82 -72.5 -159.5
t-189.5 -120.5q14 -55 76.5 -87t152.5 -32q96 0 181 46t143 130v490h-439z" />
    <glyph glyph-name="ra-deva" unicode="&#x930;" horiz-adv-x="843" 
d="M563 1098q84 -131 84 -262q0 -145 -75.5 -255t-225.5 -180q166 -178 451 -311l-156 -201q-180 104 -341 301t-241 408l144 143l104 -51q53 39 82 96.5t29 128.5q0 82 -41 183h-387l-51 153l20 62h895l51 -154l-26 -61h-316z" />
    <glyph glyph-name="rra-deva" unicode="&#x931;" horiz-adv-x="843" 
d="M563 1098q84 -131 84 -262q0 -145 -75.5 -255t-225.5 -180q166 -178 451 -311l-156 -201q-180 104 -341 301t-241 408l144 143l104 -51q53 39 82 96.5t29 128.5q0 82 -41 183h-387l-51 153l20 62h895l51 -154l-26 -61h-316zM232 123.5q31 -22.5 54.5 -61.5t23.5 -88
q0 -14 -20.5 -41t-56.5 -48.5t-85 -21.5q-14 0 -44 22.5t-53.5 60.5t-23.5 87q0 14 19.5 42t55.5 49.5t85 21.5q14 0 45 -22.5z" />
    <glyph glyph-name="la-deva" unicode="&#x932;" horiz-adv-x="1681" 
d="M1481 377l28 -395l-57 -52l-240 39l35 410v344q-53 18 -88 18q-141 0 -203.5 -97t-62.5 -238l-238 61q0 145 41 250q-72 25 -127 24q-129 0 -185 -65.5t-56 -161.5q0 -104 76.5 -206.5t230.5 -170.5l-70 -125q-213 98 -344 241.5t-131 321.5q0 182 97.5 272.5t283.5 90.5
q147 0 303 -102q100 102 287 102q92 0 186 -49v209h-1253l-51 153l20 62h1718l52 -154l-27 -61h-225v-721z" />
    <glyph glyph-name="lla-deva" unicode="&#x933;" horiz-adv-x="1519" 
d="M1239 885q88 -51 140.5 -138.5t52.5 -193.5q0 -166 -81 -264.5t-239 -98.5q-156 0 -344 160q-49 -68 -124 -114t-167 -46q-106 0 -195 51.5t-141.5 139.5t-52.5 194q0 166 81 264.5t239 98.5t342 -160q47 66 113.5 108t142.5 50v162h-1006l-51 153l20 62h1551l51 -154
l-21 -61h-311v-213zM1142 452.5q52 65.5 52 161.5q0 72 -36 106t-79 34q-72 0 -131 -75t-127 -230q113 -61 178 -62q91 0 143 65.5zM570.5 452.5q60.5 77.5 125.5 227.5q-49 29 -97 45t-79 16q-90 0 -142 -65.5t-52 -161.5q0 -72 35.5 -105.5t78.5 -33.5q70 0 130.5 77.5z
" />
    <glyph glyph-name="llla-deva" unicode="&#x934;" horiz-adv-x="1519" 
d="M1239 885q88 -51 140.5 -138.5t52.5 -193.5q0 -166 -81 -264.5t-239 -98.5q-156 0 -344 160q-49 -68 -124 -114t-167 -46q-106 0 -195 51.5t-141.5 139.5t-52.5 194q0 166 81 264.5t239 98.5t342 -160q47 66 113.5 108t142.5 50v162h-1006l-51 153l20 62h1551l51 -154
l-21 -61h-311v-213zM1142 452.5q52 65.5 52 161.5q0 72 -36 106t-79 34q-72 0 -131 -75t-127 -230q113 -61 178 -62q91 0 143 65.5zM570.5 452.5q60.5 77.5 125.5 227.5q-49 29 -97 45t-79 16q-90 0 -142 -65.5t-52 -161.5q0 -72 35.5 -105.5t78.5 -33.5q70 0 130.5 77.5z
M854 145.5q31 -22.5 54.5 -61.5t23.5 -88q0 -14 -20.5 -41t-56.5 -48.5t-85 -21.5q-14 0 -44 22.5t-53.5 60.5t-23.5 87q0 14 19.5 42t55.5 49.5t85 21.5q14 0 45 -22.5z" />
    <glyph glyph-name="va-deva" unicode="&#x935;" horiz-adv-x="1228" 
d="M1028 377l29 -395l-58 -52l-239 39l22 267q-102 -45 -235 -46q-129 0 -234.5 50.5t-166 138.5t-60.5 196q0 178 105.5 270.5t306.5 92.5q145 0 297 -82v242h-805l-51 153l20 62h1270l51 -154l-27 -61h-225v-721zM658.5 422q74.5 47 136.5 137v146q-123 37 -199 36
q-125 0 -198.5 -55t-73.5 -151q0 -76 48 -118t128 -42q84 0 158.5 47z" />
    <glyph glyph-name="sha-deva" unicode="&#x936;" horiz-adv-x="1570" 
d="M1411 377l29 -395l-57 -52l-240 39l35 410v719h-203l-51 153l20 62h668l51 -154l-26 -61h-226v-721zM1018 16l-158 -204q-113 68 -222.5 174t-197.5 235h-26q-82 0 -159 36t-129 92.5t-65 115.5l31 102q78 61 170 62q51 0 109 -21q20 -20 45.5 -63t34.5 -58
q86 41 148.5 122t95 177.5t32.5 182.5q0 82 -30.5 133t-90.5 51q-59 0 -91 -33t-32 -84q0 -70 54 -129l-93 -94q-82 33 -151.5 129t-77.5 182q39 94 118 149.5t202 55.5q131 0 225 -59.5t144 -165t50 -238.5q0 -180 -89 -327.5t-261 -247.5q170 -162 414 -275z" />
    <glyph glyph-name="ssa-deva" unicode="&#x937;" horiz-adv-x="1224" 
d="M1024 377l29 -395l-58 -52l-239 39l30 357q-121 -53 -262 -54q-96 0 -190 58.5t-152.5 154t-58.5 199.5v414h-133l-51 153l20 62h1266l51 -154l-27 -61h-225v-721zM459 1098l332 -441v441h-332zM688 524l-319 432v-360q0 -70 27.5 -104.5t92.5 -34.5q117 -1 199 67z" />
    <glyph glyph-name="sa-deva" unicode="&#x938;" horiz-adv-x="1511" 
d="M1311 377l28 -395l-57 -52l-240 39l35 410v74q-113 -47 -227 -47q-150 0 -340 104q-66 -61 -164 -109q166 -178 451 -311l-156 -201q-180 104 -341 301t-241 408l144 143l104 -51q53 39 82 96.5t29 128.5q0 82 -41 183h-387l-51 153l20 62h1552l52 -154l-27 -61h-225
v-721zM563 1098q84 -131 84 -262q0 -111 -47 -205q74 -20 152 -21q176 0 325 111v377h-514z" />
    <glyph glyph-name="ha-deva" unicode="&#x939;" horiz-adv-x="1118" 
d="M389 714.5q-31 -22.5 -31 -61.5q0 -18 7 -35q86 25 204 25q137 0 243 -46t164 -130t58 -195q0 -53 -25.5 -105t-86.5 -126l-156 84v84q78 66 78 127q0 51 -56.5 80.5t-152.5 29.5q-125 0 -197.5 -61t-72.5 -166q0 -98 92 -185t256 -147l-70 -125q-248 102 -382 241.5
t-134 297.5q0 127 63 209q-68 94 -67 195q0 139 79 198.5t267 59.5h211v135h-690l-51 153l20 62h1169l52 -154l-21 -61h-246v-295l-61 -66h-383q-49 0 -80 -22.5z" />
    <glyph glyph-name="oeMatra-deva" unicode="&#x93a;" 
d="M274 1579v-307h-233v344l61 20z" />
    <glyph glyph-name="ooeMatra-deva" unicode="&#x93b;" horiz-adv-x="595" 
d="M416 377l28 -395l-57 -52l-240 39l35 410v719h-202l-52 153l21 62h233v303l62 20l172 -57v-266h200l52 -154l-27 -61h-225v-721z" />
    <glyph glyph-name="nukta-deva" unicode="&#x93c;" 
d="M209 -116.5q31 -22.5 54.5 -61.5t23.5 -88q0 -14 -20.5 -41t-56.5 -48.5t-85 -21.5q-14 0 -44 22.5t-53.5 60.5t-23.5 87q0 14 19.5 42t55.5 49.5t85 21.5q14 0 45 -22.5z" />
    <glyph glyph-name="avagraha-deva" unicode="&#x93d;" horiz-adv-x="993" 
d="M368.5 1076.5q-28.5 -21.5 -28.5 -54.5t27.5 -70t78.5 -65l164 -99q113 -66 182.5 -115.5t119 -120.5t49.5 -159q0 -162 -120 -247t-300 -85q-150 0 -289 68t-250 197l92 100q92 -88 191.5 -133t187.5 -45q104 0 169 55t65 154q0 61 -51.5 113.5t-147.5 111.5l-205 123
q-98 59 -147.5 131t-49.5 145q0 98 82 165t222 67h385l51 -154l-21 -61h-374q-54 0 -82.5 -21.5z" />
    <glyph glyph-name="aaMatra-deva" unicode="&#x93e;" horiz-adv-x="636" 
d="M436 377l29 -395l-57 -52l-240 39l35 410v719h-203l-51 153l20 62h668l51 -154l-26 -61h-226v-721z" />
    <glyph glyph-name="iMatra-deva" unicode="&#x93f;" horiz-adv-x="636" 
d="M1023 1732.5q282 -114.5 570 -302.5l-59 -56l-37 6q-211 117 -465 192t-432 75q-131 0 -202.5 -52.5t-71.5 -140.5q0 -68 43 -141h268l51 -154l-26 -61h-226v-721l29 -395l-57 -52l-240 39l35 410v719h-203l-51 153l20 62h262q-78 131 -77 256q0 131 89 204.5t257 73.5
q241 0 523 -114.5z" />
    <glyph glyph-name="iiMatra-deva" unicode="&#x940;" horiz-adv-x="636" 
d="M436 377l29 -395l-57 -52l-240 39l35 410v719h-203l-51 153l20 62h232q-18 113 -85 192.5t-157 119.5t-178 40q-84 0 -139.5 -37t-55.5 -100q0 -29 8.5 -53.5t28.5 -57.5l-82 -59q-137 119 -137 235q0 117 75 174.5t197 57.5q133 0 288 -65.5t282 -182.5t186 -264h205
l51 -154l-26 -61h-226v-721z" />
    <glyph glyph-name="uMatra-deva" unicode="&#x941;" 
d="M545 20q86 0 178 -40.5t152.5 -110.5t60.5 -152q0 -125 -89 -200.5t-222 -75.5q-190 0 -328.5 101.5t-253.5 277.5l98 53q117 -133 218.5 -184t203.5 -51q96 0 137 36.5t41 94.5q0 35 -27.5 57t-72.5 22q-104 0 -219 -88l-131 179q123 81 254 81z" />
    <glyph glyph-name="uuMatra-deva" unicode="&#x942;" 
d="M379 -557q-82 0 -164 40t-135 107.5t-53 143.5q0 80 39.5 142.5t108.5 98t149 35.5q283 0 464 -221q68 -80 123 -174l-63 -92q-123 162 -233.5 226.5t-215.5 64.5q-94 0 -136 -50.5t-42 -109.5q0 -35 27.5 -57.5t73.5 -22.5q84 0 161 102l144 -125q-109 -108 -248 -108z
" />
    <glyph glyph-name="rVocalicMatra-deva" unicode="&#x943;" 
d="M256 -205q0 -35 25.5 -55.5t64.5 -20.5q88 0 176 103l105 -127q-100 -115 -252 -115q-78 0 -149.5 32t-117 92t-45.5 138q0 100 88.5 166t231.5 66l84 -168q-211 0 -211 -111z" />
    <glyph glyph-name="rrVocalicMatra-deva" unicode="&#x944;" 
d="M707.5 -760q-68.5 -35 -146.5 -35q-80 0 -164 38t-139 100.5t-55 132.5q0 43 10 80q-78 39 -127 99t-49 126q0 88 42 148.5t96 96t181 105.5l170 -162q-106 -47 -161.5 -75.5t-94.5 -71.5t-39 -101q0 -35 28 -57t73 -22q47 0 88 28.5t110 110.5l144 -125
q-109 -123 -236 -141q-35 -49 -35 -93q0 -39 28 -62.5t73 -23.5q47 0 86 28t108 112l144 -125q-66 -76 -134.5 -111z" />
    <glyph glyph-name="eCandraMatra-deva" unicode="&#x945;" 
d="M391 1561q78 0 130 36.5t83 114.5l227 -80q-51 -123 -157.5 -190.5t-233.5 -67.5t-234.5 68.5t-158.5 193.5l129 80q61 -155 215 -155z" />
    <glyph glyph-name="eShortMatra-deva" unicode="&#x946;" 
d="M223 1777.5q49 -34.5 85 -46t112 -27.5l305 -68q104 -29 157.5 -82t84.5 -143q16 -45 32 -139h-151q-23 76 -60.5 106.5t-119.5 51.5q-133 31 -215 47l-101 22q-98 25 -157.5 75t-131.5 155l-43 59l105 90q49 -66 98 -100.5z" />
    <glyph glyph-name="eMatra-deva" unicode="&#x947;" 
d="M219 1866q106 0 196.5 -64.5t166 -166t198.5 -292.5l33 -51h-149l-56 70q-90 113 -140 169t-101.5 90t-104.5 34q-55 0 -121 -39l-121 199q109 51 199 51z" />
    <glyph glyph-name="aiMatra-deva" unicode="&#x948;" 
d="M766 1309q0 43 -79 96t-188.5 91t-193.5 38q-115 0 -186 -45l-99 178q125 59 226 59q86 0 191.5 -40.5t213.5 -114.5q-82 121 -155.5 180t-145.5 59q-49 0 -102 -24l-92 188q80 33 155 33q123 0 226.5 -86t193.5 -238.5t195 -390.5h-105l-55 -4v21z" />
    <glyph glyph-name="oCandraMatra-deva" unicode="&#x949;" horiz-adv-x="636" 
d="M436 377l29 -395l-57 -52l-240 39l35 410v719h-203l-51 153l20 62h668l51 -154l-26 -61h-226v-721zM278 1561q78 0 130 36.5t83 114.5l227 -80q-51 -123 -157.5 -190.5t-233.5 -67.5t-234.5 68.5t-158.5 193.5l129 80q61 -155 215 -155z" />
    <glyph glyph-name="oShortMatra-deva" unicode="&#x94a;" horiz-adv-x="636" 
d="M436 377l29 -395l-57 -52l-240 39l35 410v719h-203l-51 153l20 62h256q-23 53 -58.5 76.5t-107.5 40.5q-133 31 -215 47l-100 22q-98 25 -157.5 75t-131.5 155l-43 59l105 90q49 -66 98 -100.5t85 -46t112 -27.5l305 -68q104 -29 157.5 -82t83.5 -143q16 -49 25 -98h254
l51 -154l-26 -61h-226v-721z" />
    <glyph glyph-name="oMatra-deva" unicode="&#x94b;" horiz-adv-x="636" 
d="M436 377l29 -395l-57 -52l-240 39l35 410v719h-203l-51 153l20 62h262l-41 51q-127 162 -197.5 226.5t-146.5 64.5q-55 0 -120 -39l-121 199q109 51 198 51q106 0 195.5 -63.5t164.5 -162t199 -290.5q6 -12 23 -37h252l51 -154l-26 -61h-226v-721z" />
    <glyph glyph-name="auMatra-deva" unicode="&#x94c;" horiz-adv-x="636" 
d="M436 377l29 -395l-57 -52l-240 39l35 410v719h-203l-51 153l20 62h256q-4 43 -83 95t-186.5 89t-191.5 37q-115 0 -186 -45l-98 178q125 59 225 59q86 0 191.5 -40.5t214.5 -114.5q-82 121 -156 180t-145 59q-49 0 -103 -24l-92 188q80 33 156 33q121 0 223 -83
t191 -231.5t192 -379.5h260l51 -154l-26 -61h-226v-721z" />
    <glyph glyph-name="halant-deva" unicode="&#x94d;" 
d="M117 -151.5q45 8.5 76 8.5q92 0 180 -49.5t164.5 -122t193.5 -199.5l-102 -80q-104 106 -204.5 174t-174.5 68q-39 0 -81 -12.5t-50 -14.5l-82 143l8 66q27 10 72 18.5z" />
    <glyph glyph-name="prishthaMatraE-deva" unicode="&#x94e;" horiz-adv-x="413" 
d="M438 1098h-205v-721l29 -395l-57 -52l-240 39l35 410v934h414l51 -154z" />
    <glyph glyph-name="awMatra-deva" unicode="&#x94f;" horiz-adv-x="636" 
d="M436 377l29 -395l-57 -52l-240 39l35 410v719h-203l-51 153l20 62h273q-25 39 -62 57.5t-102 26.5l-342 35q-113 18 -184.5 74.5t-145.5 148.5l-27 33l74 77q63 -76 140 -105.5t171 -39.5q63 -6 252 -37q184 -29 265 -127q-23 80 -97 119l-270 141q-106 55 -155.5 140.5
t-72 157t-28.5 89.5l100 43q27 -78 64 -125t66.5 -67.5t99.5 -63.5l270 -155q86 -57 111.5 -121t29.5 -168q0 -59 -6 -133h244l51 -154l-26 -61h-226v-721z" />
    <glyph glyph-name="om-deva" unicode="&#x950;" horiz-adv-x="2060" 
d="M1086.5 1372.5q-29.5 22.5 -53 60t-23.5 87.5q0 14 19.5 41.5t55 49t84.5 21.5q14 0 45 -22.5t54.5 -61.5t23.5 -88q0 -14 -20.5 -40.5t-56 -48t-85.5 -21.5q-14 0 -43.5 22.5zM963.5 1164.5q-107.5 68.5 -158.5 193.5l129 80q61 -156 215 -156q78 0 130 37t83 115
l227 -80q-51 -123 -157.5 -190.5t-233.5 -67.5t-234.5 68.5zM1802.5 985q98.5 -47 157.5 -135t59 -205t-47 -197.5t-126 -121.5t-171 -41t-180 40t-152 115l93 101q61 -70 141 -70q53 0 102.5 30.5t79 83t29.5 115.5q0 59 -32 99.5t-93 40.5q-63 0 -115.5 -33t-107.5 -92
q-23 -23 -41 -47q-59 -68 -102.5 -107t-100.5 -66.5t-127 -27.5q-59 0 -123 20q12 -33 12 -73q0 -109 -57 -189t-152.5 -122t-209.5 -42q-150 0 -289 68t-250 197l92 100q92 -88 191.5 -133t187.5 -45q104 0 169 55t65 154q0 49 -31 89t-92 64q-106 -37 -250 -61l-60 172
l31 82q190 27 277.5 87t87.5 138q0 98 -117 98q-78 0 -169 -35.5t-165 -99.5l-80 37l-69 205q96 43 198.5 66.5t188.5 23.5q195 0 313.5 -95t118.5 -253q0 -176 -148 -285l6 -2q123 -47 207 -47q70 0 120 26.5t80 61.5t87 111q70 92 145.5 142t204.5 50q115 0 213.5 -47z
" />
    <glyph glyph-name="udatta-deva" unicode="&#x951;" 
d="M229 1397h-204v555h204v-555z" />
    <glyph glyph-name="anudatta-deva" unicode="&#x952;" 
d="M797 -258l-23 -51h-717l-37 135l17 51h723z" />
    <glyph glyph-name="grave-deva" unicode="&#x953;" 
d="M393 1407l135 84l-327 477l-181 -119l211 -221z" />
    <glyph glyph-name="acute-deva" unicode="&#x954;" 
d="M20 1491l136 -84l161 221l211 221l-180 119z" />
    <glyph glyph-name="eLongCandra-deva" unicode="&#x955;" 
d="M391 1801q78 0 130 36.5t83 114.5l227 -80q-51 -123 -157.5 -190.5t-233.5 -67.5t-234.5 68.5t-158.5 193.5l129 80q61 -155 215 -155zM822 1421l-23 -51h-717l-37 135l17 51h723z" />
    <glyph glyph-name="ueMatra-deva" unicode="&#x956;" 
d="M371 -250q78 0 130 37t83 115l227 -80q-51 -123 -157.5 -190.5t-233.5 -67.5t-234.5 68.5t-158.5 193.5l129 80q61 -156 215 -156z" />
    <glyph glyph-name="uueMatra-deva" unicode="&#x957;" 
d="M371 -250q78 0 130 37t83 115l227 -80q-51 -123 -157.5 -190.5t-233.5 -67.5t-234.5 68.5t-158.5 193.5l129 80q61 -156 215 -156zM249.5 -544q65.5 -40 139.5 -40q145 0 209 142l223 -93q-53 -115 -159.5 -176t-229.5 -61q-61 0 -141 23.5t-156 87t-112 172.5l133 73
q28 -88 93.5 -128z" />
    <glyph glyph-name="qa-deva" unicode="&#x958;" horiz-adv-x="1777" 
d="M1053 854q127 63 247 64q176 0 282 -94.5t106 -256.5q0 -129 -69 -260t-206 -241l-168 133v82q123 92 186.5 164.5t63.5 144.5q0 61 -35 95t-94 34q-74 0 -155 -63.5t-158 -170.5v-108l28 -395l-57 -52l-240 39l25 297q-123 -76 -293 -76q-115 0 -213 47.5t-157.5 134.5
t-59.5 203q0 182 97.5 272.5t283.5 90.5q166 0 352 -121v281h-819l-51 153l20 62h1809l51 -154l-21 -61h-755v-244zM656.5 441.5q91.5 66.5 162.5 215.5v35l-2 -4q-164 53 -252 53q-129 0 -185 -65.5t-56 -161.5q0 -139 145 -139q96 0 187.5 66.5zM502 88.5
q31 -22.5 54.5 -61.5t23.5 -88q0 -14 -20.5 -41t-56.5 -48.5t-85 -21.5q-14 0 -44 22.5t-53.5 60.5t-23.5 87q0 14 19.5 42t55.5 49.5t85 21.5q14 0 45 -22.5z" />
    <glyph glyph-name="khha-deva" unicode="&#x959;" horiz-adv-x="1839" 
d="M1638 377l29 -395l-57 -52l-240 39l25 295q-106 -49 -244 -49q-113 0 -215 51t-163.5 137t-61.5 187q0 154 95 232.5t275 78.5q160 0 324 -108v305h-842q84 -131 84 -262q0 -145 -75.5 -255t-225.5 -180q166 -178 451 -311l-156 -201q-180 104 -341 301t-241 408l144 143
l104 -51q53 39 82 96.5t29 128.5q0 82 -41 183h-387l-51 153l20 62h1880l51 -154l-26 -61h-226v-721zM1264.5 448.5q76.5 49.5 140.5 143.5v43q-141 70 -242 70q-100 0 -157.5 -40t-57.5 -116q0 -70 41 -110t115 -40q84 0 160.5 49.5zM241.5 118.5q30.5 -22.5 54 -61.5
t23.5 -88q0 -14 -20 -40.5t-56 -48t-85 -21.5q-14 0 -44 22.5t-53.5 60.5t-23.5 87q0 14 19.5 41.5t55 49t85.5 21.5q14 0 44.5 -22.5z" />
    <glyph glyph-name="ghha-deva" unicode="&#x95a;" horiz-adv-x="1259" 
d="M1059 377l28 -395l-57 -52l-239 39l34 410v719h-344l2 -62q4 -82 4 -145q0 -385 -67 -643q-94 0 -174 50t-129 132t-51 172l51 68q57 14 143 18q10 45 10 133q0 137 -32 277h-238l-51 153l20 62h1291l51 -154l-27 -61h-225v-721zM366.5 118.5q30.5 -22.5 54 -61.5
t23.5 -88q0 -14 -20.5 -40.5t-56 -48t-84.5 -21.5q-14 0 -44 22.5t-53.5 60.5t-23.5 87q0 14 19.5 41.5t55 49t85.5 21.5q14 0 44.5 -22.5z" />
    <glyph glyph-name="za-deva" unicode="&#x95b;" horiz-adv-x="1644" 
d="M1444 377l29 -395l-58 -52l-239 39l34 410v311q-193 -4 -354 -12q78 -47 120 -116.5t42 -151.5q0 -121 -81 -190.5t-220 -69.5q-213 0 -385 163.5t-273 466.5l140 41q78 -219 188.5 -342t226.5 -123q72 0 111 34t39 95q0 76 -55.5 125t-169.5 76l-47 154l55 57
q305 -4 663 -23v224h-1220l-51 153l20 62h1686l51 -154l-27 -61h-225v-721zM401.5 174.5q30.5 -22.5 54 -61.5t23.5 -88q0 -14 -20.5 -41t-56 -48.5t-85.5 -21.5q-14 0 -43.5 22.5t-53 60.5t-23.5 87q0 14 19.5 42t55 49.5t84.5 21.5q15 0 45.5 -22.5z" />
    <glyph glyph-name="dddha-deva" unicode="&#x95c;" horiz-adv-x="1181" 
d="M410.5 715.5q-31.5 -21.5 -31.5 -62.5q0 -37 20.5 -67.5t49.5 -30.5q25 0 70.5 10t92.5 23q10 2 76 18.5t107 16.5q55 0 127.5 -39t125 -112t52.5 -165q0 -139 -92.5 -237.5t-315.5 -98.5q-143 0 -305 65.5t-311 182.5l71 115q178 -104 274.5 -138t223.5 -34
q104 0 173 49t69 135q0 25 -13.5 43.5t-35.5 18.5q-43 0 -146 -33q-106 -33 -147 -33q-98 0 -191.5 48t-152 132t-58.5 183q0 141 80 199.5t266 58.5h211v135h-700l-51 153l20 62h1213l51 -154l-21 -61h-278v-295l-62 -66h-383q-47 0 -78.5 -21.5zM1202 809.5
q31 -22.5 54.5 -61.5t23.5 -88q0 -14 -20.5 -41t-56.5 -48.5t-85 -21.5q-14 0 -44 22.5t-53.5 60.5t-23.5 87q0 14 19.5 42t55.5 49.5t85 21.5q14 0 45 -22.5z" />
    <glyph glyph-name="rha-deva" unicode="&#x95d;" horiz-adv-x="1200" 
d="M328 520q0 -147 73.5 -232t204.5 -85h4q-55 51 -89 106.5t-52 124.5q14 90 97 144.5t204 54.5q102 0 185 -37t130.5 -101.5t47.5 -142.5q0 -152 -123 -240.5t-332 -88.5q-131 0 -271.5 55t-237.5 176t-97 307q0 193 122.5 298.5t348.5 103.5h176v135h-729l-51 153l20 62
h1251l52 -154l-21 -61h-289v-283l-63 -80l-305 2q-256 0 -256 -217zM762 225q129 45 129 170q0 33 -19.5 57.5t-56.5 24.5q-35 0 -63.5 -30.5t-28.5 -73.5q0 -70 39 -148zM741 -73.5q31 -22.5 54.5 -61.5t23.5 -88q0 -14 -20.5 -41t-56.5 -48.5t-85 -21.5q-14 0 -44 22.5
t-53.5 60.5t-23.5 87q0 14 19.5 42t55.5 49.5t85 21.5q14 0 45 -22.5z" />
    <glyph glyph-name="fa-deva" unicode="&#x95e;" horiz-adv-x="1726" 
d="M1044 868q106 49 216 50q176 0 281.5 -94.5t105.5 -256.5q0 -129 -69 -260t-206 -241l-168 133v82q123 92 186.5 164.5t63.5 144.5q0 61 -35 95t-94 34q-66 0 -137.5 -51.5t-143.5 -139.5v-151l29 -395l-57 -52l-240 39l31 367q-125 -63 -283 -64q-96 0 -190 58.5
t-152.5 154t-58.5 199.5v414h-133l-51 153l20 62h1757l51 -154l-20 -61h-703v-230zM369 1098v-502q0 -70 27.5 -104.5t92.5 -34.5q117 0 186.5 57t135.5 162v422h-442zM524 121.5q31 -22.5 54.5 -61.5t23.5 -88q0 -14 -20.5 -41t-56.5 -48.5t-85 -21.5q-14 0 -44 22.5
t-53.5 60.5t-23.5 87q0 14 19.5 42t55.5 49.5t85 21.5q14 0 45 -22.5z" />
    <glyph glyph-name="yya-deva" unicode="&#x95f;" horiz-adv-x="1275" 
d="M1075 377l29 -395l-57 -52l-240 39l29 330q-133 -82 -265 -82q-119 0 -226 57.5t-182 157.5t-97 223l38 78q111 16 160 56t49 112q0 96 -118 197h-205l-51 153l20 62h1317l51 -154l-27 -61h-225v-721zM403 1098q78 -70 113 -133.5t35 -133.5q0 -82 -72.5 -159.5
t-189.5 -120.5q14 -55 76.5 -87t152.5 -32q96 0 181 46t143 130v490h-439zM338 119.5q31 -22.5 54.5 -61.5t23.5 -88q0 -14 -20.5 -41t-56.5 -48.5t-85 -21.5q-14 0 -44 22.5t-53.5 60.5t-23.5 87q0 14 19.5 42t55.5 49.5t85 21.5q14 0 45 -22.5z" />
    <glyph glyph-name="rrVocalic-deva" unicode="&#x960;" horiz-adv-x="1839" 
d="M1827.5 -387q-68.5 -35 -146.5 -35q-80 0 -163.5 38t-139 100.5t-55.5 131.5q0 43 10 80q-78 39 -127 99.5t-49 126.5q0 98 50 161.5t147 120.5q-16 27 -45 84q-143 -66 -318 -106v-37l29 -395l-57 -52l-240 39l33 375l-471 -354l-158 219q340 170 612 338
q-86 90 -150.5 129t-127.5 39q-55 0 -107.5 -32t-148.5 -126l-164 213q86 80 183.5 124t199.5 44q98 0 176 -54.5t158 -152.5v367h-772l-52 153l21 62h1884l51 -154l-20 -61h-879v-488q141 41 244 115q-12 55 -21 115l109 92q193 -27 309 -178q-53 -76 -153 -140
q59 -102 170 -192v-80l-9 -2q-104 -47 -158.5 -75.5t-92 -70.5t-37.5 -100q0 -35 27.5 -57.5t72.5 -22.5q47 0 88 29t111 111l143 -125q-109 -123 -235 -142q-35 -49 -35 -92q0 -39 27.5 -62.5t72.5 -23.5q47 0 86 27.5t109 111.5l143 -124q-66 -76 -134.5 -111z" />
    <glyph glyph-name="llVocalic-deva" unicode="&#x961;" horiz-adv-x="1681" 
d="M1672.5 -485.5q-68.5 -34.5 -146.5 -34.5q-80 0 -164 38t-139.5 100.5t-55.5 131.5q0 43 11 80q-78 39 -127.5 99.5t-49.5 125.5q0 111 61.5 177.5t182.5 132.5l2 14v344q-53 18 -88 18q-141 0 -203.5 -97t-62.5 -238l-238 61q0 145 41 250q-72 25 -127 24
q-129 0 -185 -65.5t-56 -161.5q0 -104 76.5 -206.5t230.5 -170.5l-70 -125q-213 98 -344 241.5t-131 321.5q0 182 97.5 272.5t283.5 90.5q147 0 303 -102q100 102 287 102q92 0 186 -49v209h-1253l-51 153l20 62h1718l52 -154l-27 -61h-225v-721l10 -133
q-106 -47 -161.5 -76t-94.5 -72t-39 -100q0 -35 27.5 -57.5t72.5 -22.5q47 0 88 28.5t111 110.5l143 -125q-109 -123 -235 -141q-35 -49 -35 -92q0 -39 27.5 -62.5t72.5 -23.5q47 0 86 27.5t109 111.5l143 -125q-65 -76 -133.5 -110.5z" />
    <glyph glyph-name="lVocalicMatra-deva" unicode="&#x962;" 
d="M1059 -592q-51 -29 -98 -29q-68 0 -129.5 28t-99.5 72t-38 93q0 51 25.5 83t75.5 71q33 27 48 44t15 37q0 33 -22.5 52.5t-63.5 19.5q-72 0 -113 -54t-41 -155l-184 37q0 92 29 162q-45 10 -70 10q-66 0 -101.5 -32.5t-35.5 -92.5q0 -78 48 -144.5t138 -113.5l-45 -92
q-172 74 -264 174t-92 213t74.5 171t220.5 58q96 0 194 -59q72 59 197 59q152 0 238 -68.5t86 -178.5q0 -39 -25 -67t-72 -60q-43 -31 -62.5 -51.5t-19.5 -49.5q0 -20 13.5 -31.5t38.5 -11.5q33 0 68.5 23.5t60.5 64.5l106 -100q-49 -53 -100 -82z" />
    <glyph glyph-name="llVocalicMatra-deva" unicode="&#x963;" 
d="M1193 -811q-52 -29 -99 -29q-63 0 -129 30t-109 76t-43 89q0 29 10 55q-57 29 -93 72t-36 90q0 51 25.5 83t75.5 71q33 27 48 44t15 37q0 33 -22.5 52.5t-63.5 19.5q-72 0 -113 -54t-41 -155l-184 37q0 92 29 162q-45 10 -70 10q-66 0 -101.5 -32.5t-35.5 -92.5
q0 -78 48 -144.5t138 -113.5l-45 -92q-172 74 -264 174t-92 213t74.5 171t220.5 58q96 0 194 -59q72 59 197 59q152 0 238 -68.5t86 -178.5q0 -39 -25 -67t-72 -60q-43 -31 -62.5 -51.5t-19.5 -49.5q0 -20 13.5 -31.5t38.5 -11.5q33 0 68.5 23.5t60.5 64.5l106 -100
q-86 -96 -172 -108q-12 -16 -12 -31q0 -27 21.5 -42.5t66.5 -15.5q31 0 64.5 21.5t58.5 60.5l106 -102q-47 -55 -99 -84z" />
    <glyph glyph-name="danda-deva" unicode="&#x964;" horiz-adv-x="636" 
d="M436 903v-672l21 -395l-58 -51l-217 39l21 409v672l-21 395l58 52l217 -39z" />
    <glyph glyph-name="dbldanda-deva" unicode="&#x965;" horiz-adv-x="1042" 
d="M436 903v-672l21 -395l-58 -51l-217 39l21 409v672l-21 395l58 52l217 -39zM842 903v-672l21 -395l-58 -51l-217 39l21 409v672l-21 395l58 52l217 -39z" />
    <glyph glyph-name="zero-deva" unicode="&#x966;" horiz-adv-x="1118" 
d="M782.5 1117.5q112.5 -64.5 179 -175.5t66.5 -242q0 -125 -58.5 -225t-160.5 -156.5t-229 -56.5q-131 0 -244 63.5t-179.5 173t-66.5 240.5q0 127 58.5 227.5t161 158t229.5 57.5q131 0 243.5 -64.5zM484.5 931q-68.5 -54 -107.5 -137t-39 -165q0 -76 37 -124t110 -48
q86 0 155 54t107.5 137t38.5 165q0 76 -36.5 124t-110.5 48q-86 0 -154.5 -54z" />
    <glyph glyph-name="one-deva" unicode="&#x967;" horiz-adv-x="931" 
d="M674 310q119 -77 207 -163l-215 -192q-160 180 -279 283.5t-270 162.5v150q406 256 405 496q0 59 -26.5 103t-77.5 44q-43 0 -66.5 -32t-23.5 -81q0 -39 17 -77.5t46 -65.5l-88 -96q-106 61 -171.5 140t-74.5 148q27 117 114 179.5t202 62.5q176 0 282.5 -102.5
t106.5 -278.5q0 -160 -85 -289t-249 -260q127 -55 246 -132z" />
    <glyph glyph-name="two-deva" unicode="&#x968;" horiz-adv-x="1122" 
d="M809 293.5q109 -62.5 262 -119.5l-172 -231q-164 86 -274.5 194.5t-208.5 265.5q-119 0 -219.5 67t-133.5 157l31 102q37 29 78 39t92 10q45 0 109 -18q10 -12 63 -92q145 33 213 111.5t68 189.5q0 96 -59.5 145t-161.5 49q-84 0 -164 -44t-144 -107l-168 227
q78 63 186.5 98t209.5 35q150 0 268.5 -63.5t185 -174t66.5 -247.5q0 -84 -40 -172t-112.5 -163t-167.5 -114q84 -82 193 -144.5z" />
    <glyph glyph-name="three-deva" unicode="&#x969;" horiz-adv-x="1071" 
d="M963 94l-148 -211q-182 113 -381 338q-307 31 -377 215l27 72q63 45 149 45q25 0 58 -6t57 -12q55 -59 119 -121q98 10 161.5 50t63.5 116q0 86 -125 131q-68 -23 -190 -47l-98 249q387 53 387 185q0 78 -117 78q-133 0 -348 -150l-115 256q199 90 367 90
q201 0 316.5 -81t115.5 -236q0 -160 -123 -250q92 -51 143 -121t51 -156q0 -121 -69.5 -193.5t-188.5 -101.5q111 -67 265 -139z" />
    <glyph glyph-name="four-deva" unicode="&#x96a;" horiz-adv-x="1005" 
d="M860 362q0 -139 -92 -220t-233 -81q-92 0 -174 43t-132.5 118t-50.5 167q0 80 48 160t128 162l-71 59q-98 82 -153.5 149.5t-72.5 159.5q14 96 59.5 166t135.5 127l141 -198q-72 -63 -71 -121q0 -53 30.5 -99.5t116.5 -113.5l12 -11q61 55 58 52q72 68 103.5 114.5
t31.5 104.5q0 147 -168 282l84 105q162 -109 246 -228.5t84 -240.5q0 -72 -33 -124t-117 -140l-96 -88q186 -165 186 -304zM589.5 281q28.5 41 28.5 96q0 90 -67 164q-123 -133 -123 -215q0 -35 23.5 -60.5t60.5 -25.5q49 0 77.5 41z" />
    <glyph glyph-name="five-deva" unicode="&#x96b;" horiz-adv-x="1124" 
d="M756 61q0 203 -62 377q-63 -14 -141 -14q-236 0 -348.5 121t-112.5 338q0 106 39 253.5t98 241.5l230 -110q-45 -90 -82 -235.5t-37 -237.5t37 -138.5t98 -46.5q74 0 135 37q-8 25 -32 107l108 108q199 0 334 -133q-37 -131 -150 -213q133 -250 160 -508l-278 -61
q4 77 4 114z" />
    <glyph glyph-name="six-deva" unicode="&#x96c;" horiz-adv-x="1089" 
d="M907 134q43 -52 115 -118l-221 -125q-117 168 -158 308q-61 -4 -98 -4q-229 0 -337 99t-108 247q0 82 46.5 155.5t136.5 128.5q-88 53 -135.5 123t-47.5 152q0 143 109.5 208.5t271.5 65.5q125 0 234 -33l96 -202l-37 -47q-166 37 -266 36q-74 0 -113 -27.5t-39 -70.5
q0 -33 31 -66.5t84 -56.5q129 39 293 41l102 -243q-233 0 -368.5 -52.5t-135.5 -163.5q0 -106 113 -106q70 0 141 45q2 51 13 115l121 61q178 -33 274 -213q-84 -96 -190 -143q30 -62 73 -114z" />
    <glyph glyph-name="seven-deva" unicode="&#x96d;" horiz-adv-x="1212" 
d="M689 518q93 72 146.5 186.5t53.5 235.5q0 88 -24.5 129t-61.5 41q-31 0 -50.5 -29.5t-19.5 -68.5q0 -33 17.5 -78t46.5 -78l-88 -96q-102 66 -159.5 125t-86.5 157q29 125 105.5 186.5t191.5 61.5q109 0 189.5 -64.5t124.5 -168t44 -217.5q0 -158 -75.5 -291t-205.5 -211
t-288 -78q-145 0 -244.5 63.5t-147.5 170t-48 233.5q0 174 38.5 340t112.5 307l227 -106q-61 -111 -99 -281t-38 -321q0 -219 131 -220q115 0 208 72z" />
    <glyph glyph-name="eight-deva" unicode="&#x96e;" horiz-adv-x="980" 
d="M527 1057q-81 -119 -136 -245t-55 -216q0 -68 27.5 -109t85.5 -41q82 0 163.5 46.5t153.5 128.5l168 -187q-86 -84 -197.5 -130t-216.5 -46q-106 0 -204.5 47t-160 135t-61.5 203q0 180 111.5 395t269.5 383l207 -172q-74 -73 -155 -192z" />
    <glyph glyph-name="nine-deva" unicode="&#x96f;" horiz-adv-x="1024" 
d="M843 475q87 -96 107 -211q-14 -96 -68.5 -177t-146.5 -138l-141 198q92 80 92 162q0 63 -96 154.5t-252 212.5q-25 20 -37 29q-123 96 -181.5 184t-58.5 184q0 141 97.5 221t249.5 80q100 0 190 -49t143.5 -134t53.5 -185q0 -139 -179 -330q140 -105 227 -201z
M348.5 1147q-26.5 -43 -26.5 -103q0 -113 94 -206q63 72 89.5 124t26.5 97q0 57 -27.5 94t-78.5 37t-77.5 -43z" />
    <glyph glyph-name="abbreviation-deva" unicode="&#x970;" horiz-adv-x="987" 
d="M305 237.5q-98 47.5 -157.5 134.5t-59.5 203q0 182 97.5 272.5t283.5 90.5q115 0 213 -47t157.5 -134t59.5 -204q0 -182 -97 -272.5t-284 -90.5q-115 0 -213 47.5zM422 714q-51 -34 -78 -86.5t-27 -107.5q0 -59 33 -99t94 -40q70 0 121 34t78 86t27 107q0 59 -33 99.5
t-94 40.5q-70 0 -121 -34z" />
    <glyph glyph-name="highspacingdot-deva" unicode="&#x971;" horiz-adv-x="462" 
d="M289.5 1312.5q27.5 -20.5 49 -56t21.5 -80.5q0 -12 -18 -37t-52 -43.5t-77 -18.5q-14 0 -41 19.5t-48.5 54.5t-21.5 80q0 12 17.5 37.5t50.5 45t78 19.5q14 0 41.5 -20.5z" />
    <glyph glyph-name="aCandra-deva" unicode="&#x972;" horiz-adv-x="1685" 
d="M1513 377l29 -395l-57 -52l-240 39l35 410v88q-63 -25 -127 -25q-70 0 -149 23q6 -25 6 -51q0 -109 -57.5 -189t-152.5 -122t-210 -42q-150 0 -289 68t-250 197l92 100q92 -88 191.5 -133t187.5 -45q104 0 169 55t65 154q0 49 -34 92t-99 67q-96 -35 -240 -57l-59 172
l30 82q365 49 365 215q0 98 -117 98q-74 0 -155.5 -34.5t-157.5 -100.5l-80 37l-70 205q199 90 367 90q195 0 313.5 -95t118.5 -253q0 -174 -147 -277q172 -55 294 -55q106 0 195 51v404h-203l-51 153l21 62h667l51 -154l-26 -61h-226v-721zM1356 1561q78 0 130 36.5
t83 114.5l227 -80q-51 -123 -157.5 -190.5t-233.5 -67.5t-234.5 68.5t-158.5 193.5l129 80q61 -155 215 -155z" />
    <glyph glyph-name="oe-deva" unicode="&#x973;" horiz-adv-x="1685" 
d="M1513 377l29 -395l-57 -52l-240 39l35 410v88q-63 -25 -127 -25q-70 0 -149 23q6 -25 6 -51q0 -109 -57.5 -189t-152.5 -122t-210 -42q-150 0 -289 68t-250 197l92 100q92 -88 191.5 -133t187.5 -45q104 0 169 55t65 154q0 49 -34 92t-99 67q-96 -35 -240 -57l-59 172
l30 82q365 49 365 215q0 98 -117 98q-74 0 -155.5 -34.5t-157.5 -100.5l-80 37l-70 205q199 90 367 90q195 0 313.5 -95t118.5 -253q0 -174 -147 -277q172 -55 294 -55q106 0 195 51v404h-203l-51 153l21 62h233v303l61 20l172 -57v-266h201l51 -154l-26 -61h-226v-721z" />
    <glyph glyph-name="ooe-deva" unicode="&#x974;" horiz-adv-x="2322" 
d="M2122 377l28 -395l-57 -52l-240 39l35 410v719h-375v-721l29 -395l-57 -52l-240 39l35 410v88q-63 -25 -127 -25q-70 0 -149 23q6 -25 6 -51q0 -109 -57.5 -189t-152.5 -122t-210 -42q-150 0 -289 68t-250 197l92 100q92 -88 191.5 -133t187.5 -45q104 0 169 55t65 154
q0 49 -34 92t-99 67q-96 -35 -240 -57l-59 172l30 82q365 49 365 215q0 98 -117 98q-74 0 -155.5 -34.5t-157.5 -100.5l-80 37l-70 205q199 90 367 90q195 0 313.5 -95t118.5 -253q0 -174 -147 -277q172 -55 294 -55q106 0 195 51v404h-203l-51 153l21 62h841v303l62 20
l172 -57v-266h200l52 -154l-27 -61h-225v-721z" />
    <glyph glyph-name="aw-deva" unicode="&#x975;" horiz-adv-x="2322" 
d="M2122 377l28 -395l-57 -52l-240 39l35 410v719h-375v-721l29 -395l-57 -52l-240 39l35 410v88q-66 -25 -127 -25q-70 0 -149 23q6 -25 6 -51q0 -109 -57.5 -189t-152.5 -122t-210 -42q-150 0 -289 68t-250 197l92 100q92 -88 191.5 -133t187.5 -45q104 0 169 55t65 154
q0 49 -34 92t-99 67q-96 -35 -240 -57l-59 172l30 82q365 49 365 215q0 98 -117 98q-74 0 -155.5 -34.5t-157.5 -100.5l-80 37l-70 205q199 90 367 90q195 0 313.5 -95t118.5 -253q0 -174 -147 -277q172 -55 294 -55q106 0 195 51v404h-203l-51 153l21 62h880
q-25 39 -61.5 57.5t-102.5 26.5l-342 35q-113 18 -184.5 74.5t-144.5 148.5l-27 33l74 77q63 -76 140 -105.5t171 -39.5q63 -6 252 -37q184 -29 264 -127q-23 80 -96 119l-271 141q-106 55 -155 140.5t-71.5 157t-29.5 89.5l101 43q27 -78 63.5 -125t66.5 -67.5t99 -63.5
l271 -155q86 -57 111.5 -121t29.5 -168q0 -59 -6 -133h243l52 -154l-27 -61h-225v-721z" />
    <glyph glyph-name="ue-deva" unicode="&#x976;" horiz-adv-x="1685" 
d="M1513 377l29 -395l-57 -52l-240 39l35 410v88q-63 -25 -127 -25q-70 0 -149 23q6 -25 6 -51q0 -109 -57.5 -189t-152.5 -122t-210 -42q-150 0 -289 68t-250 197l92 100q92 -88 191.5 -133t187.5 -45q104 0 169 55t65 154q0 49 -34 92t-99 67q-96 -35 -240 -57l-59 172
l30 82q365 49 365 215q0 98 -117 98q-74 0 -155.5 -34.5t-157.5 -100.5l-80 37l-70 205q199 90 367 90q195 0 313.5 -95t118.5 -253q0 -174 -147 -277q172 -55 294 -55q106 0 195 51v404h-203l-51 153l21 62h667l51 -154l-26 -61h-226v-721zM1356 -250q78 0 130 37t83 115
l227 -80q-51 -123 -157.5 -190.5t-233.5 -67.5t-234.5 68.5t-158.5 193.5l129 80q61 -156 215 -156z" />
    <glyph glyph-name="uue-deva" unicode="&#x977;" horiz-adv-x="1685" 
d="M1513 377l29 -395l-57 -52l-240 39l35 410v88q-63 -25 -127 -25q-70 0 -149 23q6 -25 6 -51q0 -109 -57.5 -189t-152.5 -122t-210 -42q-150 0 -289 68t-250 197l92 100q92 -88 191.5 -133t187.5 -45q104 0 169 55t65 154q0 49 -34 92t-99 67q-96 -35 -240 -57l-59 172
l30 82q365 49 365 215q0 98 -117 98q-74 0 -155.5 -34.5t-157.5 -100.5l-80 37l-70 205q199 90 367 90q195 0 313.5 -95t118.5 -253q0 -174 -147 -277q172 -55 294 -55q106 0 195 51v404h-203l-51 153l21 62h667l51 -154l-26 -61h-226v-721zM1366 -250q78 0 130 37t83 115
l227 -80q-51 -123 -157.5 -190.5t-233.5 -67.5t-234.5 68.5t-158.5 193.5l129 80q61 -156 215 -156zM1244.5 -544q65.5 -40 139.5 -40q145 0 209 142l223 -93q-53 -115 -159.5 -176t-229.5 -61q-61 0 -141 23.5t-156 87t-112 172.5l133 73q28 -88 93.5 -128z" />
    <glyph glyph-name="zha-deva" unicode="&#x979;" horiz-adv-x="1644" 
d="M1444 377l29 -395l-58 -52l-239 39l34 410v311q-193 -4 -354 -12q78 -47 120 -116.5t42 -151.5q0 -121 -81 -190.5t-220 -69.5q-213 0 -385 163.5t-273 466.5l140 41q78 -219 188.5 -342t226.5 -123q72 0 111 34t39 95q0 76 -55.5 125t-169.5 76l-47 154l55 57
q305 -4 663 -23v224h-1220l-51 153l20 62h1686l51 -154l-27 -61h-225v-721zM613.5 -106.5q-17.5 -24.5 -50.5 -44t-76 -19.5q-14 0 -39.5 20.5t-46 55.5t-20.5 80q0 12 16.5 37.5t48 45t76.5 19.5q14 0 41 -20.5t47.5 -56.5t20.5 -81q0 -12 -17.5 -36.5zM870.5 67.5
q26.5 -20.5 47 -56.5t20.5 -81q0 -12 -17.5 -36.5t-50 -44t-75.5 -19.5q-14 0 -40 20.5t-46.5 55.5t-20.5 80q0 12 16.5 37.5t48 45t76.5 19.5q15 0 41.5 -20.5zM721 -202.5q27 -20.5 47 -56.5t20 -81q0 -12 -17 -36.5t-50 -44t-76 -19.5q-14 0 -39.5 20.5t-46 55
t-20.5 79.5q0 12 16 38t48 45.5t77 19.5q14 0 41 -20.5z" />
    <glyph glyph-name="jjya-deva" unicode="&#x97a;" horiz-adv-x="1275" 
d="M1075 377l29 -395l-57 -52l-240 39l29 330q-133 -82 -265 -82q-119 0 -226 57.5t-182 157.5t-97 223l38 78q111 16 160 56t49 112q0 96 -118 197h-205l-51 153l20 62h1317l51 -154l-27 -61h-225v-721zM438 1098l404 -426v426h-404zM774 532l-231 242q-23 -68 -90.5 -128
t-163.5 -95q14 -55 76.5 -87t152.5 -32q143 0 256 100z" />
    <glyph glyph-name="gga-deva" unicode="&#x97b;" horiz-adv-x="1280" 
d="M1120 377l29 -395l-19 -17l3 -35l-27 -61h-938l-51 154l20 61h725l25 295v719h-406l2 -62q4 -82 4 -145q0 -385 -67 -643q-94 0 -174 50t-129 132t-51 172l51 68q57 14 143 18q10 45 10 133q0 137 -32 277h-238l-51 153l20 62h1352l51 -154l-26 -61h-226v-721z" />
    <glyph glyph-name="jja-deva" unicode="&#x97c;" horiz-adv-x="1603" 
d="M1669 1098h-225v-721l29 -395l-3 -2l11 -111l-27 -62h-1286l-51 154l20 62h1043l30 356v311q-193 -4 -354 -12q78 -47 120 -116.5t42 -151.5q0 -121 -81 -190.5t-220 -69.5q-213 0 -385 163.5t-273 466.5l140 41q78 -219 188.5 -342t226.5 -123q72 0 111 34t39 95
q0 76 -55.5 125t-169.5 76l-47 154l55 57q305 -4 663 -23v224h-1220l-51 153l20 62h1686l51 -154z" />
    <glyph glyph-name="glottalstop-deva" unicode="&#x97d;" horiz-adv-x="935" 
d="M733 604q-121 -135 -295 -209v-18l29 -395l-57 -52l-240 39l35 410v184l71 72q115 12 199 59t128 112.5t44 129.5q0 90 -53 136t-135 46q-76 0 -141.5 -39t-145.5 -116l-82 32l-82 201q172 113 369 113q150 0 258 -60.5t163.5 -156t55.5 -197.5q0 -156 -121 -291z" />
    <glyph glyph-name="ddda-deva" unicode="&#x97e;" horiz-adv-x="1181" 
d="M1212 1098h-278v-295l-62 -66h-383q-47 0 -78.5 -21.5t-31.5 -62.5q0 -37 20.5 -67.5t49.5 -30.5q25 0 70.5 10t92.5 23q10 2 76 18.5t107 16.5q55 0 127.5 -39t125 -112t52.5 -165q0 -139 -92.5 -237.5t-315.5 -98.5q-143 0 -305 65.5t-311 182.5l71 115
q178 -104 274.5 -138t223.5 -34q104 0 173 49t69 135q0 25 -13.5 43.5t-35.5 18.5q-43 0 -146 -33q-106 -33 -147 -33q-98 0 -191.5 48t-152 132t-58.5 183q0 141 80 199.5t266 58.5h211v135h-700l-51 153l20 62h1213l51 -154zM1133 -274l-27 -62h-938l-51 154l20 61h950z
" />
    <glyph glyph-name="bba-deva" unicode="&#x97f;" horiz-adv-x="1214" 
d="M1262 1098h-226v-721l37 -504l-26 -61h-900l-51 153l21 62h655l19 213q-106 -49 -244 -50q-129 0 -234.5 50.5t-166 138.5t-60.5 196q0 178 105.5 270.5t306.5 92.5q150 0 305 -86v246h-813l-51 153l20 62h1278l51 -154zM508 733l240 -233q39 43 55 67v133
q-123 41 -207 41q-53 0 -88 -8zM324 535q0 -76 48 -118t128 -42q70 0 135 35l-264 252q-47 -51 -47 -127z" />
    <glyph glyph-name="zerowidthnonjoiner" unicode="&#x200c;" 
d="M0 -500v2048h233v-2048h-233z" />
    <glyph glyph-name="zerowidthjoiner" unicode="&#x200d;" 
d="M233 1376v-1876h-233v2048h522v-172h-289z" />
    <glyph glyph-name="endash" unicode="&#x2013;" horiz-adv-x="1032" 
d="M1022 422h-1018l-4 194h1032z" />
    <glyph glyph-name="emdash" unicode="&#x2014;" horiz-adv-x="2060" 
d="M2050 422h-2046l-4 194h2060z" />
    <glyph glyph-name="quoteleft" unicode="&#x2018;" horiz-adv-x="468" 
d="M302 1459q36 34 87 59l-18 59q-92 -8 -160 -56t-102.5 -120t-34.5 -146q0 -86 43 -144t121 -58q70 0 115.5 51t45.5 121q0 63 -41 104t-104 41q12 55 48 89z" />
    <glyph glyph-name="quoteright" unicode="&#x2019;" horiz-adv-x="468" 
d="M167 1170.5q-36 -33.5 -87 -58.5l18 -59q92 8 160 56t102.5 119.5t34.5 145.5q0 86 -43 144.5t-121 58.5q-70 0 -115.5 -51t-45.5 -121q0 -63 41 -104t104 -41q-12 -56 -48 -89.5z" />
    <glyph glyph-name="quotesinglbase" unicode="&#x201a;" horiz-adv-x="448" 
d="M153 -156.5q-36 -33.5 -87 -58.5l18 -59q92 8 160 56t102.5 119.5t34.5 145.5q0 86 -43 144.5t-121 58.5q-70 0 -115.5 -51t-45.5 -121q0 -63 41 -104t104 -41q-12 -56 -48 -89.5z" />
    <glyph glyph-name="quotedblleft" unicode="&#x201c;" horiz-adv-x="878" 
d="M302 1459q36 34 87 59l-18 59q-92 -8 -160 -56t-102.5 -120t-34.5 -146q0 -86 43 -144t121 -58q70 0 115.5 51t45.5 121q0 63 -41 104t-104 41q12 55 48 89zM712 1459q36 34 87 59l-18 59q-92 -8 -160 -56t-102.5 -120t-34.5 -146q0 -86 43 -144t121 -58q70 0 115.5 51
t45.5 121q0 63 -41 104t-104 41q12 55 48 89z" />
    <glyph glyph-name="quotedblright" unicode="&#x201d;" horiz-adv-x="880" 
d="M167 1160.5q-36 -33.5 -87 -58.5l18 -59q92 8 160 56t102.5 119.5t34.5 145.5q0 86 -43 144.5t-121 58.5q-70 0 -115.5 -51t-45.5 -121q0 -63 41 -104t104 -41q-12 -56 -48 -89.5zM579 1160.5q-36 -33.5 -87 -58.5l18 -59q92 8 160 56t102.5 119.5t34.5 145.5
q0 86 -43 144.5t-121 58.5q-70 0 -115.5 -51t-45.5 -121q0 -63 41 -104t104 -41q-12 -56 -48 -89.5z" />
    <glyph glyph-name="quotedblbase" unicode="&#x201e;" horiz-adv-x="880" 
d="M167 -156.5q-36 -33.5 -87 -58.5l18 -59q92 8 160 56t102.5 119.5t34.5 145.5q0 86 -43 144.5t-121 58.5q-70 0 -115.5 -51t-45.5 -121q0 -63 41 -104t104 -41q-12 -56 -48 -89.5zM579 -156.5q-36 -33.5 -87 -58.5l18 -59q92 8 160 56t102.5 119.5t34.5 145.5
q0 86 -43 144.5t-121 58.5q-70 0 -115.5 -51t-45.5 -121q0 -63 41 -104t104 -41q-12 -56 -48 -89.5z" />
    <glyph glyph-name="dagger" unicode="&#x2020;" horiz-adv-x="1089" 
d="M434.5 1272.5q-28.5 193.5 -39.5 263.5l13 12l241 21l45 -37q-10 -59 -38.5 -237.5t-28.5 -241.5h-164q0 26 -28.5 219.5zM804 1059.5q134 15.5 181 21.5l12 -12l21 -184l-37 -39q-35 4 -149.5 15t-194.5 16v165q33 2 167 17.5zM286 859q-134 -15 -182 -21l-12 12
l-20 184l37 39q35 -4 149.5 -15t194.5 -16v-165q-33 -3 -167 -18zM655.5 413q28.5 -429 38.5 -585l-12 -12l-242 -21l-45 37q10 147 39 559t29 475h164q0 -24 28.5 -453z" />
    <glyph glyph-name="daggerdbl" unicode="&#x2021;" horiz-adv-x="1089" 
d="M434.5 1272.5q-28.5 193.5 -39.5 263.5l13 12l241 21l45 -37q-10 -59 -38.5 -237.5t-28.5 -241.5h-164q0 26 -28.5 219.5zM804 1059.5q134 15.5 181 21.5l12 -12l21 -184l-37 -39q-35 4 -149.5 15t-194.5 16v165q33 2 167 17.5zM286 859q-134 -15 -182 -21l-12 12
l-20 184l37 39q35 -4 149.5 -15t194.5 -16v-165q-33 -3 -167 -18zM627 866h-164v-225h164v225zM778.5 654.5q108.5 15.5 145.5 21.5l12 -12l20 -185l-36 -39q-27 4 -115 15.5t-168 15.5v166q33 2 141.5 17.5zM311.5 453.5q-108.5 -15.5 -145.5 -21.5l-12 12l-21 185l37 39
q27 -4 115 -15.5t168 -15.5v-166q-33 -2 -141.5 -17.5zM655.5 176q28.5 -256 38.5 -348l-12 -12l-242 -21l-45 37q10 84 39 322.5t29 302.5h164q0 -25 28.5 -281z" />
    <glyph glyph-name="bullet" unicode="&#x2022;" horiz-adv-x="471" 
d="M92 669.5q-51 -57.5 -51 -151.5t51 -150.5t144 -56.5q92 0 143 56.5t51 150.5q0 98 -52 153.5t-142 55.5q-93 0 -144 -57.5z" />
    <glyph glyph-name="ellipsis" unicode="&#x2026;" horiz-adv-x="1296" 
d="M123 243q-41 -46 -41 -122t41 -121t115 -45t114.5 45t40.5 121q0 78 -42 123t-113 45q-74 0 -115 -46zM528 243q-41 -46 -41 -122t41 -121t115 -45t115 45t41 121q0 78 -42 123t-114 45q-74 0 -115 -46zM934 243q-41 -46 -41 -122t41 -121t115 -45t114.5 45t40.5 121
q0 78 -42 123t-113 45q-74 0 -115 -46z" />
    <glyph glyph-name="perthousand" unicode="&#x2030;" horiz-adv-x="2686" 
d="M342 -8l870 1483l144 -93l-869 -1482zM125 767q88 -114 268 -114t268.5 114t88.5 290t-88.5 288.5t-268.5 112.5t-268 -112.5t-88 -288.5t88 -290zM493.5 867.5q-28.5 -76.5 -100.5 -76.5q-127 0 -127 266t127 266q72 0 100.5 -77t28.5 -189q0 -113 -28.5 -189.5z
M1133.5 100.5q91.5 -116.5 281.5 -116.5t281.5 116.5t91.5 296.5q0 182 -91 299t-282 117q-190 0 -281.5 -116.5t-91.5 -299.5q0 -180 91.5 -296.5zM1981.5 100.5q91.5 -116.5 281.5 -116.5t281.5 116.5t91.5 296.5q0 182 -91 299t-282 117q-190 0 -281.5 -116.5
t-91.5 -299.5q0 -180 91.5 -296.5zM1415 125q-135 0 -135 272q0 274 135 275q135 0 135 -275q0 -272 -135 -272zM2263 125q-135 0 -135 272q0 274 135 275q135 0 135 -275q0 -272 -135 -272z" />
    <glyph glyph-name="guilsinglleft" unicode="&#x2039;" horiz-adv-x="552" 
d="M492 113l-138 -93l-313 476l313 475l138 -92l-216 -383z" />
    <glyph glyph-name="guilsinglright" unicode="&#x203a;" horiz-adv-x="552" 
d="M199 20l-138 93l215 383l-215 383l138 92l313 -475z" />
    <glyph glyph-name="rupee" unicode="&#x20a8;" horiz-adv-x="2134" 
d="M1049 1348.5q131 -115.5 131 -316.5q0 -127 -66.5 -226t-181.5 -163l168 -223q102 -137 235 -208t289 -71q55 0 93 23.5t38 64.5q0 43 -39 68t-129 61q-100 41 -164.5 78t-112.5 107.5t-48 181.5q0 152 102 228.5t281 76.5q172 0 327 -49l-24 -324l-138 11v88
q0 8 -9 33.5t-19 44.5q-74 33 -144 32q-68 0 -100.5 -22.5t-32.5 -55.5q0 -39 40 -63.5t130 -58.5q102 -39 172 -77t120 -108.5t50 -181.5q0 -154 -108.5 -236.5t-292.5 -82.5q-268 0 -483 90t-320 247l-166 250h-31q-35 0 -90 6v-178q0 -109 19 -237l133 -13l-10 -155
q-29 2 -140.5 6t-257.5 4q-59 0 -122.5 -4t-81.5 -6l-11 143l135 25q2 12 10.5 78.5t8.5 97.5v715q0 111 -19 227l-133 24l11 154q18 -2 82.5 -6t128.5 -4q43 0 113.5 4t103.5 6q127 10 204 10q218 0 349 -115.5zM526 1110v-371h49q143 0 209 72t66 217q0 135 -65.5 201.5
t-202.5 66.5l-43 -2q-13 -123 -13 -184z" />
    <glyph glyph-name="rupeeIndian" unicode="&#x20b9;" horiz-adv-x="1032" 
d="M999 870l-26 -61h-187q-6 -123 -94 -231.5t-250 -178.5q170 -182 449 -309l-156 -201q-180 104 -341 301t-240 408l143 143l115 -55q76 43 118 123h-446l-51 154l20 61h465q-27 51 -88 113h-346l-51 153l20 62h895l51 -154l-26 -61h-336q63 -57 94 -113h217z" />
    <glyph glyph-name="trademark" unicode="&#x2122;" horiz-adv-x="1128" 
d="M373 1362l-6 10q-12 6 -48 6h-28l-6 -43v-227q0 -57 6 -82l35 -4l-4 -61q-8 0 -43 2t-95 2q-29 0 -48 -2t-25 -2l-2 57l38 8q0 4 2.5 21.5t4.5 39.5v201q0 53 -7 90h-24q-33 0 -55 -6v-10l-7 -49l-55 2l6 121l13 14q10 0 34.5 -3t42.5 -3h232q18 0 41.5 3t34.5 3l14 -14
l6 -121l-53 -2zM1034 1446l2 -55l-39 -9v-32l21 -295l8 -33l39 -4l-2 -57q-8 0 -40 2t-87 2q-29 0 -48.5 -2t-25.5 -2l-2 55l41 6q2 18 2 53l-6 215l-111 -325h-84l-102 325l-14 -215l2 -53l41 -4l-2 -57q-6 0 -33 2t-80 2q-27 0 -44 -2t-24 -2l-2 55l41 6l9 33l18 295
l-4 32l-39 9l2 55l61 -6h127l15 -10l24 -103l60 -192l65 206l23 89l12 14h94z" />
    <glyph glyph-name="dottedCircle" unicode="&#x25cc;" horiz-adv-x="1320" 
d="M716.5 1175.5q22.5 -22.5 22.5 -57.5q0 -31 -23.5 -54.5t-56.5 -23.5t-56 23.5t-23 54.5q0 35 23.5 57.5t55.5 22.5q35 0 57.5 -22.5zM458.5 1107.5q22.5 -22.5 22.5 -56.5q0 -33 -22.5 -56.5t-57.5 -23.5q-33 0 -55 22q-25 25 -24 58q0 35 23.5 57t55.5 22
q35 0 57.5 -22.5zM974.5 1107.5q22.5 -22.5 22.5 -56.5q0 -33 -22.5 -56.5t-56.5 -23.5q-33 0 -56 22q-25 25 -24 58q0 35 23.5 57t56.5 22q34 0 56.5 -22.5zM270.5 919.5q22.5 -22.5 22.5 -57.5q0 -33 -22.5 -56.5t-57.5 -23.5t-57 23q-23 23 -23 57q0 35 23.5 57.5
t56.5 22.5q35 0 57.5 -22.5zM1165.5 919.5q22.5 -22.5 22.5 -57.5q0 -33 -22.5 -56.5t-57.5 -23.5q-33 0 -55 23q-25 25 -25 57q0 33 23.5 56.5t56.5 23.5q35 0 57.5 -22.5zM200.5 659.5q22.5 -22.5 22.5 -57.5q0 -33 -22.5 -56.5t-57.5 -23.5t-57 25q-23 23 -23 55
q0 35 24 57.5t56 22.5q35 0 57.5 -22.5zM1234.5 659.5q22.5 -22.5 22.5 -57.5q0 -33 -22.5 -56.5t-56.5 -23.5q-35 0 -58 25q-23 23 -22 55q0 35 23.5 57.5t56.5 22.5q34 0 56.5 -22.5zM270.5 401.5q22.5 -22.5 22.5 -57.5q0 -33 -22.5 -56.5t-57.5 -23.5t-57 23
q-23 27 -23 57q0 35 23.5 57.5t56.5 22.5q35 0 57.5 -22.5zM1165.5 401.5q22.5 -22.5 22.5 -57.5q0 -33 -22.5 -56.5t-57.5 -23.5q-33 0 -55 23q-25 29 -25 57q0 33 23.5 56.5t56.5 23.5q35 0 57.5 -22.5zM458.5 213q22.5 -23 22.5 -57q0 -35 -23.5 -58.5t-56.5 -23.5
t-55 26q-25 23 -24 56q0 35 23.5 57.5t55.5 22.5q35 0 57.5 -23zM974.5 213q22.5 -23 22.5 -57q0 -35 -23.5 -58.5t-55.5 -23.5q-33 0 -56 26q-25 23 -24 56q0 35 23.5 57.5t56.5 22.5q34 0 56.5 -23zM716.5 141.5q22.5 -22.5 22.5 -57.5q0 -33 -22.5 -56.5t-57.5 -23.5
t-57 25q-23 23 -22 55q0 35 23.5 57.5t55.5 22.5q35 0 57.5 -22.5z" />
    <glyph glyph-name="uniA78C" unicode="&#xa78b;" horiz-adv-x="1228" 
 />
    <glyph glyph-name="devaHeight" unicode="&#xa78c;" horiz-adv-x="1228" 
d="M350 12l-53 -53l-297 41l35 420v680h287v-682z" />
    <glyph glyph-name="zero-deva.comb" unicode="&#xa8e0;" horiz-adv-x="507" 
d="M360.5 1935q61.5 -37 99.5 -97t38 -126q0 -92 -65.5 -155.5t-158.5 -63.5q-66 0 -127 37t-99 97.5t-38 125.5q0 92 65.5 155.5t157.5 63.5q66 0 127.5 -37zM211 1783q-39 -54 -39 -112q0 -43 35 -43q57 0 96 56.5t39 109.5q0 43 -35 43q-57 0 -96 -54z" />
    <glyph glyph-name="one-deva.comb" unicode="&#xa8e1;" horiz-adv-x="460" 
d="M340 2017q55 -51 55 -149q0 -86 -41 -151.5t-121 -131.5q55 -20 111.5 -50t69.5 -36l37 -20l-140 -136l-104 91q-70 61 -105.5 86.5t-70.5 31.5v111q92 57 138 102t58.5 79t12.5 75q0 35 -29 35q-14 0 -22.5 -9.5t-8.5 -23.5q0 -33 29 -61l-57 -64q-70 37 -105 71t-37 70
q41 131 174 131q101 0 156 -51z" />
    <glyph glyph-name="two-deva.comb" unicode="&#xa8e2;" horiz-adv-x="598" 
d="M409 1997.5q83 -70.5 83 -180.5q0 -70 -38 -130.5t-112 -95.5q68 -51 246 -110l-121 -152q-100 51 -149.5 98.5t-106.5 141.5q-63 0 -108.5 41t-61.5 98l18 64q18 18 38 23t53 5q16 0 47 -8q8 -8 26 -49q61 6 94 36.5t33 69.5q0 35 -26.5 58.5t-71.5 23.5
q-35 0 -70 -21.5t-63 -56.5l-109 150q43 39 96.5 52t94.5 13q125 0 208 -70.5z" />
    <glyph glyph-name="three-deva.comb" unicode="&#xa8e3;" horiz-adv-x="528" 
d="M416.5 2026.5q62.5 -41.5 62.5 -134.5q0 -72 -49 -125q88 -53 88 -133q0 -70 -36 -105.5t-105 -47.5q39 -18 117 -51l-97 -132q-49 25 -95 66t-103 111q-76 12 -128.5 44.5t-60.5 90.5l15 30q33 27 71 27q27 0 78 -10q8 -12 47 -58q47 2 83 18.5t36 49.5q0 14 -8 21.5
t-31 15.5q-29 -8 -90 -16l-66 167q98 4 149.5 25t51.5 39q0 14 -11 17t-21.5 3h-12.5q-84 0 -207 -96l-78 176q59 25 116.5 37t98.5 12q123 0 185.5 -41.5z" />
    <glyph glyph-name="four-deva.comb" unicode="&#xa8e4;" horiz-adv-x="493" 
d="M427 2007q46 -57 46 -115q0 -35 -18.5 -67.5t-53.5 -69.5l-39 -33q94 -84 95 -155q0 -80 -52.5 -127t-132.5 -47t-140 53t-60 133q0 78 82 170l-23 18q-8 6 -41 33t-53.5 58.5t-26.5 68.5q10 53 34 83t77 58l90 -126q-25 -18 -25 -41q0 -35 50 -72l30 22q29 20 42.5 38
t13.5 36q0 72 -78 129l57 72q80 -62 126 -119zM241.5 1612q-14.5 -33 -14.5 -64q0 -18 9.5 -29.5t25.5 -11.5q18 0 29.5 22.5t11.5 49.5q0 61 -20 88q-27 -22 -41.5 -55z" />
    <glyph glyph-name="five-deva.comb" unicode="&#xa8e5;" horiz-adv-x="532" 
d="M196.5 1880q-20.5 -76 -20.5 -119q0 -70 53 -69q27 0 39 6l-6 26l76 80q55 0 94 -17.5t90 -62.5q-12 -80 -84 -127q55 -129 76 -225l-174 -39q0 45 -2 70q-10 117 -21 166q-20 -6 -57 -6q-117 0 -183.5 63.5t-66.5 198.5q0 51 22.5 128t57.5 120l152 -74
q-25 -43 -45.5 -119z" />
    <glyph glyph-name="six-deva.comb" unicode="&#xa8e6;" horiz-adv-x="552" 
d="M356 2058l74 -135l-27 -37q-72 20 -178 21q-20 0 -31.5 -8.5t-11.5 -18.5q0 -29 68 -39q68 18 153 14l72 -161q-37 4 -78 4q-82 0 -141 -21.5t-59 -74.5q0 -35 30 -35q20 0 46 12t38 27l11 28l86 37q49 -10 78.5 -34.5t56.5 -69.5q-53 -61 -99 -84q27 -47 97 -103
l-144 -75q-66 92 -82 143q-16 2 -29.5 1t-23.5 -1q-154 0 -203 53t-49 137q0 41 29 82t78 72q-106 53 -107 143q0 80 64.5 108t156.5 28q78 -1 125 -13z" />
    <glyph glyph-name="seven-deva.comb" unicode="&#xa8e7;" horiz-adv-x="585" 
d="M191.5 1863q-23.5 -83 -23.5 -145q0 -104 92 -104q70 0 120 76.5t50 171.5q0 25 -10 37t-25 12q-12 0 -23.5 -10.5t-11.5 -28.5q0 -49 43 -78l-55 -49q-18 18 -39 33q-31 25 -49 45t-33 53q20 74 60.5 108.5t101.5 34.5q86 0 136 -74.5t50 -175.5q0 -125 -79.5 -201.5
t-202.5 -76.5q-137 0 -210 64.5t-73 179.5q0 170 94 333l150 -69q-39 -53 -62.5 -136z" />
    <glyph glyph-name="eight-deva.comb" unicode="&#xa8e8;" horiz-adv-x="475" 
d="M231.5 1834q-55.5 -91 -55.5 -153q0 -35 13.5 -52t35.5 -17q29 0 64 27.5t63 74.5l113 -127q-47 -53 -108.5 -75.5t-120.5 -22.5q-53 0 -105.5 26.5t-86.5 76.5t-34 114q0 94 56.5 199.5t140.5 191.5l137 -115q-57 -57 -112.5 -148z" />
    <glyph glyph-name="nine-deva.comb" unicode="&#xa8e9;" horiz-adv-x="491" 
d="M313.5 2043q53.5 -28 85 -74t31.5 -95q0 -41 -20.5 -84t-59.5 -100q61 -61 95 -112.5t34 -96.5q0 -82 -123 -146l-90 127q35 29 35 62q0 37 -38 70.5t-101 72.5q-23 12 -37 25q-63 45 -92 98t-29 106q0 78 54.5 126.5t138.5 48.5q63 0 116.5 -28zM190.5 1931.5
q-8.5 -18.5 -8.5 -49.5q0 -27 8.5 -52.5t20.5 -35.5q39 66 39 111q0 20 -9.5 32.5t-23.5 12.5q-18 0 -26.5 -18.5z" />
    <glyph glyph-name="a-deva.comb" unicode="&#xa8ea;" horiz-adv-x="978" 
d="M435.5 2027.5q64.5 -55.5 64.5 -151.5q0 -43 -18.5 -82t-53.5 -68q80 -18 131 -18q61 0 123 31v190h-102l-35 92l10 52h379l35 -93l-17 -51h-118v-350l20 -211l-39 -37l-160 23l25 233q-43 -18 -86 -18q-14 0 -55 4q-8 -82 -80 -131t-156 -49t-155.5 29.5t-137.5 97.5
l51 65q96 -74 185 -74q53 0 90 30t37 81q0 37 -41 53q-51 -20 -148 -30l-30 106l22 64q98 4 144.5 32.5t46.5 65.5q0 25 -12.5 33t-35.5 8q-49 0 -98 -24.5t-88 -71.5l-57 30l-39 140q57 23 119.5 39t95.5 16q119 0 183.5 -55.5z" />
    <glyph glyph-name="u-deva.comb" unicode="&#xa8eb;" horiz-adv-x="641" 
d="M614 1929h-139q29 -39 29 -80q0 -57 -51 -112q55 -33 90 -72t35 -92q0 -92 -67 -136t-175 -44q-80 0 -148.5 29.5t-134.5 97.5l51 65q96 -74 185 -74q49 0 85 30t36 81q0 49 -45 61q-80 -31 -179 -45l-30 105l22 63q80 4 134.5 32t54.5 67q0 16 -9 24h-311l-37 92l10 52
h576l35 -93z" />
    <glyph glyph-name="ka-deva.comb" unicode="&#xa8ec;" horiz-adv-x="1024" 
d="M1004 1929h-359v-96q45 27 111 27q100 0 177 -55.5t77 -153.5q0 -66 -41 -135.5t-107 -114.5l-112 80v63q47 23 75.5 56.5t28.5 64.5q0 27 -22.5 43t-59.5 16q-39 0 -69.5 -20.5t-57.5 -65.5v-59l21 -211l-39 -37l-160 23l16 145q-66 -39 -164 -39q-109 0 -177 58.5
t-68 152.5q0 203 209 203q49 0 99 -19.5t112 -60.5v135h-447l-37 92l10 52h959l35 -93zM261 1717.5q-38 -23.5 -38 -72.5q0 -27 17.5 -44.5t46.5 -17.5q57 0 105 35t83 100q-51 23 -119 23q-57 0 -95 -23.5z" />
    <glyph glyph-name="na-deva.comb" unicode="&#xa8ed;" horiz-adv-x="817" 
d="M791 1929h-119v-350l20 -211l-39 -37l-161 23l26 258v22q-61 -2 -180 -22q-10 -39 -24.5 -73t-22.5 -42q-74 0 -124 34t-75.5 83t-25.5 94l34 45q74 12 193 12q61 0 180 -4q16 -2 45 -2v170h-471l-37 92l10 52h750l37 -93z" />
    <glyph glyph-name="pa-deva.comb" unicode="&#xa8ee;" horiz-adv-x="786" 
d="M760 1929h-119v-350l21 -211l-39 -37l-160 23l22 188q-74 -35 -172 -35q-39 0 -89 35t-85 88t-35 103v196h-57l-37 92l10 52h719l37 -93zM264 1683q0 -29 12.5 -42t47.5 -13q70 0 103.5 37t61.5 100v164h-225v-246z" />
    <glyph glyph-name="ra-deva.comb" unicode="&#xa8ef;" horiz-adv-x="524" 
d="M498 1929h-150q51 -70 51 -139q0 -154 -166 -227q115 -82 240 -144l-108 -123q-94 57 -179.5 164t-130.5 223l88 84l47 -24q51 31 52 88q0 43 -25 98h-170l-37 92l10 52h457l37 -93z" />
    <glyph glyph-name="spacingCandraBindu-deva" unicode="&#xa8f0;" horiz-adv-x="1052" 
d="M385 967q78 0 130 36.5t83 114.5l227 -80q-51 -123 -157.5 -190.5t-233.5 -67.5t-234.5 68.5t-158.5 193.5l129 80q61 -155 215 -155zM450.5 1294.5q30.5 -22.5 54 -61.5t23.5 -88q0 -14 -20.5 -41t-56 -48.5t-85.5 -21.5q-14 0 -43.5 23t-53 60.5t-23.5 86.5q0 14 19 42
t55 49.5t85 21.5q15 0 45.5 -22.5z" />
    <glyph glyph-name="avagraha-deva.comb" unicode="&#xa8f1;" horiz-adv-x="550" 
d="M479 1929h-241q-27 0 -27 -16q0 -23 27.5 -42.5t89.5 -53.5q100 -59 156.5 -112.5t56.5 -131.5q0 -90 -72 -135t-166 -45q-84 0 -155.5 29.5t-137.5 97.5l51 65q96 -74 185 -74q53 0 90 25t37 66q0 31 -27 54t-92 62q-90 53 -139 102.5t-49 131.5q0 51 45 86t116 35h226
l36 -93z" />
    <glyph glyph-name="gapfiller-deva" unicode="&#xa8f2;" horiz-adv-x="866" 
d="M598 580q-150 -20 -227.5 -77t-77.5 -138q0 -94 84 -140.5t209 -46.5q254 0 395 112.5t141 342.5q0 74 -28.5 113.5t-77.5 39.5q-43 0 -63.5 -31.5t-20.5 -82.5q0 -33 15.5 -69t43.5 -66l-92 -95q-88 43 -150.5 131.5t-76.5 180.5q18 90 88.5 149.5t169.5 59.5
q205 0 322.5 -112t117.5 -304q0 -266 -184.5 -406.5t-517.5 -140.5q-178 0 -320.5 54.5t-224.5 151.5t-82 220q0 176 138 280.5t388 133.5l72 -197z" />
    <glyph glyph-name="candraBindu_halant-deva" unicode="&#xa8f3;" 
d="M178 579.5q45 8.5 76 8.5q92 0 180 -49.5t164.5 -122t193.5 -199.5l-102 -80q-104 106 -204.5 174t-174.5 68q-39 0 -81 -12.5t-50 -14.5l-82 143l8 66q27 10 72 18.5zM407 967q78 0 130 36.5t83 114.5l227 -80q-51 -123 -157.5 -190.5t-233.5 -67.5t-234.5 68.5
t-158.5 193.5l129 80q61 -155 215 -155zM473.5 1294.5q30.5 -22.5 54 -61.5t23.5 -88q0 -14 -20.5 -41t-56 -48.5t-85.5 -21.5q-14 0 -43.5 23t-53 60.5t-23.5 86.5q0 14 19 42t55 49.5t85 21.5q15 0 45.5 -22.5z" />
    <glyph glyph-name="vi-deva.comb" unicode="&#xa8f4;" horiz-adv-x="888" 
d="M651.5 2296.5q145.5 -62.5 329.5 -166.5l-37 -29l-29 6q-104 49 -245.5 85t-229.5 36q-61 0 -103 -33.5t-42 -85.5l-2 -36h762l35 -93l-17 -51h-119v-350l21 -211l-39 -37l-160 23l15 137q-45 -25 -111 -25q-100 0 -180 54.5t-80 150.5q0 100 58.5 151.5t168.5 51.5
q76 0 156 -43v98h-457v-350l21 -211l-39 -37l-160 23l27 258v317h-101l-37 92l11 52h149q-33 76 -33 131q0 70 47.5 112.5t135.5 42.5q139 0 284.5 -62.5zM571 1655q0 -37 21.5 -54.5t58.5 -17.5q41 0 80 24.5t72 71.5v41q-61 14 -111 15q-121 0 -121 -80z" />
    <glyph glyph-name="two_candraBindu-deva" unicode="&#xa8f5;" horiz-adv-x="815" 
d="M411.5 1294.5q30.5 -22.5 54 -61.5t23.5 -88q0 -14 -20 -41t-56 -48.5t-85 -21.5q-14 0 -44 22.5t-53.5 60.5t-23.5 87q0 14 19.5 42t55 49.5t85.5 21.5q14 0 44.5 -22.5zM346 967q78 0 130 36.5t83 114.5l227 -80q-51 -123 -157.5 -190.5t-233.5 -67.5t-234.5 69
t-158.5 193l129 80q61 -155 215 -155zM551 695q92 -50 142 -136t50 -192q0 -57 -38.5 -150.5t-161.5 -146.5q84 -59 336 -148l-170 -211q-100 51 -156.5 92t-99.5 93.5t-107 150.5q-92 4 -151.5 53.5t-83.5 120.5l26 88q25 27 52.5 34t74.5 7q29 0 66 -12q20 -20 57 -62
q78 20 120 65.5t42 94.5t-38 83t-103 34q-49 0 -97.5 -30.5t-89.5 -78.5l-151 209q61 55 135 73.5t133 18.5q121 0 213 -50z" />
    <glyph glyph-name="three_candraBindu-deva" unicode="&#xa8f6;" horiz-adv-x="829" 
d="M428 1294.5q31 -22.5 54.5 -61.5t23.5 -88q0 -14 -20.5 -41t-56.5 -48.5t-85 -21.5q-14 0 -44 22.5t-53.5 60.5t-23.5 87q0 14 19.5 42t55.5 49.5t85 21.5q14 0 45 -22.5zM362 967q78 0 130.5 36.5t82.5 114.5l228 -80q-51 -123 -157.5 -190.5t-233.5 -67.5t-234.5 69
t-159.5 193l129 80q61 -155 215 -155zM617 685q85 -58 85 -187q0 -98 -65 -170q121 -78 121 -191q0 -98 -48 -148t-139 -67q76 -43 144 -74l-133 -184q-66 35 -127.5 93.5t-137.5 158.5q-102 16 -172.5 60t-83.5 124l21 45q43 37 96 37q49 0 107 -16l63 -78q61 4 109.5 25.5
t48.5 66.5q0 41 -33 56q-57 -16 -133 -27l-90 184q90 6 150.5 32t89 56.5t28.5 53.5q0 20 -14.5 24t-26.5 4h-16q-66 0 -133.5 -25.5t-151.5 -68.5l-106 205q82 33 161.5 51t130.5 18q170 0 255 -58z" />
    <glyph glyph-name="avagraha_candraBindu-deva" unicode="&#xa8f7;" horiz-adv-x="784" 
d="M430 1294.5q31 -22.5 54.5 -61.5t23.5 -88q0 -14 -20.5 -41t-56.5 -48.5t-85 -21.5q-14 0 -44 22.5t-53.5 60.5t-23.5 87q0 14 19.5 42t55.5 49.5t85 21.5q14 0 45 -22.5zM365 967q78 0 130 36.5t83 114.5l227 -80q-51 -123 -157.5 -190.5t-233.5 -67.5t-234.5 69
t-159.5 193l130 80q61 -155 215 -155zM664 543h-340q-37 0 -37 -23q0 -35 43 -70.5t137 -93.5q133 -82 207 -151.5t74 -159.5q0 -123 -101.5 -187.5t-230.5 -64.5q-117 0 -217.5 42t-192.5 136l72 92q133 -104 258 -104q72 0 124 38t52 91q0 37 -37 72t-113 84
q-12 8 -98 65.5t-134 125t-48 140.5q0 72 63.5 121t163.5 49h318l51 -131z" />
    <glyph glyph-name="headstroke-deva" unicode="&#xa8f8;" horiz-adv-x="1443" 
d="M1004 1098h-889l-52 164l21 61h889l51 -164z" />
    <glyph glyph-name="pushpika-deva" unicode="&#xa8f9;" horiz-adv-x="1417" 
d="M1248 851q118 -112 118 -304q0 -266 -184.5 -406.5t-517.5 -140.5q-178 0 -320.5 54.5t-224.5 151.5t-82 220q0 199 182 311q-174 90 -174 240q0 141 89 230t241 104l55 -197q-63 -10 -100 -53t-37 -100q0 -84 72 -160q84 27 198 39l72 -197l-41 -63q-150 -20 -227.5 -77
t-77.5 -138q0 -94 84 -140.5t209 -46.5q254 0 395 112.5t141 342.5q0 74 -28.5 113.5t-77.5 39.5q-43 0 -63.5 -31.5t-20.5 -82.5q0 -33 15 -69t44 -66l-92 -95q-88 43 -150.5 131.5t-76.5 180.5q18 90 88.5 149.5t169.5 59.5q204 0 322 -112z" />
    <glyph glyph-name="chdeva" unicode="&#xa8fa;" horiz-adv-x="968" 
d="M1214 969q104 -41 160 -123t56 -199q0 -236 -232 -338v-567l29 -287l-56 -49l-237 33l14 135q-86 -27 -200 -27q-121 0 -218.5 39t-154 110t-56.5 159q0 145 96.5 218.5t280.5 73.5q137 0 277 -75v176q-96 -12 -211 -12q-160 0 -290 46t-206 123.5t-76 172.5
q0 182 164 264q-154 70 -153 182q0 39 10 76h-129l-51 149l20 64h1473l51 -152l-21 -61h-340v-131zM483 1100q-41 -31 -41 -76q0 -66 64 -133q84 18 178 24l70 -167l-41 -62q-133 -12 -206 -55t-73 -94q0 -72 69.5 -103t176.5 -31q250 0 378 76t128 260q0 53 -22.5 75
t-65.5 22q-37 0 -54.5 -21.5t-17.5 -54.5q0 -37 51 -88l-88 -90q-86 29 -146.5 102.5t-70.5 159.5q18 61 76.5 106t140.5 54v96h-506zM845 -255q73 32 128 91v92q-121 45 -187 45q-111 0 -175 -37.5t-64 -107.5q0 -59 41 -87t110 -28q74 0 147 32z" />
    <glyph glyph-name="caret-deva" unicode="&#xa8fb;" horiz-adv-x="837" 
d="M-61 1724l188 78l266 -356l266 356l187 -78l-338 -413l-232 -2z" />
    <glyph glyph-name="la-deva.loclMAR" horiz-adv-x="1533" 
d="M1182 924q131 -31 205.5 -124t74.5 -233q0 -154 -83 -309.5t-246 -286.5l-168 133v82q162 137 243.5 239.5t81.5 205.5q0 51 -46 79.5t-124 28.5q-125 -12 -179 -107t-54 -226l-238 61q0 152 43 252q-68 23 -119 22q-129 0 -185 -65.5t-56 -161.5q0 -109 76.5 -214
t230.5 -179l-70 -125q-213 102 -344 248.5t-131 330.5q0 182 97.5 272.5t283.5 90.5q145 0 297 -98q70 66 176 88v170h-954l-51 153l20 62h1581l51 -154l-26 -61h-387v-174z" />
    <glyph glyph-name="sha-deva.loclMAR" horiz-adv-x="1554" 
d="M1395 377l28 -395l-57 -52l-240 39l35 410v719h-538v-129q117 -51 183 -153.5t66 -233.5q0 -96 -59 -195.5t-158 -161.5q145 -111 375 -198l-143 -211q-242 137 -398 348q-29 -4 -49 -4q-119 0 -219 66.5t-133 156.5l31 102q37 29 78 39.5t92 10.5q45 0 108 -19l66 -86
q94 25 142 86.5t48 138.5q0 74 -46 111t-126 37q-115 0 -252 -137l-155 213q70 57 153.5 93t161.5 40v86h-389l-51 153l20 62h1626l52 -154l-27 -61h-225v-721z" />
    <glyph glyph-name="jha-deva.loclNEP" horiz-adv-x="1949" 
d="M1305 889q86 29 168 29q176 0 281.5 -94.5t105.5 -256.5q0 -129 -69 -260t-206 -241l-168 133v82q123 92 186.5 164.5t63.5 144.5q0 61 -35 95t-94 34q-104 0 -233 -135v-207l28 -395l-57 -52l-240 39l35 410v108q-233 -10 -420 -30q-41 -137 -92 -213q-109 0 -183.5 57
t-112.5 140t-38 159l51 68q92 16 203 20q66 205 66 316q0 63 -30 99t-75 36q-33 0 -57.5 -21.5t-24.5 -60.5q0 -37 17.5 -66.5t48.5 -62.5l-92 -94q-84 35 -152.5 120.5t-77.5 169.5q31 90 102.5 147.5t168.5 57.5q119 0 201.5 -71.5t124.5 -166t42 -155.5q0 -106 -28 -244
q121 0 358 -8v414h-203l-51 153l21 62h1112l51 -154l-21 -61h-675v-209z" />
    <glyph glyph-name="zha-deva.loclNEP" horiz-adv-x="1263" 
d="M1335 -197l-176 -184q-209 170 -332 410q-106 2 -198 64.5t-129 158.5l30 92q66 51 144 51q41 0 114 -20l56 -80q106 29 151 72t45 112q0 61 -62.5 97t-166.5 36q-59 0 -106.5 -21.5t-100.5 -72.5q-66 -70 -157 -106.5t-197 -36.5q-57 0 -123 18.5t-121 50.5l103 228
q113 -88 210 -88q82 0 127.5 37.5t45.5 109.5q0 74 -41 171t-113 196h-373l-51 153l20 62h1362l52 -154l-21 -61h-688q72 -172 72 -281q49 6 77 6q125 0 225.5 -50t158 -139t57.5 -200q0 -113 -61.5 -206t-168.5 -138q158 -178 336 -287z" />
    <glyph glyph-name="k_ka-deva" horiz-adv-x="1861" 
d="M1075 895q133 96 268 96q178 0 283 -94t105 -256q0 -125 -66 -244q66 -84 66 -213q0 -119 -60.5 -232.5t-173.5 -207.5l-168 133v82q111 80 160 138.5t49 109.5q0 59 -35 94t-94 35q-82 0 -173 -62.5t-151 -154.5l19 -408l-57 -51l-240 39l8 158q-111 -55 -256 -56
q-123 0 -221 50.5t-153.5 138.5t-55.5 196q0 135 94 224q-94 104 -94 247q0 158 103.5 250t277.5 92q168 0 332 -104v203h-852l-51 153l20 62h1913l51 -154l-20 -61h-828v-203zM431.5 747.5q-64.5 -55.5 -64.5 -151.5q0 -61 41 -100t104 -39q96 0 180 57t150 168v74
q-141 47 -234 47q-112 0 -176.5 -55.5zM1226.5 724q-96.5 -69 -151.5 -169v-117q133 96 268 97q63 0 119 -13q76 78 76 142q0 59 -35 94t-94 35q-86 0 -182.5 -69zM686 39q82 53 145 158l9 143q-121 -68 -281 -68q-68 0 -119 15q-35 -27 -55 -67t-20 -83q0 -66 42 -108.5
t105 -42.5q92 0 174 53z" />
    <glyph glyph-name="k_ta-deva" horiz-adv-x="1908" 
d="M1159 848q141 70 273 70q176 0 281.5 -94.5t105.5 -256.5q0 -129 -69 -260t-206 -241l-168 133v82q123 92 186.5 164.5t63.5 144.5q0 61 -35 95t-94 34q-96 0 -183 -57.5t-155 -163.5v-121l29 -395l-58 -52l-239 39l35 410v289h-252q-102 0 -153.5 -49.5t-51.5 -131.5
q0 -90 56.5 -189t154.5 -177l-94 -107q-172 131 -259 273.5t-87 259.5q0 68 18 123h-154l-45 145l31 51h836v232h-936l-51 153l20 62h1960l51 -154l-20 -61h-791v-250z" />
    <glyph glyph-name="k_ra-deva" horiz-adv-x="1777" 
d="M1053 854q127 63 247 64q176 0 282 -94.5t106 -256.5q0 -129 -69 -260t-206 -241l-168 133v82q123 92 186.5 164.5t63.5 144.5q0 61 -35 95t-94 34q-74 0 -155 -63.5t-158 -170.5v-108l28 -395l-57 -52l-240 39l25 295l-401 -336l-160 160l172 111q-145 29 -239.5 129
t-94.5 247q0 182 97.5 272.5t283.5 90.5q166 0 352 -121v281h-819l-51 153l20 62h1809l51 -154l-21 -61h-755v-244zM469 375q96 0 187.5 66.5t162.5 215.5v35l-2 -4q-164 53 -252 53q-129 0 -185 -65.5t-56 -161.5q0 -139 145 -139z" />
    <glyph glyph-name="k_la-deva" horiz-adv-x="2975" 
d="M2775 377l29 -395l-58 -52l-239 39l35 410v344q-53 18 -88 18q-141 0 -204 -97t-63 -238l-237 61q0 145 41 250q-72 25 -127 24q-129 0 -185.5 -65.5t-56.5 -161.5q0 -104 77 -206.5t230 -170.5l-69 -125q-213 98 -344.5 241.5t-131.5 321.5q0 72 17 134q-27 10 -55 10
q-74 0 -155 -63.5t-159 -170.5v-108l29 -395l-57 -52l-240 39l24 295q-125 -74 -290 -74q-115 0 -213.5 47.5t-157.5 134.5t-59 203q0 180 99 271.5t282 91.5q170 0 350 -119v279h-819l-52 153l21 62h3027l51 -154l-27 -61h-225v-721zM2542 889v209h-1510v-244
q127 63 248 64q127 0 223 -52q96 72 262 72q147 0 303 -102q100 102 287 102q93 0 187 -49zM637 440.5q90 65.5 162 212.5v35q-164 53 -252 53q-129 0 -185.5 -65.5t-56.5 -161.5q0 -139 146 -139q96 0 186 65.5z" />
    <glyph glyph-name="k_va-deva" horiz-adv-x="1818" 
d="M1075 895q133 96 268 96q178 0 283 -94t105 -256q0 -131 -71 -257t-202 -228l-168 133v82q131 96 189.5 163.5t58.5 129.5q0 59 -35 94t-94 35q-86 0 -182.5 -69t-151.5 -169v-178l29 -666l-57 -51l-240 39l8 158q-111 -55 -256 -56q-123 0 -221 50.5t-153.5 138.5
t-55.5 196q0 135 94 224q-94 104 -94 247q0 158 103.5 250t277.5 92q168 0 332 -104v203h-852l-51 153l20 62h1870l51 -154l-20 -61h-785v-203zM431.5 747.5q-64.5 -55.5 -64.5 -151.5q0 -61 41 -100t104 -39q96 0 180 57t150 168v74q-141 47 -234 47q-112 0 -176.5 -55.5z
M686 39q82 53 145 158l9 143q-121 -68 -281 -68q-68 0 -119 15q-35 -27 -55 -67t-20 -83q0 -66 42 -108.5t105 -42.5q92 0 174 53z" />
    <glyph glyph-name="k_ssa-deva" horiz-adv-x="1556" 
d="M1356 377l28 -395l-57 -52l-240 39l35 410v203q-78 -4 -112 -4q-240 0 -465 96l-15 -15l-41 -36q-92 -82 -136 -139.5t-44 -125.5q0 -47 32 -73.5t83 -26.5q72 0 139 39q-12 66 -18 125l90 94q96 0 184 -44t135 -114q-68 -137 -184 -211q33 -66 82 -122t137 -142
l-221 -125q-96 150 -154 328q-59 -14 -141 -14q-102 0 -189 45t-139.5 123.5t-52.5 179.5q0 94 46 185t136 165l45 37q-70 57 -108.5 121.5t-38.5 128.5q0 121 71.5 188.5t196.5 67.5q76 0 144.5 -38t109.5 -101.5t41 -139.5q0 -123 -80 -237q121 -29 289 -29q70 0 178 10
v320h-202l-52 153l21 62h667l52 -154l-27 -61h-225v-721zM436 907q90 90 90 166q0 29 -14 45.5t-41 16.5q-39 0 -61.5 -35t-22.5 -80q0 -60 49 -113z" />
    <glyph glyph-name="k_ss_ra-deva" horiz-adv-x="1638" 
d="M1438 377l28 -395l-57 -52l-215 39l6 215l-180 -180l-133 129q180 147 317 270v187q-100 -12 -194 -12q-240 0 -465 96l-15 -15l-41 -36q-92 -82 -136 -139.5t-44 -125.5q0 -47 32 -73.5t83 -26.5q72 0 139 39q-12 66 -18 125l90 94q96 0 184 -44t135 -114
q-68 -137 -184 -211q33 -66 82 -122t137 -142l-221 -125q-96 150 -154 328q-59 -14 -141 -14q-102 0 -189 45t-139.5 123.5t-52.5 179.5q0 94 46 185t136 165l45 37q-70 57 -108.5 121.5t-38.5 128.5q0 121 71.5 188.5t196.5 67.5q76 0 144.5 -38t109.5 -101.5t41 -139.5
q0 -123 -80 -237q121 -29 289 -29q66 0 258 16l2 -16v330h-203l-51 153l21 62h667l52 -154l-27 -61h-225v-721zM436 907q90 90 90 166q0 29 -14 45.5t-41 16.5q-39 0 -61.5 -35t-22.5 -80q0 -60 49 -113z" />
    <glyph glyph-name="kh_ra-deva" horiz-adv-x="1820" 
d="M1640 387l29 -405l-57 -52l-240 39l25 295l-402 -334l-141 160q90 53 201 135q-145 31 -244.5 132.5t-99.5 232.5q0 154 95 232.5t275 78.5q162 0 326 -110v307h-844q84 -131 84 -262q0 -145 -75.5 -255t-225.5 -180q166 -178 451 -311l-156 -201q-180 104 -341 301
t-241 408l144 143l104 -51q53 39 82 96.5t29 128.5q0 82 -41 183h-387l-51 153l20 62h1862l51 -154l-27 -61h-205v-711zM989 439q41 -40 115 -40q84 0 160.5 49.5t140.5 143.5l2 -4v47q-152 70 -244 70q-100 0 -157.5 -40t-57.5 -116q0 -70 41 -110z" />
    <glyph glyph-name="g_na-deva" horiz-adv-x="1280" 
d="M1100 377l28 -395l-57 -52l-240 39l27 322q-141 -61 -326 -160q4 -49 5 -72q0 -57 -11 -104q-45 -16 -90 -16q-80 0 -157.5 46t-135.5 132l21 69q55 35 121.5 66t212.5 88q256 98 368 133v625h-381q2 -33 2 -105q0 -356 -67 -577q-94 0 -175 38t-129 104.5t-50 146.5
l51 67q63 14 143 19q10 51 10 133q0 88 -12 174h-258l-51 153l20 62h1311l51 -154l-26 -61h-205v-721z" />
    <glyph glyph-name="g_ra-deva" horiz-adv-x="1280" 
d="M1120 377l29 -395l-57 -52l-240 39l20 252l-350 -293l-160 160q248 152 525 373v637h-406l2 -62q4 -82 4 -145q0 -385 -67 -643q-94 0 -174 50t-129 132t-51 172l51 68q57 14 143 18q10 45 10 133q0 137 -32 277h-238l-51 153l20 62h1352l51 -154l-26 -61h-226v-721z" />
    <glyph glyph-name="g_la-deva" horiz-adv-x="1314" 
d="M1126 143q63 -41 98.5 -105.5t35.5 -148.5q0 -125 -71 -257t-202 -230l-164 117v86q37 33 56 47q102 88 151 144.5t49 123.5q0 47 -31.5 68.5t-84.5 21.5q-106 -14 -146.5 -90t-40.5 -170l-221 55q0 111 27 189q-49 18 -95 18q-106 0 -147 -51t-41 -117q0 -39 25.5 -94
t81 -111.5t143.5 -95.5l-60 -112q-182 78 -296.5 195.5t-114.5 273.5q0 154 83 228.5t240 74.5q127 0 258 -82q84 78 234 82v895h-383q4 -82 4 -146q0 -385 -68 -643q-94 0 -173.5 50.5t-129 132t-51.5 172.5l51 67q55 14 144 19q10 45 10 133q0 115 -21 215h-286l-51 153
l20 62h1366l51 -154l-26 -61h-224v-955z" />
    <glyph glyph-name="gh_ra-deva" horiz-adv-x="1402" 
d="M1202 377l29 -395l-57 -52l-240 39l24 283l-18 -12l-422 -353l-160 160l131 84q-172 20 -273 110.5t-101 225.5q0 176 166 278q-158 92 -158 232q0 68 20 121h-153l-51 153l20 62h1444l51 -154l-27 -61h-225v-721zM442 1098q-35 -27 -53 -63t-18 -74q0 -80 61 -150
q98 29 209 41l72 -182l-41 -64q-305 -39 -305 -200q0 -47 35.5 -75t95.5 -28q154 0 280.5 94.5t190.5 245.5v455h-527z" />
    <glyph glyph-name="gh_la-deva" horiz-adv-x="3145" 
d="M2945 377l29 -395l-58 -52l-239 39l35 410v344q-53 18 -89 18q-141 0 -203.5 -97t-62.5 -238l-237 61q0 145 41 250q-72 25 -127 24q-129 0 -185.5 -65.5t-56.5 -161.5q0 -104 77 -206.5t230 -170.5l-69 -125q-213 98 -344.5 241.5t-131.5 321.5q0 182 97.5 272.5
t283.5 90.5q147 0 303 -102q100 102 287 102q92 0 187 -49v209h-2272q-35 -27 -53 -63t-18 -74q0 -76 57 -146q104 33 213 45l72 -196l-41 -64q-150 -20 -227.5 -76.5t-77.5 -138.5q0 -94 83.5 -140t208.5 -46q254 0 395.5 112.5t141.5 341.5q0 74 -28.5 114t-78.5 40
q-43 0 -63 -32t-20 -83q0 -33 15 -68.5t44 -66.5l-92 -94q-88 43 -150.5 131t-77.5 180q18 90 89 149.5t169 59.5q205 0 323 -111.5t118 -304.5q0 -266 -184.5 -406.5t-518.5 -140.5q-178 0 -320.5 54.5t-224 152t-81.5 219.5q0 190 163 299q-156 90 -155 232q0 68 20 121
h-151l-51 153l20 62h3187l51 -154l-27 -61h-225v-721z" />
    <glyph glyph-name="ng_ka-deva" horiz-adv-x="1333" 
d="M1374 1098h-434v-254l-57 -60h-367q-68 0 -107.5 -11t-39.5 -36q0 -14 26.5 -37.5t59.5 -23.5q41 0 176 24q139 25 180 25q68 0 139.5 -30.5t117.5 -84t46 -116.5q0 -104 -81 -185.5t-273 -91.5v-139q88 39 172 39q133 0 214 -74t81 -197q0 -88 -51.5 -183t-147.5 -167
l-135 103v71q90 72 131 116t41 95q0 37 -23.5 56.5t-62.5 19.5q-55 0 -112.5 -44t-106.5 -118v-43l22 -303l-49 -41l-182 29l12 182q-74 -37 -192 -37q-88 0 -164 34t-122 97.5t-46 151.5q0 133 78 200.5t213 67.5q113 0 243 -82v176q-121 20 -245.5 71.5t-237.5 129.5
l70 96q113 -61 191.5 -89.5t144 -36t163.5 -7.5q90 0 166 30t76 64q0 27 -16.5 33t-59.5 6q-35 0 -153 -24q-111 -27 -162 -27q-70 0 -157 57.5t-149.5 133t-62.5 118.5q0 117 79 160t261 43h226v113h-717l-51 153l20 62h1384l52 -154zM1206.5 960.5q30.5 -22.5 54 -61.5
t23.5 -88q0 -14 -20.5 -41t-56.5 -48.5t-85 -21.5q-14 0 -43.5 22.5t-53.5 60.5t-24 87q0 14 19.5 42t55.5 49.5t85 21.5q15 0 45.5 -22.5zM468 -226q62 44 105 130v35q-88 33 -157 32q-88 0 -131 -43t-43 -102q0 -45 26.5 -70.5t75.5 -25.5q62 0 124 44z" />
    <glyph glyph-name="ng_k_ssa-deva" horiz-adv-x="1318" 
d="M1350 1098h-418v-254l-58 -60h-366q-68 0 -108 -11t-40 -36q0 -14 27 -37.5t59 -23.5q41 0 177 24q139 25 180 25q68 0 139.5 -30.5t117.5 -84t46 -116.5q0 -59 -26.5 -114.5t-86.5 -94.5v-555l25 -279l-45 -43l-185 29l31 317v99q-37 -6 -88 -7q-78 0 -166 16.5
t-166 47.5l-24 -21q-66 -53 -91.5 -85.5t-25.5 -69.5q0 -20 13.5 -35.5t39.5 -15.5q37 0 74 16l-6 74l55 55q72 0 126 -27.5t106 -91.5q-47 -90 -129 -131q23 -41 54.5 -78t82.5 -88l-158 -98q-57 90 -98 229q-49 -4 -78 -4q-70 0 -126 34t-87 90t-31 118q0 47 23.5 96
t66.5 88l56 47q-74 78 -74 174q0 49 24.5 85t67.5 55q-88 41 -178 102l70 96q113 -61 191.5 -89.5t144 -36t163.5 -7.5q90 0 166 30t76 64q0 27 -16.5 33t-59.5 6q-35 0 -153 -24q-111 -27 -162 -27q-70 0 -157 57.5t-149.5 133t-62.5 118.5q0 117 79 160t261 43h225v113
h-708l-51 153l20 62h1360l51 -154zM1198 960.5q31 -22.5 54.5 -61.5t23.5 -88q0 -14 -20.5 -41t-56.5 -48.5t-85 -21.5q-14 0 -44 22.5t-53.5 60.5t-23.5 87q0 14 19.5 42t55.5 49.5t85 21.5q14 0 45 -22.5zM698 215q-84 0 -176 18q23 -41 23 -86q0 -82 -58 -153
q72 -16 166 -17q80 0 166 17v229q-49 -8 -121 -8zM374.5 135.5q14.5 20.5 16.5 44.5q0 29 -24 29q-23 0 -40.5 -15.5t-17.5 -37.5q0 -39 19 -70q32 29 46.5 49.5z" />
    <glyph glyph-name="ng_kha-deva" horiz-adv-x="1318" 
d="M1360 1098h-428v-254l-58 -60h-366q-68 0 -108 -11t-40 -36q0 -14 27 -37.5t59 -23.5q41 0 177 24q139 25 180 25q68 0 139.5 -30.5t117.5 -84t46 -116.5q0 -68 -31 -123v-641l25 -279l-45 -43l-185 29l21 205q-63 -23 -141 -23t-149 37t-114 99.5t-43 133.5
q0 109 62.5 164.5t181.5 55.5q106 0 213 -80v213q-86 -27 -203 -27q-168 0 -348 72q63 -106 64 -219q0 -98 -47.5 -185.5t-139.5 -146.5q119 -96 299 -170l-123 -154q-123 70 -233.5 197t-167.5 264l102 107l64 -33q63 51 63 174q0 61 -23.5 132t-64.5 136q-41 25 -61 39
l70 96q113 -61 191.5 -89.5t144 -36t163.5 -7.5q90 0 166 30t76 64q0 27 -16.5 33t-59.5 6q-35 0 -153 -24q-111 -27 -162 -27q-70 0 -157 57.5t-149.5 133t-62.5 118.5q0 117 79 160t261 43h225v113h-708l-51 153l20 62h1370l51 -154zM1198 960.5q31 -22.5 54.5 -61.5
t23.5 -88q0 -14 -20.5 -41t-56.5 -48.5t-85 -21.5q-14 0 -44 22.5t-53.5 60.5t-23.5 87q0 14 19.5 42t55.5 49.5t85 21.5q14 0 45 -22.5zM813 -206q49 30 88 85v25q-100 47 -151 47q-59 0 -94 -26.5t-35 -76.5q0 -37 23.5 -60.5t68.5 -23.5q51 0 100 30z" />
    <glyph glyph-name="ng_ga-deva" horiz-adv-x="1304" 
d="M1346 1098h-428v-254l-58 -60h-366q-68 0 -108 -11t-40 -36q0 -14 26.5 -37.5t59.5 -23.5q41 0 176 24q139 25 180 25q68 0 139.5 -30.5t118 -84t46.5 -116.5q0 -70 -36 -132.5t-120 -101.5v-530l25 -279l-48 -43l-194 31l33 315v463q-20 -2 -68 -2q-98 0 -213 29
q2 -47 2 -148q0 -260 -41 -477q-111 0 -189.5 77t-86.5 189l41 56q29 6 100 10q4 8 4 76q0 154 -27 284q-111 51 -206 117l69 96q113 -61 192 -89.5t144.5 -36t163.5 -7.5q90 0 166 30t76 64q0 27 -16.5 33t-59.5 6q-35 0 -154 -24q-111 -27 -162 -27q-70 0 -156.5 57.5
t-149 133t-62.5 118.5q0 117 78.5 160t261.5 43h225v113h-694l-51 153l20 62h1356l51 -154zM1183.5 960.5q30.5 -22.5 54.5 -61.5t24 -88q0 -14 -20.5 -41t-56.5 -48.5t-85 -21.5q-14 0 -44 22.5t-53.5 60.5t-23.5 87q0 14 19.5 42t55.5 49.5t85 21.5q14 0 44.5 -22.5z" />
    <glyph glyph-name="ng_gha-deva" horiz-adv-x="1310" 
d="M1352 1098h-428v-254l-58 -60h-366q-68 0 -108 -11t-40 -36q0 -14 27 -37.5t59 -23.5q41 0 176 24q139 25 181 25q68 0 139.5 -30.5t117.5 -84t46 -116.5q0 -59 -25.5 -113.5t-85.5 -93.5v-557l25 -281l-47 -41l-195 29l21 201q-127 -82 -283 -82q-150 0 -245 70.5
t-95 183.5q0 129 115 202q-53 35 -81 82t-28 101q0 74 51 143q-66 33 -151 90l69 96q113 -61 192 -89.5t144.5 -36t163.5 -7.5q90 0 166 30t76 64q0 27 -16.5 33t-59.5 6q-35 0 -154 -24q-111 -27 -161 -27q-70 0 -157 57.5t-149.5 133t-62.5 118.5q0 117 79 160t261 43h225
v113h-700l-51 153l20 62h1362l51 -154zM1190 960.5q31 -22.5 54.5 -61.5t23.5 -88q0 -14 -20.5 -41t-56.5 -48.5t-85 -21.5q-14 0 -44 22.5t-53.5 60.5t-23.5 87q0 14 19.5 42t55.5 49.5t85 21.5q14 0 45 -22.5zM690 215q-127 0 -274 45q-39 -41 -39 -98q0 -49 31 -96
q61 16 149 26l55 -145l-34 -51q-213 -20 -213 -138q0 -31 22.5 -48t61.5 -17q104 0 204.5 65.5t147.5 167.5v295q-50 -6 -111 -6z" />
    <glyph glyph-name="ng_ma-deva" horiz-adv-x="1304" 
d="M1346 1098h-428v-254l-58 -60h-366q-68 0 -108 -11t-40 -36q0 -14 26.5 -37.5t59.5 -23.5q41 0 176 24q139 25 180 25q68 0 139.5 -30.5t118 -84t46.5 -116.5q0 -127 -103 -203v-561l25 -281l-49 -41l-199 35l33 311v19q-152 -4 -342 -27q-14 -49 -32.5 -92t-35.5 -60
q-90 0 -152.5 43.5t-94 104.5t-31.5 119l43 53q61 12 149 16l2 95q0 86 -6 149.5t-20 134.5q-117 53 -211 119l69 96q113 -61 192 -89.5t144.5 -36t163.5 -7.5q90 0 166 30t76 64q0 27 -16.5 33t-59.5 6q-35 0 -154 -24q-111 -27 -162 -27q-70 0 -156.5 57.5t-149 133
t-62.5 118.5q0 117 78.5 160t261.5 43h225v113h-694l-51 153l20 62h1356l51 -154zM1183.5 960.5q30.5 -22.5 54.5 -61.5t24 -88q0 -14 -20.5 -41t-56.5 -48.5t-85 -21.5q-14 0 -44 22.5t-53.5 60.5t-23.5 87q0 14 19.5 42t55.5 49.5t85 21.5q14 0 44.5 -22.5zM684 215
q-96 0 -201 25q2 -43 2 -146q0 -111 -2 -162q170 -4 316 -10v301q-43 -8 -115 -8zM301 -72z" />
    <glyph glyph-name="c_ca-deva" horiz-adv-x="2222" 
d="M2062 377l29 -395l-57 -52l-240 39l27 310q-117 -68 -267 -68q-125 0 -230 44t-169 120q-76 -84 -170 -124t-213 -40q-131 0 -239.5 48t-172 131t-63.5 185q0 90 29 160q-61 -2 -172 -10l-101 213h649l99 -197q-119 0 -192.5 -60t-73.5 -159q0 -61 43 -94t114 -33
q109 0 211.5 67.5t181.5 194.5q6 37 23 78q-61 -2 -172 -10l-100 213h649l98 -197q-119 0 -192.5 -60t-73.5 -159q0 -61 43 -94t115 -33q94 0 186 52.5t168 152.5v498h-1839l-51 153l20 62h2304l51 -154l-26 -61h-226v-721z" />
    <glyph glyph-name="c_ra-deva" horiz-adv-x="1480" 
d="M1280 377l29 -395l-58 -52l-239 39l24 307l-418 -348l-159 160q78 49 203 133q-160 29 -262.5 126t-102.5 228q0 90 29 160q-61 -2 -172 -10l-101 213h649l99 -197q-119 0 -192.5 -60t-73.5 -159q0 -61 43 -94t114 -33q94 0 186.5 52.5t168.5 152.5v498h-1057l-51 153
l20 62h1522l51 -154l-27 -61h-225v-721z" />
    <glyph glyph-name="c_la-deva" horiz-adv-x="2525" 
d="M2324 377l29 -395l-57 -52l-240 39l35 410v344q-53 18 -88 18q-141 0 -203.5 -97t-62.5 -238l-238 61q0 145 41 250q-72 25 -127 24q-129 0 -185.5 -65.5t-56.5 -161.5q0 -104 77 -206.5t231 -170.5l-70 -125q-244 113 -367 269q-115 -70 -270 -70q-131 0 -239.5 48
t-172 131t-63.5 185q0 90 29 160q-61 -2 -172 -10l-101 213h649l99 -197q-119 0 -192.5 -60t-73.5 -159q0 -61 43 -94t114 -33q131 0 250 97q-8 35 -8 83q0 182 97 272.5t284 90.5q147 0 303 -102q100 102 287 102q92 0 186 -49v209h-2101l-51 153l20 62h2566l51 -154
l-26 -61h-226v-721z" />
    <glyph glyph-name="ch_va-deva" horiz-adv-x="1421" 
d="M1122 969q104 -41 159.5 -123t55.5 -199q0 -236 -231 -338v-567l29 -287l-56 -49l-237 33l14 135q-86 -27 -201 -27q-121 0 -218 39t-153.5 110t-56.5 159q0 145 96.5 218.5t280.5 73.5q137 0 277 -75v176q-96 -12 -211 -12q-160 0 -290 46t-206 123.5t-76 172.5
q0 182 164 264q-154 70 -153 182q0 39 10 76h-129l-51 149l20 64h1473l51 -152l-21 -61h-340v-131zM391 1100q-41 -31 -41 -76q0 -66 64 -133q84 18 178 24l70 -167l-41 -62q-133 -12 -206 -55t-73 -94q0 -72 69.5 -103t176.5 -31q250 0 378 76t128 260q0 53 -22.5 75
t-65.5 22q-37 0 -54.5 -21.5t-17.5 -54.5q0 -37 51 -88l-88 -90q-86 29 -146.5 102.5t-70.5 159.5q18 61 76.5 106t140.5 54v96h-506zM752.5 -255q72.5 32 128.5 91v92q-121 45 -187 45q-111 0 -175 -37.5t-64 -107.5q0 -59 41 -87t110 -28q74 0 146.5 32z" />
    <glyph glyph-name="j_ja-deva" horiz-adv-x="1386" 
d="M1186 377l28 -395l-57 -52l-239 39l26 318q-82 -20 -268 -74q72 -35 110.5 -92.5t38.5 -114.5q0 -96 -66.5 -154.5t-183.5 -58.5q-143 0 -279 70.5t-267 265.5l127 84q74 -113 178 -178.5t184 -65.5q41 0 65.5 20.5t24.5 57.5q0 45 -51 80t-127 27l-78 116l37 62
q311 82 563 141v358q-193 -4 -258 -8q47 -39 72 -88t25 -98q0 -78 -59.5 -134.5t-168.5 -56.5q-184 0 -309 110t-207 353l146 47q63 -164 134.5 -245.5t170.5 -81.5q41 0 62.5 21.5t21.5 54.5q0 43 -37 77.5t-105 44.5l-43 134l52 51q244 0 503 -8v94h-962l-51 153l20 62
h1427l52 -154l-27 -61h-225v-721z" />
    <glyph glyph-name="j_nya-deva" horiz-adv-x="1523" 
d="M1323 377l29 -395l-58 -52l-239 39l35 410v311q-195 -4 -355 -12q78 -47 120 -116.5t42 -151.5q0 -119 -78 -187.5t-215 -72.5q98 -119 270 -211l-116 -205q-96 66 -188.5 172t-168.5 237q-115 4 -212 70t-128 154l31 102q78 80 170 80q45 0 109 -19q57 -74 114 -174h9
q72 0 110.5 34t38.5 95q0 76 -55.5 125t-169.5 76l-47 154l55 57q305 -4 664 -23v224h-1100l-51 153l20 62h1565l51 -154l-27 -61h-225v-721z" />
    <glyph glyph-name="j_ny_ra-deva" horiz-adv-x="1634" 
d="M1434 377l28 -395l-57 -52l-240 39l23 258l-227 -254l-158 119q170 141 397 373v225q-240 0 -457 -16q74 -51 114 -118t40 -146q0 -119 -78 -187.5t-215 -72.5q98 -119 270 -211l-116 -205q-96 66 -188.5 172t-168.5 237q-115 4 -212 70t-128 154l31 102q78 80 170 80
q45 0 109 -19q57 -74 114 -174h9q72 0 110.5 34t38.5 95q0 76 -55.5 125t-169.5 76l-47 154l55 57q342 -4 774 -25v226h-1210l-51 153l20 62h1675l52 -154l-27 -61h-225v-721z" />
    <glyph glyph-name="j_ra-deva" horiz-adv-x="1644" 
d="M1464 377l29 -395l-57 -52l-226 37l11 193l-322 -316l-149 131q94 70 189 151t253 220q-2 -2 39 33v311q-207 -4 -375 -12q78 -47 120 -116.5t42 -151.5q0 -121 -81 -190.5t-220 -69.5q-213 0 -385 163.5t-273 466.5l140 41q78 -219 188.5 -342t226.5 -123q72 0 111 34
t39 95q0 76 -55.5 125t-169.5 76l-47 154l55 57q262 -2 684 -25v226h-1241l-51 153l20 62h1686l51 -154l-27 -61h-205v-721z" />
    <glyph glyph-name="jha_uMatra-deva" horiz-adv-x="1792" 
d="M1620 -10q82 -45 134 -110.5t52 -139.5q0 -125 -89 -201t-222 -76t-267 72t-235 213l82 78q100 -100 179 -133t180 -33q96 0 137 37t41 94q0 35 -28 57.5t-73 22.5q-104 0 -219 -88l-131 178q86 55 168 74l25 284q-35 -8 -76 -8q-102 0 -215 54q6 -29 6 -58
q0 -123 -61.5 -217t-210.5 -127l184 -102l-147 -211q-94 70 -160 135t-154 174q-160 18 -279.5 73.5t-129.5 147.5l43 64q63 45 149 45q25 0 57.5 -6.5t57.5 -12.5q88 -88 145 -137q125 10 209 67.5t84 145.5q0 25 -13.5 43.5t-35.5 18.5q-43 0 -145 -33q-106 -33 -148 -33
q-102 0 -200.5 48t-160 132t-61.5 183q0 141 80 199.5t266 58.5h232v135h-670l-51 153l20 62h1823l51 -154l-26 -61h-226v-721zM1358 539v559h-455v-295l-61 -66h-404q-47 0 -78.5 -21.5t-31.5 -62.5q0 -35 25.5 -66.5t54.5 -31.5q25 0 71.5 10t95.5 23q16 4 83 19.5
t106 15.5q41 0 96 -23q209 -86 357 -86q80 0 141 25z" />
    <glyph glyph-name="jh_ra-deva" horiz-adv-x="1792" 
d="M1591 377l29 -395l-57 -52l-205 39v88l-195 -196l-133 129q172 139 328 278v51q-35 -8 -80 -8q-102 0 -215 54q6 -27 6 -58q0 -125 -64.5 -221t-218.5 -125q109 -68 267 -131l-148 -211q-94 47 -186 130t-197 208q-162 20 -281.5 75.5t-129.5 147.5l43 64q63 45 149 45
q25 0 57.5 -6.5t57.5 -12.5q76 -80 143 -137q125 8 210 65.5t85 147.5q0 25 -13.5 43.5t-35.5 18.5q-43 0 -145 -33q-106 -33 -148 -33q-102 0 -200.5 48t-160 132t-61.5 183q0 141 80 199.5t266 58.5h232v135h-670l-51 153l20 62h1823l51 -154l-26 -61h-226v-721zM903 1098
v-295l-61 -66h-404q-47 0 -78.5 -21.5t-31.5 -62.5q0 -35 25.5 -66.5t54.5 -31.5q25 0 71.5 10t95.5 23q16 4 83 19.5t106 15.5q41 0 96 -23q209 -86 357 -86q80 0 141 25v559h-455z" />
    <glyph glyph-name="ny_ca-deva" horiz-adv-x="1372" 
d="M1235 283l29 -416l-58 -51l-205 39v116q-72 -41 -156.5 -60.5t-162.5 -19.5q-143 0 -232.5 57.5t-89.5 155.5q0 35 9 62l-142 -49l-151 162l563 149l139 -158q-90 -23 -143 -65.5t-53 -91.5q0 -31 17 -49.5t52 -18.5q92 0 192.5 67.5t157.5 200.5v320q-66 8 -163 63
q-14 -94 -84 -154.5t-185 -60.5q-170 0 -291.5 109.5t-203.5 353.5l145 47q63 -164 135 -245.5t170 -81.5q72 0 112 34.5t40 102.5q0 35 -23.5 58.5t-66.5 23.5q-66 0 -131 -60l-78 185q82 35 162 34q104 0 176.5 -51t103.5 -131q84 -27 148 -26q23 0 34 2v262h-1003
l-51 153l20 62h1405l51 -154l-26 -61h-162v-815z" />
    <glyph glyph-name="ny_ja-deva" horiz-adv-x="1433" 
d="M1458 1098h-225v-721l29 -395l-58 -52l-239 39l26 314l-194 -54q-37 -12 -56 -16q72 -35 111 -92.5t39 -114.5q0 -96 -66.5 -154.5t-183.5 -58.5q-143 0 -279.5 70.5t-267.5 265.5l127 84q74 -113 178.5 -178.5t184.5 -65.5q41 0 65.5 20.5t24.5 57.5q0 45 -51.5 80
t-126.5 27l-78 116l37 62q94 25 80 20q297 78 464 117v162q-66 8 -163 63q-14 -94 -84 -154.5t-185 -60.5q-170 0 -291.5 109.5t-203.5 353.5l145 47q63 -164 135 -245.5t170 -81.5q72 0 112 34.5t40 102.5q0 35 -23.5 58.5t-66.5 23.5q-66 0 -131 -60l-78 185q82 35 162 34
q104 0 176.5 -51t103.5 -131q84 -27 148 -27q23 0 34 3v264h-995l-51 153l20 62h1461l51 -154z" />
    <glyph glyph-name="ny_ra-deva" horiz-adv-x="1757" 
d="M1556 377l29 -395l-57 -52l-240 39l17 201l-428 -326l-132 148q178 96 576 373l2 14v53l-33 -2q-76 0 -180 41q-10 -150 -115.5 -226.5t-253.5 -76.5q-203 0 -392 165t-314 460l141 53q92 -225 219 -349t258 -124q111 0 175.5 54t64.5 148q0 70 -49 111t-131 41
q-119 0 -209 -72l-103 211q47 33 112 52.5t128 19.5q160 0 280.5 -81t165.5 -212q68 -12 142 -12q47 0 94 10v455h-1333l-51 153l20 62h1798l51 -154l-26 -61h-226v-721z" />
    <glyph glyph-name="tt_tta-deva" horiz-adv-x="1140" 
d="M344 586q0 -86 51 -121t180 -35q84 0 165 17.5t132 48.5l199 -164q-33 -29 -102 -62v-278l-68 -66h-330q-227 0 -227 -151q0 -86 51 -121t180 -35q84 0 165 17.5t132 48.5l199 -164q-72 -57 -183.5 -88t-250.5 -31q-143 0 -270 62.5t-203 166t-76 222.5q0 139 110.5 219
t303.5 80h233v65q-61 -4 -98 -4q-143 0 -270 62.5t-203 166t-76 222.5q0 139 110.5 219t303.5 80h233v135h-745l-51 153l20 62h1192l51 -154l-20 -61h-213v-295l-68 -66h-330q-227 1 -227 -151z" />
    <glyph glyph-name="tt_tt_ya-deva" horiz-adv-x="2297" 
d="M2118 377l28 -395l-57 -52l-240 39l23 254q-129 -88 -262 -88q-119 0 -226.5 49t-182.5 135.5t-97 190.5l39 78q113 8 163 29.5t50 60.5q0 27 -37 44t-94 17h-322l-2 -2h-330q-227 0 -227 -151q0 -86 51 -121t180 -35q84 0 165 17.5t132 48.5l199 -164q-33 -29 -102 -62
v-278l-68 -66h-330q-227 0 -227 -151q0 -86 51 -121t180 -35q84 0 165 17.5t132 48.5l199 -164q-72 -57 -183.5 -88t-250.5 -31q-143 0 -270 62.5t-203 166t-76 222.5q0 139 110.5 219t303.5 80h233v65q-61 -4 -98 -4q-143 0 -270 62.5t-203 166t-76 222.5q0 139 110.5 219
t303.5 80h233v135h-745l-51 153l20 62h2349l51 -154l-26 -61h-215v-721zM969 1098v-135h121q137 0 252.5 -35t184 -103.5t68.5 -160.5q0 -90 -70.5 -162t-197.5 -96q14 -27 75.5 -41.5t153.5 -14.5q98 0 184.5 53.5t143.5 147.5v547h-915z" />
    <glyph glyph-name="tt_ttha-deva" horiz-adv-x="1157" 
d="M344 586q0 -86 51 -121t180 -35q84 0 165 17.5t132 48.5l199 -164q-33 -29 -102 -62v-174q213 -176 213 -356q0 -102 -66.5 -178t-190.5 -118t-288 -42q-141 0 -268 61.5t-204 165t-77 224.5q0 141 111.5 220t302.5 79h200v63l-65 -2q-143 0 -270 62.5t-203 166
t-76 222.5q0 139 110.5 219t303.5 80h233v135h-745l-51 153l20 62h1208l52 -154l-21 -61h-229v-295l-68 -66h-330q-227 1 -227 -151zM835.5 -340q90.5 41 90.5 154q0 53 -23 112h-332q-227 0 -227 -151q0 -53 16.5 -86t67.5 -51.5t147 -18.5q170 0 260.5 41z" />
    <glyph glyph-name="tt_ddha-deva" horiz-adv-x="1132" 
d="M344 586q0 -86 51 -121t180 -35q84 0 165 17.5t132 48.5l199 -164q-51 -43 -129 -72v-252h-4l-59 -78l-291 2q-123 0 -183.5 -34.5t-60.5 -112.5q0 -106 83 -175t208 -69h4q-80 51 -113.5 84t-54.5 86q14 78 94 124t199 46q98 0 178 -29.5t126 -82t46 -115.5
q0 -123 -121 -187.5t-340 -64.5q-156 0 -283.5 54.5t-202.5 149.5t-75 212q0 156 119 245t334 89h131v61h-39q-143 0 -270 62.5t-203 166t-76 222.5q0 139 110.5 219t303.5 80h233v135h-745l-51 153l20 62h1184l51 -154l-20 -61h-205v-295l-68 -66h-330q-227 1 -227 -151z
M770 -444q47 12 68.5 40.5t21.5 79.5q0 29 -19.5 45.5t-54.5 16.5q-29 0 -46 -15.5t-17 -39.5q0 -51 47 -127z" />
    <glyph glyph-name="tt_na-deva" horiz-adv-x="1132" 
d="M338 586q0 -86 51 -121t180 -35q84 0 165 17.5t132 48.5l199 -164q-47 -37 -107 -62v-499l29 -295l-55 -51l-215 30l37 365v12q-109 -6 -252 -27q-14 -53 -30.5 -102t-27.5 -61q-100 0 -169.5 46t-104.5 114.5t-35 134.5l45 61q98 18 207 18q66 0 229 -4q98 -4 138 -4
v211q-59 -6 -123 -6q-143 0 -270.5 62.5t-203 166t-75.5 222.5q0 139 110.5 219t303.5 80h233v135h-739l-51 153l20 62h1184l51 -154l-20 -61h-211v-295l-68 -66h-330q-227 1 -227 -151z" />
    <glyph glyph-name="tt_ya-deva" horiz-adv-x="2330" 
d="M2150 377l29 -395l-57 -52l-240 39l16 181q-127 -84 -256 -84q-119 0 -226 49t-182 135t-97 190l39 78q113 12 163 43t50 90q0 29 -37 46.5t-95 17.5h-682q-227 0 -227 -232q0 -80 16.5 -130t67.5 -78.5t148 -28.5q121 0 200.5 28.5t116.5 100.5l205 -174
q-68 -86 -186.5 -133.5t-274.5 -47.5q-141 0 -268 72t-204 197t-77 272q0 176 111.5 277.5t302.5 101.5h233v158h-749l-51 153l20 62h2382l51 -154l-27 -61h-215v-721zM973 1098v-160h149q137 0 253 -41t184.5 -119t68.5 -184q0 -90 -70.5 -162t-197.5 -96q14 -27 75.5 -41
t153.5 -14q98 0 184.5 53t143.5 147v617h-944z" />
    <glyph glyph-name="tt_va-deva" horiz-adv-x="1146" 
d="M342 586q0 -86 51 -121t180 -35q84 0 165 17.5t132 48.5l199 -164q-39 -31 -70 -45v-543l29 -287l-55 -49l-238 33l15 135q-86 -27 -201 -27q-121 0 -218.5 39t-153.5 110t-56 159q0 145 96 219t281 74q137 0 276 -76v147q-57 -8 -139 -8q-143 0 -270 62.5t-203 166
t-76 222.5q0 139 110.5 219t303.5 80h233v135h-743l-51 153l20 62h1198l51 -154l-20 -61h-221v-295l-68 -66h-330q-227 1 -227 -151zM646 -253q73 32 128 91v92q-121 45 -186 45q-111 0 -175.5 -37.5t-64.5 -107.5q0 -59 41 -87t111 -28q73 0 146 32z" />
    <glyph glyph-name="tth_ttha-deva" horiz-adv-x="1263" 
d="M1182 551q0 -92 -55.5 -164t-157.5 -115v-176q213 -176 213 -356q0 -102 -66.5 -178t-190.5 -118t-288 -42q-141 0 -268 61.5t-204 165t-77 224.5q0 141 111.5 220t302.5 79h200v63q-20 -2 -65 -2q-141 0 -268 61.5t-204 165t-77 224.5q0 141 111.5 220t302.5 79h200v135
h-712l-51 153l20 62h1315l51 -154l-20 -61h-336v-191q213 -176 213 -356zM835.5 471q90.5 41 90.5 154q0 53 -23 112h-332q-227 0 -227 -151q0 -53 16.5 -86t67.5 -51.5t147 -18.5q170 0 260.5 41zM835.5 -340q90.5 41 90.5 154q0 53 -23 112h-332q-227 0 -227 -151
q0 -53 16.5 -86t67.5 -51.5t147 -18.5q170 0 260.5 41z" />
    <glyph glyph-name="tth_tth_ya-deva" horiz-adv-x="2441" 
d="M2261 377l29 -395l-58 -52l-239 39l18 213q-131 -86 -258 -86q-119 0 -226.5 49.5t-182 135.5t-97.5 190l39 78q113 12 163 43t50 90q0 29 -37 46t-94 17h-250q63 -96 64 -194q0 -92 -55.5 -164t-157.5 -115v-176q213 -176 213 -356q0 -102 -66.5 -178t-190.5 -118
t-288 -42q-141 0 -268 61.5t-204 165t-77 224.5q0 141 111.5 220t302.5 79h200v63q-20 -2 -65 -2q-141 0 -268 61.5t-204 165t-77 224.5q0 141 111.5 220t302.5 79h200v135h-712l-51 153l20 62h2492l52 -154l-27 -61h-215v-721zM969 1098v-152h264q137 0 253 -38
t184.5 -110.5t68.5 -172.5q0 -90 -71 -162t-198 -96q14 -27 76 -41.5t154 -14.5q98 0 184 53.5t144 147.5v586h-1059zM835.5 471q90.5 41 90.5 154q0 53 -23 112h-332q-227 0 -227 -151q0 -53 16.5 -86t67.5 -51.5t147 -18.5q170 0 260.5 41zM835.5 -340q90.5 41 90.5 154
q0 53 -23 112h-332q-227 0 -227 -151q0 -53 16.5 -86t67.5 -51.5t147 -18.5q170 0 260.5 41z" />
    <glyph glyph-name="tth_na-deva" horiz-adv-x="1255" 
d="M1176 551q0 -86 -50.5 -155.5t-142.5 -114.5v-510l29 -295l-56 -51l-215 30l37 365v12q-109 -6 -252 -27q-14 -53 -30.5 -102t-26.5 -61q-100 0 -170 46t-104.5 114.5t-34.5 134.5l45 61q98 18 207 18q66 0 229 -4q98 -4 137 -4v215q-76 -10 -147 -10q-141 0 -268 61.5
t-204 165t-77 224.5q0 141 111.5 220t302.5 79h200v135h-706l-51 153l20 62h1307l51 -154l-21 -61h-333v-191q213 -176 213 -356zM829.5 471q90.5 41 90.5 154q0 53 -23 112h-332q-227 0 -227 -151q0 -53 16.5 -86t67.5 -51.5t147 -18.5q170 0 260.5 41z" />
    <glyph glyph-name="tth_ya-deva" horiz-adv-x="2471" 
d="M2292 377l28 -395l-57 -52l-240 39l17 183q-127 -84 -256 -84q-119 0 -226.5 49t-182.5 135t-97 190l39 78q113 12 163 43t50 90q0 29 -37 46.5t-94 17.5h-297q82 -133 82 -264t-66.5 -229.5t-190.5 -151t-288 -52.5q-141 0 -268 72t-204 198t-77 275q0 172 111.5 272.5
t302.5 100.5h233v160h-747l-51 153l20 62h2523l51 -154l-26 -61h-215v-721zM971 1098v-160h272q143 0 263 -41t191.5 -118t71.5 -183q0 -90 -70.5 -162t-197.5 -96q14 -27 75.5 -41t154.5 -14q98 0 184 53t143 147v615h-1087zM838 305.5q90 59.5 90 220.5q0 94 -37 187h-318
q-227 0 -227 -226q0 -82 16.5 -133t66.5 -79.5t149 -28.5q170 0 260 59.5z" />
    <glyph glyph-name="dd_gha-deva" horiz-adv-x="1163" 
d="M386 773q-40 -11 -40 -36q0 -14 26.5 -37.5t59.5 -23.5q41 0 176 24q139 25 180 25q68 0 139.5 -30.5t118 -84t46.5 -116.5q0 -57 -25 -110.5t-80 -92.5v-561l25 -281l-47 -41l-195 29l21 201q-127 -82 -283 -82q-150 0 -245 70.5t-95 183.5q0 129 115 202q-53 35 -81 82
t-28 101q0 74 49 141q-86 43 -155 92l69 96q113 -61 192 -89.5t144.5 -36t163.5 -7.5q90 0 166 30t76 64q0 27 -16.5 33t-59.5 6q-35 0 -154 -24q-111 -27 -162 -27q-70 0 -156.5 57.5t-149 133t-62.5 118.5q0 117 78.5 160t261.5 43h225v113h-694l-51 153l20 62h1215
l51 -154l-21 -61h-286v-254l-58 -60h-366q-68 0 -108 -11zM684 215q-125 0 -270 45q-37 -47 -37 -98q0 -49 31 -96q61 16 149 26l55 -145l-34 -51q-213 -20 -213 -138q0 -31 22.5 -48t61.5 -17q104 0 204.5 65.5t147.5 167.5v297q-47 -8 -117 -8z" />
    <glyph glyph-name="dd_tta-deva" horiz-adv-x="1169" 
d="M394 773q-40 -11 -40 -36q0 -14 27 -37.5t59 -23.5q41 0 176 24q139 25 181 25q68 0 139.5 -30.5t117.5 -84t46 -116.5t-31 -123t-100 -99v-280l-68 -66h-330q-227 0 -227 -151q0 -86 51 -121t180 -35q84 0 165 17.5t132 48.5l199 -164q-72 -57 -183.5 -88t-250.5 -31
q-143 0 -270 62.5t-203 166t-76 222.5q0 139 110.5 219t303.5 80h233v63h-43q-145 0 -307 56.5t-309 156.5l69 96q113 -61 192 -89.5t144.5 -36t163.5 -7.5q90 0 166 30t76 64q0 27 -16.5 33t-59.5 6q-35 0 -154 -24q-111 -27 -161 -27q-70 0 -157 57.5t-149.5 133
t-62.5 118.5q0 117 79 160t261 43h225v113h-702l-51 153l20 62h1221l51 -154l-21 -61h-284v-254l-58 -60h-366q-68 0 -108 -11z" />
    <glyph glyph-name="dd_dda-deva" horiz-adv-x="1169" 
d="M394 773q-40 -11 -40 -36q0 -14 27 -37.5t59 -23.5q41 0 176 24q139 25 181 25q68 0 139.5 -30.5t117.5 -84t46 -116.5q0 -74 -41 -138.5t-133 -103.5v-244l-58 -59h-366q-68 0 -108 -11.5t-40 -35.5q0 -14 27 -38t59 -24q41 0 176 25q139 25 181 24q68 0 139.5 -30.5
t117.5 -84t46 -116.5q0 -113 -93.5 -196t-314.5 -83q-145 0 -307 56.5t-309 156.5l69 97q113 -61 192 -90t144.5 -36t163.5 -7q90 0 166 29.5t76 64.5q0 27 -16.5 33t-59.5 6q-35 0 -154 -25q-111 -27 -161 -26q-70 0 -157 57t-149.5 133t-62.5 119q0 117 79 160t261 43h225
v65q-145 0 -307 56.5t-309 156.5l69 96q113 -61 192 -89.5t144.5 -36t163.5 -7.5q90 0 166 30t76 64q0 27 -16.5 33t-59.5 6q-35 0 -154 -24q-111 -27 -161 -27q-70 0 -157 57.5t-149.5 133t-62.5 118.5q0 117 79 160t261 43h225v113h-702l-51 153l20 62h1221l51 -154
l-21 -61h-284v-254l-58 -60h-366q-68 0 -108 -11z" />
    <glyph glyph-name="dd_dd_ya-deva" horiz-adv-x="2367" 
d="M2187 377l29 -395l-57 -52l-240 39l23 254q-129 -88 -263 -88q-119 0 -226 49t-182 135.5t-97 190.5l38 78q113 12 163 43t50 90q0 29 -36.5 46t-94.5 17h-792q-68 0 -108 -11t-40 -36q0 -14 27 -37.5t59 -23.5q41 0 176 24q139 25 181 25q68 0 139.5 -30.5t117.5 -84
t46 -116.5q0 -74 -41 -138.5t-133 -103.5v-244l-58 -59h-366q-68 0 -108 -11.5t-40 -35.5q0 -14 27 -38t59 -24q41 0 176 25q139 25 181 24q68 0 139.5 -30.5t117.5 -84t46 -116.5q0 -113 -93.5 -196t-314.5 -83q-145 0 -307 56.5t-309 156.5l69 97q113 -61 192 -90
t144.5 -36t163.5 -7q90 0 166 29.5t76 64.5q0 27 -16.5 33t-59.5 6q-35 0 -154 -25q-111 -27 -161 -26q-70 0 -157 57t-149.5 133t-62.5 119q0 117 79 160t261 43h225v65q-145 0 -307 56.5t-309 156.5l69 96q113 -61 192 -89.5t144.5 -36t163.5 -7.5q90 0 166 30t76 64
q0 27 -16.5 33t-59.5 6q-35 0 -154 -24q-111 -27 -161 -27q-70 0 -157 57.5t-149.5 133t-62.5 118.5q0 117 79 160t261 43h225v113h-702l-51 153l20 62h2419l51 -154l-27 -61h-215v-721zM926 1098v-113h233q137 0 253 -38t184.5 -110.5t68.5 -172.5q0 -90 -70.5 -162
t-197.5 -96q14 -27 75.5 -41.5t153.5 -14.5q98 0 184 53.5t144 147.5v547h-1028z" />
    <glyph glyph-name="dd_ddha-deva" horiz-adv-x="1167" 
d="M392 773q-40 -11 -40 -36q0 -14 27 -37.5t59 -23.5q41 0 176 24q139 25 181 25q68 0 139.5 -30.5t117.5 -84t46 -116.5q0 -72 -39 -135.5t-127 -102.5v-248h-4l-60 -78l-290 2q-123 0 -183.5 -34.5t-60.5 -112.5q0 -106 83 -175t208 -69h4q-80 51 -114 84t-54 86
q14 78 94 124t199 46q98 0 178 -29.5t126 -82t46 -115.5q0 -123 -121 -187.5t-340 -64.5q-156 0 -284 54.5t-202.5 149.5t-74.5 212q0 156 118.5 245t334.5 89h131v63q-141 4 -296 60.5t-296 152.5l69 96q113 -61 192 -89.5t144.5 -36t163.5 -7.5q90 0 166 30t76 64
q0 27 -16.5 33t-59.5 6q-35 0 -154 -24q-111 -27 -161 -27q-70 0 -157 57.5t-149.5 133t-62.5 118.5q0 117 79 160t261 43h225v113h-700l-51 153l20 62h1219l51 -154l-21 -61h-284v-254l-58 -60h-366q-68 0 -108 -11zM760 -444q47 12 68.5 40.5t21.5 79.5q0 29 -19.5 45.5
t-54.5 16.5q-29 0 -46 -15.5t-17 -39.5q0 -51 47 -127z" />
    <glyph glyph-name="dd_na-deva" horiz-adv-x="1163" 
d="M386 773q-40 -11 -40 -36q0 -14 26.5 -37.5t59.5 -23.5q41 0 176 24q139 25 180 25q68 0 139.5 -30.5t118 -84t46.5 -116.5q0 -68 -34 -128.5t-112 -99.5v-495l29 -295l-55 -51l-215 30l36 365v12q-109 -6 -252 -27q-14 -53 -30.5 -102t-26.5 -61q-100 0 -169.5 46
t-104.5 114.5t-35 134.5l45 61q98 18 207 18q66 0 229 -4q98 -4 137 -4v209l-57 -2q-145 0 -307 56.5t-309 156.5l69 96q113 -61 192 -89.5t144.5 -36t163.5 -7.5q90 0 166 30t76 64q0 27 -16.5 33t-59.5 6q-35 0 -154 -24q-111 -27 -162 -27q-70 0 -156.5 57.5t-149 133
t-62.5 118.5q0 117 78.5 160t261.5 43h225v113h-694l-51 153l20 62h1215l51 -154l-21 -61h-286v-254l-58 -60h-366q-68 0 -108 -11z" />
    <glyph glyph-name="dd_ma-deva" horiz-adv-x="2387" 
d="M2208 377l28 -406l-57 -51l-240 39l35 420v10q-193 -4 -381 -29q-16 -68 -40.5 -127t-51.5 -90q-88 0 -164.5 49.5t-123 131.5t-46.5 176l52 67q53 12 165 19v41q0 111 -159 110h-736q-47 0 -78.5 -21.5t-31.5 -62.5q0 -37 20.5 -67.5t49.5 -30.5q25 0 70.5 10t92.5 23
q10 2 76 18.5t107 16.5q55 0 127.5 -39t125 -112t52.5 -165q0 -139 -92.5 -237.5t-315.5 -98.5q-143 0 -305 65.5t-311 182.5l71 115q178 -104 274.5 -138t223.5 -34q104 0 173 49t69 135q0 25 -13.5 43.5t-35.5 18.5q-43 0 -146 -33q-106 -33 -147 -33q-98 0 -191.5 48
t-152 132t-58.5 183q0 141 80 199.5t266 58.5h211v135h-700l-51 153l20 62h2419l51 -154l-26 -61h-205v-721zM934 1098v-135h119q291 0 426 -81t135 -253v-37h24q115 0 336 -10v516h-1040z" />
    <glyph glyph-name="dd_ya-deva" horiz-adv-x="2359" 
d="M2179 377l29 -395l-58 -52l-239 39l18 207q-131 -86 -258 -86q-119 0 -226.5 49t-182 135t-97.5 191l39 78q113 12 163 42.5t50 90.5q0 29 -37 46t-94 17h-412l-2 -2h-383q-47 0 -78.5 -21.5t-31.5 -62.5q0 -37 20.5 -67.5t49.5 -30.5q25 0 70.5 10t92.5 23q10 2 76 18.5
t107 16.5q55 0 127.5 -39t125 -112t52.5 -165q0 -139 -92.5 -237.5t-315.5 -98.5q-143 0 -305 65.5t-311 182.5l71 115q178 -104 274.5 -138t223.5 -34q104 0 173 49t69 135q0 25 -13.5 43.5t-35.5 18.5q-43 0 -146 -33q-106 -33 -147 -33q-98 0 -191.5 48t-152 132
t-58.5 183q0 141 80 199.5t266 58.5h211v135h-700l-51 153l20 62h2401l51 -154l-27 -61h-215v-721zM934 1098v-137h196q143 0 263 -39t192 -117t72 -187q0 -90 -70.5 -161.5t-197.5 -96.5q14 -27 75.5 -41t153.5 -14q98 0 184 53.5t144 147.5v592h-1012z" />
    <glyph glyph-name="ddh_ddha-deva" horiz-adv-x="1183" 
d="M406.5 717q-60.5 -35 -60.5 -113q0 -106 83 -175t208 -69h4q-80 51 -113.5 84t-54.5 86q14 78 94 124t199 46q98 0 178 -29.5t126 -81.5t46 -116q0 -80 -51 -135t-150 -84v-246h-4l-59 -78l-291 2q-123 0 -183.5 -34.5t-60.5 -112.5q0 -106 83 -175t208 -69h4
q-80 51 -113.5 84t-54.5 86q14 78 94 124t199 46q98 0 178 -29.5t126 -82t46 -115.5q0 -123 -120.5 -187.5t-339.5 -64.5q-156 0 -284 54.5t-202.5 149.5t-74.5 212q0 156 118.5 245t333.5 89h131v69q-154 0 -280.5 55.5t-200.5 149.5t-74 211q0 156 119 245t334 89h131v127
h-688l-51 153l20 62h1235l51 -154l-20 -61h-281v-271h-4l-59 -77l-291 2q-123 0 -183.5 -35zM772 375q47 12 68.5 40.5t21.5 80.5q0 29 -19.5 45t-54.5 16q-29 0 -46 -15.5t-17 -39.5q0 -51 47 -127zM743 -444q47 12 69 40.5t22 79.5q0 29 -19.5 45.5t-54.5 16.5
q-29 0 -46.5 -15.5t-17.5 -39.5q0 -51 47 -127z" />
    <glyph glyph-name="ddh_ddh_ya-deva" horiz-adv-x="2402" 
d="M2222 377l29 -395l-58 -52l-239 39l18 217q-131 -86 -258 -86q-119 0 -226.5 49.5t-182 135.5t-97.5 190l39 78q113 12 163 42t50 81q0 35 -35.5 54.5t-95.5 19.5h-498l-241 2q-123 0 -183.5 -35t-60.5 -113q0 -106 83 -175t208 -69h4q-80 51 -113.5 84t-54.5 86
q14 78 94 124t199 46q98 0 178 -29.5t126 -81.5t46 -116q0 -80 -51 -135t-150 -84v-246h-4l-59 -78l-291 2q-123 0 -183.5 -34.5t-60.5 -112.5q0 -106 83 -175t208 -69h4q-80 51 -113.5 84t-54.5 86q14 78 94 124t199 46q98 0 178 -29.5t126 -82t46 -115.5
q0 -123 -120.5 -187.5t-339.5 -64.5q-156 0 -284 54.5t-202.5 149.5t-74.5 212q0 156 118.5 245t333.5 89h131v69q-154 0 -280.5 55.5t-200.5 149.5t-74 211q0 156 119 245t334 89h131v127h-688l-51 153l20 62h2454l51 -154l-27 -61h-215v-721zM944 1098v-135h250
q139 0 254 -39t183.5 -114t68.5 -181q0 -90 -70.5 -162t-197.5 -96q14 -27 75.5 -41.5t153.5 -14.5q98 0 184 53.5t144 147.5v582h-1045zM772 375q47 12 68.5 40.5t21.5 80.5q0 29 -19.5 45t-54.5 16q-29 0 -46 -15.5t-17 -39.5q0 -51 47 -127zM743 -444q47 12 69 40.5
t22 79.5q0 29 -19.5 45.5t-54.5 16.5q-29 0 -46.5 -15.5t-17.5 -39.5q0 -51 47 -127z" />
    <glyph glyph-name="ddh_na-deva" horiz-adv-x="1173" 
d="M396.5 717q-60.5 -35 -60.5 -113q0 -106 83 -175t208 -69h4q-80 51 -114 84t-54 86q14 78 94 124t199 46q98 0 178 -29.5t126 -81.5t46 -116q0 -68 -40 -120t-114 -83v-516l29 -295l-55 -51l-215 31l37 364v13q-109 -6 -252 -27q-14 -53 -30.5 -102t-27.5 -62
q-100 0 -169.5 46t-104.5 115t-35 134l45 62q98 18 207 18q66 0 229 -4q98 -4 138 -4v233q-66 -4 -103 -4q-156 0 -284 54.5t-202.5 149.5t-74.5 212q0 156 119 245t334 89h131v127h-678l-51 153l20 62h1225l51 -154l-21 -61h-280v-271h-4l-60 -77l-290 2q-123 0 -183.5 -35
zM762 375q47 12 68.5 40.5t21.5 80.5q0 29 -19.5 45t-54.5 16q-29 0 -46 -15.5t-17 -39.5q0 -51 47 -127z" />
    <glyph glyph-name="ddh_ya-deva" horiz-adv-x="2398" 
d="M2218 377l29 -395l-58 -52l-239 39l16 203q-127 -86 -256 -86q-119 0 -226.5 49t-182 135t-97.5 191l39 78q113 12 163 42.5t50 90.5q0 29 -37 46t-94 17h-498l-243 2q-256 0 -256 -217q0 -147 73.5 -232t204.5 -85h4q-55 51 -89 106.5t-52 124.5q14 90 97 144.5
t204 54.5q102 0 185 -37t130.5 -101.5t47.5 -142.5q0 -152 -123 -240.5t-332 -88.5q-131 0 -271.5 55t-237.5 176t-97 307q0 193 122.5 298.5t348.5 103.5h176v135h-729l-51 153l20 62h2449l52 -154l-27 -61h-215v-721zM952 1098v-140h217q143 0 263 -40.5t192 -118.5
t72 -185q0 -90 -71 -161.5t-198 -96.5q14 -27 76 -41t154 -14q98 0 184 53.5t144 147.5v596h-1033zM762 225q129 45 129 170q0 33 -19.5 57.5t-56.5 24.5q-35 0 -63.5 -30.5t-28.5 -73.5q0 -70 39 -148z" />
    <glyph glyph-name="nn_ra-deva" horiz-adv-x="1550" 
d="M1350 377l28 -395l-57 -52l-240 39l23 256l-356 -297l-160 160q268 166 528 377v633h-264v-482q0 -168 -90 -264t-262 -96q-111 0 -198 52t-136 142.5t-49 198.5v449h-127l-51 153l20 62h1591l52 -154l-27 -61h-225v-721zM342 1098v-467q0 -106 33 -150.5t102 -44.5
q61 0 105.5 54.5t44.5 144.5v463h-285z" />
    <glyph glyph-name="t_ta-deva" horiz-adv-x="1372" 
d="M1171 377l29 -395l-57 -52l-240 39l35 410v289h-270q-102 0 -153.5 -49.5t-51.5 -131.5q0 -90 56 -189t155 -177l-94 -107q-172 131 -259.5 273.5t-87.5 259.5q0 66 17 121h-164l-82 198h934v232h-948l-51 153l20 62h1413l51 -154l-26 -61h-226v-721z" />
    <glyph glyph-name="t_ra-deva" horiz-adv-x="1150" 
d="M991 377l29 -395l-57 -52l-240 39l33 375l-471 -354l-158 219q340 170 612 338q-86 90 -150.5 129t-127.5 39q-55 0 -107.5 -32t-148.5 -126l-164 213q86 80 183.5 124t199.5 44q98 0 176 -54.5t158 -152.5v367h-772l-52 153l21 62h1237l51 -154l-26 -61h-226v-721z" />
    <glyph glyph-name="th_ra-deva" horiz-adv-x="1386" 
d="M1186 377l28 -395l-57 -52l-239 39l28 332l-448 -373l-160 160q104 63 215 141q-160 33 -277.5 146.5t-166.5 275.5l38 78q381 70 381 283q0 57 -25.5 91t-76.5 34q-43 0 -69.5 -26t-26.5 -69q0 -35 13 -61.5t38 -52.5l-92 -94q-84 35 -152.5 120.5t-77.5 169.5
q82 205 312 205q113 0 195.5 -50t126.5 -135t44 -183q0 -82 -46 -164t-139 -147.5t-226 -98.5q109 -119 297 -119q100 0 186 49t143 137v480h-202l-52 153l21 62h667l52 -154l-27 -61h-225v-721z" />
    <glyph glyph-name="da_uMatra-deva" horiz-adv-x="1234" 
d="M1297.5 -165q35.5 -56 35.5 -118q0 -125 -89 -200.5t-222 -75.5q-190 0 -328.5 101.5t-253.5 277.5l99 53q117 -133 218 -184t204 -51q96 0 137 36.5t41 94.5q0 35 -28 57t-73 22q-104 0 -219 -88l-131 179q90 59 172 73q-16 29 -45 90q-72 -16 -143 -16
q-160 0 -294 66.5t-212 181.5t-78 252q0 180 124 278.5t347 96.5h176v137h-745l-51 153l20 62h1286l51 -154l-20 -61h-307v-285l-64 -80l-305 2q-125 0 -190.5 -48t-65.5 -142q0 -119 66.5 -196t179.5 -77q82 0 141 31q-29 92 -35 113l109 108q199 0 334 -133
q-41 -150 -172 -227q41 -59 98 -112.5t143 -117.5h-8q62 -43 97.5 -99z" />
    <glyph glyph-name="d_ga-deva" horiz-adv-x="1234" 
d="M409.5 687q-65.5 -48 -65.5 -142q0 -119 66.5 -196t179.5 -77q82 0 141 31q-20 63 -35 113l109 108q199 0 334 -133q-41 -145 -170 -227q47 -66 107.5 -119t164.5 -129l-197 -160q-137 152 -231 344q-76 -14 -141 -14q-66 0 -127 12v-88q0 -106 -9.5 -201.5t-33.5 -203.5
q-125 0 -211 76.5t-94 189.5l41 55q35 6 120 11q4 8 4 75q0 82 -6 152q-123 68 -195.5 179.5t-72.5 242.5q0 180 124 278.5t347 96.5h176v137h-745l-51 153l20 62h1286l51 -154l-20 -61h-307v-285l-64 -78h-305q-125 0 -190.5 -48z" />
    <glyph glyph-name="d_ga_uMatra-deva" horiz-adv-x="1236" 
d="M1274 -168.5q45 -62.5 45 -132.5q0 -125 -89 -201t-222 -76q-240 0 -430 187l81 96q115 -86 287 -86q96 0 137 37t41 94q0 35 -27.5 57.5t-72.5 22.5q-104 0 -219 -88l-131 178q80 55 178 76q-29 55 -47 102q-66 -12 -133 -12q-72 0 -148 16v-92q0 -106 -9 -201.5
t-34 -203.5q-125 0 -211 76.5t-94 189.5l41 55q35 6 121 11q4 8 4 75q0 96 -8 164q-115 70 -180.5 177.5t-65.5 232.5q0 180 123 277.5t348 97.5h176v137h-745l-51 153l20 62h1288l51 -154l-20 -61h-309v-285l-64 -80l-305 2q-125 0 -190.5 -48t-65.5 -142q0 -119 66.5 -196
t179.5 -77q84 0 139 31l-33 113l109 108q199 0 334 -133q-41 -150 -176 -231q70 -123 192 -223q74 -43 119 -105.5z" />
    <glyph glyph-name="d_g_ra-deva" horiz-adv-x="1234" 
d="M409.5 687q-65.5 -48 -65.5 -142q0 -119 66.5 -196t179.5 -77q82 0 141 31q-20 63 -35 113l109 108q199 0 334 -133q-41 -145 -170 -227q47 -66 107.5 -119t164.5 -129l-197 -160q-29 31 -86 105l-210 -287l-170 129q158 168 276 320l-41 77q-76 -14 -141 -14
q-72 0 -148 16v-92q0 -106 -9 -201.5t-34 -203.5q-125 0 -211 76.5t-94 189.5l41 55q35 6 121 11q4 8 4 75q0 96 -8 164q-115 70 -180.5 177.5t-65.5 232.5q0 180 124 278.5t347 96.5h176v137h-745l-51 153l20 62h1286l51 -154l-20 -61h-307v-285l-64 -78h-305
q-125 0 -190.5 -48z" />
    <glyph glyph-name="d_gha-deva" horiz-adv-x="1406" 
d="M581.5 687q-65.5 -48 -65.5 -142q0 -119 66.5 -196t179.5 -77q82 0 141 31q-20 63 -35 113l109 108q199 0 334 -133q-41 -145 -170 -227q47 -66 107.5 -119t164.5 -129l-196 -160q-59 66 -107 133q-94 -125 -235.5 -200.5t-286.5 -77.5q-131 0 -223.5 64.5t-92.5 170.5
q0 14 4 48q-92 37 -141 104.5t-49 140.5q0 80 56.5 149.5t160.5 104.5q-43 96 -43 193q0 180 124 278.5t347 96.5h176v137h-917l-51 153l20 62h1458l51 -154l-20 -61h-307v-285l-64 -78h-305q-125 0 -190.5 -48zM620.5 123q-104.5 37 -186.5 104q-84 -20 -128 -57t-44 -84
q0 -57 57 -100q55 70 158 114l113 -184q-133 -37 -133 -102q0 -72 86 -72q125 2 246.5 101.5t195.5 256.5q-76 -14 -141 -14q-119 0 -223.5 37z" />
    <glyph glyph-name="d_gha_uMatra-deva" horiz-adv-x="1413" 
d="M1617 -246.5q48 -64.5 48 -136.5q0 -125 -89 -200.5t-222 -75.5q-115 0 -235 56t-197 142l65 96q143 -98 305 -98q96 0 137 37t41 94q0 35 -27.5 57.5t-72.5 22.5q-94 0 -196 -72l-115 187q66 35 125 47q-49 55 -105 133q-82 -217 -203.5 -323.5t-287.5 -108.5
q-131 0 -223.5 64.5t-92.5 170.5q0 27 7 52q-207 76 -207 221q0 203 235 268q-47 94 -47 199q0 180 123 277.5t348 97.5h176v137h-917l-51 153l20 62h1464l52 -154l-21 -61h-313v-285l-64 -80l-305 2q-125 0 -190.5 -48t-65.5 -142q0 -119 66.5 -196t179.5 -77q88 0 153 37
q-33 66 -47 107l109 108q199 0 334 -133q-37 -131 -148 -213q59 -78 148.5 -163t179.5 -154q78 -43 126 -107.5zM881 86h-37q-121 0 -228.5 40t-189.5 110q-78 -23 -115 -66t-37 -90t58 -78q53 59 145 98l113 -184q-133 -37 -133 -102q0 -72 86 -72q211 2 338 344z" />
    <glyph glyph-name="d_da-deva" horiz-adv-x="1126" 
d="M330 653q0 -47 67 -71q117 39 256 39l72 -175l-41 -63q-135 0 -211 -39t-76 -111q0 -47 36 -74.5t95 -27.5q63 0 131 23l-22 73l108 109q199 0 334 -133q-88 -109 -202 -170q43 -74 109.5 -132.5t174.5 -131.5l-196 -160q-139 152 -240 371q-61 -10 -117 -11
q-209 0 -335 89t-126 239q0 117 95 201q-70 41 -109 100t-39 127q0 129 81 183.5t265 54.5h107v135h-557l-51 153l20 62h1178l51 -154l-27 -61h-381v-287l-61 -66h-258q-131 0 -131 -92z" />
    <glyph glyph-name="d_da_uMatra-deva" horiz-adv-x="1126" 
d="M1152 -279.5q40 -58.5 40 -123.5q0 -125 -89 -201t-222 -76q-190 0 -328.5 101.5t-253.5 277.5l98 53q117 -133 218.5 -184t203.5 -51q96 0 137 36.5t41 94.5q0 35 -27.5 57.5t-72.5 22.5q-104 0 -219 -88l-131 178q106 70 215 80l-39 82q-61 -10 -115 -11
q-209 0 -335 89t-126 239q0 117 95 201q-70 41 -109 100t-39 127q0 129 81 183.5t265 54.5h107v135h-557l-51 153l20 62h1178l51 -154l-27 -61h-381v-287l-61 -66h-258q-131 0 -131 -92q0 -47 67 -71q117 39 256 39l72 -175l-41 -63q-135 0 -211 -39t-76 -111
q0 -47 36 -74.5t95 -27.5q63 0 131 23l-22 73l108 109q199 0 334 -133q-94 -113 -205 -170q53 -104 179 -211h-6q65 -43 105 -101.5z" />
    <glyph glyph-name="d_d_ya-deva" horiz-adv-x="2181" 
d="M2001 377l29 -395l-58 -52l-239 39l22 254q-129 -88 -262 -88q-119 0 -226.5 49t-182 135.5t-97.5 190.5l39 78q213 23 213 106q0 31 -34 42.5t-97 11.5h-387l-2 -3h-258q-131 0 -131 -92q0 -47 67 -71q117 39 256 39l72 -175l-41 -63q-135 0 -211 -39t-76 -111
q0 -47 36 -74.5t95 -27.5q63 0 131 23l-22 73l108 109q199 0 334 -133q-88 -109 -202 -170q43 -74 109.5 -132.5t174.5 -131.5l-196 -160q-139 152 -240 371q-61 -10 -117 -11q-209 0 -335 89t-126 239q0 117 95 201q-70 41 -109 100t-39 127q0 129 81 183.5t265 54.5h107
v135h-557l-51 153l20 62h2232l52 -154l-27 -61h-215v-721zM780 1098v-137h193q137 0 252.5 -35t184.5 -102.5t69 -159.5q0 -90 -71 -162t-198 -96q14 -27 76 -41.5t154 -14.5q98 0 184 53.5t143 147.5v547h-987z" />
    <glyph glyph-name="d_dha-deva" horiz-adv-x="1402" 
d="M577.5 687q-65.5 -48 -65.5 -142q0 -119 66.5 -196t179.5 -77q82 0 141 31q-20 63 -35 113l109 108q199 0 334 -133q-41 -145 -170 -227q47 -66 107.5 -119t164.5 -129l-197 -160q-70 76 -129 166q-88 -135 -218 -215t-277 -82q-131 0 -223.5 64.5t-92.5 171.5l2 30
q-125 18 -193.5 93t-68.5 170q0 98 70 158.5t168 60.5q37 0 63 -6q-57 102 -57 219q0 180 124 278.5t347 96.5h176v137h-913l-51 153l20 62h1454l51 -154l-20 -61h-307v-285l-64 -78h-305q-125 0 -190.5 -48zM201.5 211q-23.5 -39 -25.5 -94q49 10 78 37.5t29 62.5
q0 33 -29 33t-52.5 -39zM611.5 126q-107.5 40 -189.5 110v-5q0 -72 -57.5 -123t-167.5 -59q16 -27 42.5 -49.5t59.5 -32.5q45 90 178 148l113 -185q-133 -37 -133 -102q0 -72 86 -72q117 2 218 92.5t175 243.5q-47 -6 -96 -6q-121 0 -228.5 40z" />
    <glyph glyph-name="d_dha_uMatra-deva" horiz-adv-x="1374" 
d="M1617 -246.5q48 -64.5 48 -136.5q0 -125 -89 -200.5t-222 -75.5q-115 0 -235 56t-197 142l65 96q143 -98 305 -98q96 0 137 37t41 94q0 35 -27.5 57.5t-72.5 22.5q-94 0 -196 -72l-115 187q66 35 125 47q-63 76 -117 149q-90 -170 -233.5 -267t-303.5 -99
q-131 0 -223 64.5t-92 170.5l2 31q-125 18 -193.5 93t-68.5 169q0 98 69.5 158.5t168.5 60.5q55 0 94 -16q-31 76 -31 162q0 180 124 278.5t347 96.5h176v137h-913l-51 153l20 62h1425l52 -154l-21 -61h-278v-285l-64 -80l-305 2q-125 0 -190.5 -48t-65.5 -142
q0 -119 66.5 -196t179.5 -77q90 0 155 39q-23 47 -45 105l109 108q199 0 334 -133l-4 -2q-37 -129 -146 -209q59 -80 150.5 -166t179.5 -153q78 -43 126 -107.5zM144.5 278.5q-23.5 -38.5 -25.5 -94.5q49 10 77.5 38t28.5 63q0 33 -28 32q-29 0 -52.5 -38.5zM678 -105.5
q90 68.5 162 191.5q-145 0 -269.5 55.5t-205.5 151.5q-2 -70 -59.5 -119t-166.5 -57q16 -27 43 -49.5t60 -32.5q43 82 155 137l111 -182q-109 -33 -109 -94q0 -72 86 -72q103 2 193 70.5z" />
    <glyph glyph-name="d_dh_ya-deva" horiz-adv-x="2560" 
d="M2380 377l28 -395l-57 -52l-240 39l17 203q-127 -86 -256 -86q-119 0 -226.5 49t-182 135t-97.5 191l39 78q113 12 163 42.5t50 90.5q0 29 -37 46t-94 17h-719q-125 0 -190.5 -48t-65.5 -142q0 -119 66.5 -196t179.5 -77q82 0 141 31q-20 63 -35 113l109 108
q199 0 334 -133q-41 -145 -170 -227q47 -66 107.5 -119t164.5 -129l-197 -160q-70 76 -129 166q-88 -135 -218 -215t-277 -82q-131 0 -223.5 64.5t-92.5 171.5l2 30q-125 18 -193.5 93t-68.5 170q0 98 70 158.5t168 60.5q37 0 63 -6q-57 102 -57 219q0 180 124 278.5
t347 96.5h176v137h-913l-51 153l20 62h2611l51 -154l-26 -61h-215v-721zM1137 1098v-142h215q137 0 252.5 -41t184.5 -117.5t69 -183.5q0 -90 -71 -161.5t-198 -96.5q14 -27 75.5 -41t154.5 -14q98 0 184 53.5t143 147.5v596h-1009zM201.5 211q-23.5 -39 -25.5 -94
q49 10 78 37.5t29 62.5q0 33 -29 33t-52.5 -39zM611.5 126q-107.5 40 -189.5 110v-5q0 -72 -57.5 -123t-167.5 -59q16 -27 42.5 -49.5t59.5 -32.5q45 90 178 148l113 -185q-133 -37 -133 -102q0 -72 86 -72q117 2 218 92.5t175 243.5q-45 -6 -96 -6q-121 0 -228.5 40z" />
    <glyph glyph-name="d_na-deva" horiz-adv-x="1234" 
d="M409.5 687q-65.5 -48 -65.5 -142q0 -119 66.5 -196t179.5 -77q82 0 141 31q-20 63 -35 113l109 108q199 0 334 -133q-41 -145 -170 -227q47 -66 107.5 -119t164.5 -129l-197 -160q-137 150 -229 344q-61 -72 -135 -168q29 -43 53.5 -92t26.5 -65q-90 -90 -205 -90
q-57 0 -107.5 22.5t-80.5 56.5l-11 72q76 96 236 254q-141 16 -257 86t-181.5 177.5t-65.5 232.5q0 180 124 278.5t347 96.5h176v137h-745l-51 153l20 62h1286l51 -154l-20 -61h-307v-285l-64 -78h-305q-125 0 -190.5 -48z" />
    <glyph glyph-name="d_na_uMatra-deva" horiz-adv-x="1236" 
d="M1274 -159.5q53 -65.5 53 -141.5q0 -125 -89 -201t-222 -76q-240 0 -430 187l82 96q115 -86 286 -86q96 0 137.5 37t41.5 94q0 35 -28 57.5t-73 22.5q-90 0 -186 -66l-117 185q59 33 123 45l-47 100q-147 -94 -313 -219q18 -49 29 -102.5t7 -69.5q-76 -41 -153 -41
q-74 0 -136.5 36t-93.5 103l11 70q119 88 368 231q-125 27 -224 97.5t-155.5 171t-56.5 215.5q0 180 123 277.5t348 97.5h176v137h-745l-51 153l20 62h1288l51 -154l-20 -61h-309v-285l-64 -80l-305 2q-125 0 -190.5 -48t-65.5 -142q0 -119 66.5 -196t179.5 -77q84 0 139 31
l-33 113l109 108q199 0 334 -133q-41 -150 -176 -231q72 -121 176 -211q82 -43 135 -108.5z" />
    <glyph glyph-name="d_ba-deva" horiz-adv-x="1234" 
d="M409.5 687q-65.5 -48 -65.5 -142q0 -119 66.5 -196t179.5 -77q84 0 141 31q-20 63 -35 113l109 108q199 0 334 -133q-41 -145 -170 -227q47 -66 107.5 -119t164.5 -129l-197 -160q-70 74 -137 181q-174 -215 -393 -216q-98 0 -179 37t-127 100.5t-46 141.5q0 150 114 217
q-88 70 -138 165t-50 204q0 180 124 278.5t347 96.5h176v137h-745l-51 153l20 62h1286l51 -154l-20 -61h-307v-285l-64 -78h-305q-125 0 -190.5 -48zM520 102l146 -147q53 53 98 137q-47 -6 -92 -6q-74 0 -152 16zM555 -117l-164 166q-33 -37 -33 -90q0 -39 30 -64.5
t85 -25.5q47 0 82 14z" />
    <glyph glyph-name="d_ba_uMatra-deva" horiz-adv-x="1234" 
d="M1433 -246.5q42 -60.5 42 -126.5q0 -125 -89.5 -200.5t-222.5 -75.5q-172 0 -302 84t-238 233l98 70q104 -106 195.5 -148.5t185.5 -42.5q96 0 137 37t41 94q0 35 -27.5 57.5t-72.5 22.5q-104 0 -219 -88l-132 178q86 59 172 74q-55 63 -116 152q-104 -166 -221 -249
t-252 -83q-98 0 -179 37t-127.5 100.5t-46.5 140.5q0 182 168 240q-68 68 -103.5 151t-35.5 175q0 180 124 278.5t347 96.5h176v137h-745l-51 153l20 62h1286l51 -154l-20 -61h-307v-285l-64 -78h-305q-125 0 -190.5 -48t-65.5 -142q0 -119 66.5 -196t179.5 -77q88 0 153 37
q-33 66 -47 107l109 108q199 0 334 -133q-37 -131 -148 -213q109 -147 332 -321q68 -43 110 -103.5zM430 129l141 -145q43 45 74 102q-113 6 -215 43zM467 -92l-170 172q-41 -37 -41 -100q0 -39 29.5 -65t85.5 -26q49 1 96 19z" />
    <glyph glyph-name="d_b_ra-deva" horiz-adv-x="1234" 
d="M409.5 687q-65.5 -48 -65.5 -142q0 -119 66.5 -196t179.5 -77q84 0 141 31q-20 63 -35 113l109 108q199 0 334 -133q-41 -145 -170 -227q47 -66 107.5 -119t164.5 -129l-197 -160q-70 76 -118 152l-135 -350l-193 67l72 125q-76 -29 -156 -29q-98 0 -179 37t-127 100.5
t-46 141.5q0 150 114 217q-88 70 -138 165t-50 204q0 180 124 278.5t347 96.5h176v137h-745l-51 153l20 62h1286l51 -154l-20 -61h-307v-285l-64 -78h-305q-125 0 -190.5 -48zM520 102l146 -147q53 53 98 137q-45 -6 -92 -6q-74 0 -152 16zM555 -117l-164 166
q-33 -37 -33 -90q0 -39 30 -64.5t85 -25.5q47 0 82 14z" />
    <glyph glyph-name="d_bha-deva" horiz-adv-x="1417" 
d="M591.5 687q-65.5 -48 -65.5 -142q0 -119 66.5 -196t179.5 -77q84 0 141 31q-20 63 -34 113l108 108q199 0 334 -133q-41 -145 -170 -227q47 -66 107.5 -119t164.5 -129l-196 -160q-137 150 -230 344q-238 -172 -417 -321q31 -92 34 -162q-70 -49 -149 -49
q-76 0 -137.5 28.5t-96.5 77.5l5 70q45 45 116 100q-82 248 -172 248q-27 0 -48 -21.5t-21 -52.5q0 -41 30.5 -67.5t81.5 -26.5l2 -88q-18 -12 -46.5 -19t-51.5 -7q-117 0 -195 94q-14 49 -14 86q0 96 61.5 161.5t170.5 65.5q88 0 169.5 -46t114.5 -91q33 -49 70 -125
q98 68 219 143q-131 25 -233.5 95.5t-161 172t-58.5 220.5q0 180 124 278.5t347 96.5h177v137h-928l-51 153l20 62h1468l52 -154l-21 -61h-307v-285l-64 -78h-305q-125 0 -190.5 -48z" />
    <glyph glyph-name="d_bha_uMatra-deva" horiz-adv-x="1421" 
d="M1458 -159.5q53 -65.5 53 -141.5q0 -125 -89 -201t-222 -76q-160 0 -282.5 74t-227.5 203l94 84q96 -92 181.5 -128t173.5 -36q96 0 137 37t41 94q0 35 -27.5 57.5t-72.5 22.5q-104 0 -220 -88l-131 178q80 55 170 74q-29 55 -47 102l-67 -51q-233 -176 -342 -266
q31 -92 34 -162q-70 -49 -149 -49q-76 0 -137.5 28.5t-96.5 77.5l5 70q45 45 116 100q-82 248 -172 248q-27 0 -48 -21.5t-21 -52.5q0 -41 30.5 -67.5t81.5 -26.5l2 -88q-18 -12 -46.5 -19t-51.5 -7q-117 0 -195 94q-14 49 -14 86q0 96 61.5 161.5t170.5 65.5
q88 0 169.5 -46t114.5 -91q33 -49 70 -125q98 68 219 143q-129 25 -231.5 95.5t-161 172t-58.5 220.5q0 180 123 277.5t348 97.5h177v137h-930l-51 153l20 62h1473l51 -154l-21 -61h-309v-285l-63 -80l-306 2q-125 0 -190.5 -48t-65.5 -142q0 -119 67 -196t179 -77
q84 0 139 31l-32 113l108 108q199 0 334 -133q-41 -150 -176 -231q72 -121 176 -211q82 -43 135 -108.5z" />
    <glyph glyph-name="d_bh_ya-deva" horiz-adv-x="2553" 
d="M2374 377l28 -395l-57 -52l-240 39l17 203q-127 -86 -256 -86q-119 0 -226.5 49t-182.5 135t-97 191l39 78q113 12 163 42.5t50 90.5q0 29 -37 46t-94 17h-699q-125 0 -190.5 -48t-65.5 -142q0 -119 66.5 -196t179.5 -77q82 0 141 31q-20 63 -34 113l108 108
q199 0 334 -133q-41 -145 -170 -227q47 -66 107.5 -119t164.5 -129l-196 -160q-137 152 -232 344l-348 -288q27 -102 27 -152q-49 -57 -166 -57q-141 0 -234 129l15 75l121 82l-48 95q-20 41 -83 41q-29 0 -99 -58l-100 103l-27 73q96 72 203 72q104 0 171 -32.5t105 -104.5
l48 -74l133 96q-127 27 -227.5 96.5t-158 171t-57.5 218.5q0 180 124 278.5t347 96.5h177v137h-928l-51 153l20 62h2605l51 -154l-26 -61h-215v-721zM1151 1098v-137h195q137 0 252.5 -41t184 -119t68.5 -187q0 -90 -70.5 -161.5t-197.5 -96.5q14 -27 75.5 -41t153.5 -14
q98 0 184.5 53.5t143.5 147.5v596h-989z" />
    <glyph glyph-name="d_ma-deva" horiz-adv-x="1374" 
d="M1194 377l29 -395l-58 -52l-239 39l12 156q-90 -8 -223 -23q-14 -49 -32.5 -92t-35.5 -59q-90 0 -152.5 43t-94 104.5t-31.5 118.5l43 53q41 8 131 17v129h-76q-106 4 -197.5 52t-143.5 119.5t-52 145.5q0 123 81 176.5t265 53.5h84v135h-514l-51 153l20 62h1425l52 -154
l-21 -61h-221v-721zM737 1098v-287l-61 -66h-236q-61 0 -96 -16t-35 -45t41 -46t101 -17h219l73 -72v-133l-2 -127q98 -4 142 -8l69 -5l9 103v719h-224z" />
    </font>
</defs>
</svg>
