<?xml version="1.0" encoding="UTF-8" standalone="no"?>
<!-- Generator: Adobe Illustrator 17.0.0, SVG Export Plug-In . SVG Version: 6.00 Build 0)  -->

<svg
   xmlns:dc="http://purl.org/dc/elements/1.1/"
   xmlns:cc="http://creativecommons.org/ns#"
   xmlns:rdf="http://www.w3.org/1999/02/22-rdf-syntax-ns#"
   xmlns:svg="http://www.w3.org/2000/svg"
   xmlns="http://www.w3.org/2000/svg"
   xmlns:sodipodi="http://sodipodi.sourceforge.net/DTD/sodipodi-0.dtd"
   xmlns:inkscape="http://www.inkscape.org/namespaces/inkscape"
   version="1.1"
   id="Layer_1"
   x="0px"
   y="0px"
   width="100px"
   height="100px"
   viewBox="0 0 100 100"
   enable-background="new 0 0 100 100"
   xml:space="preserve"
   sodipodi:docname="logo.svg"
   inkscape:version="0.92.4 (5da689c313, 2019-01-14)"><metadata
   id="metadata11"><rdf:RDF><cc:Work
       rdf:about=""><dc:format>image/svg+xml</dc:format><dc:type
         rdf:resource="http://purl.org/dc/dcmitype/StillImage" /></cc:Work></rdf:RDF></metadata><defs
   id="defs9">
	
</defs><sodipodi:namedview
   pagecolor="#ffffff"
   bordercolor="#666666"
   borderopacity="1"
   objecttolerance="10"
   gridtolerance="10"
   guidetolerance="10"
   inkscape:pageopacity="0"
   inkscape:pageshadow="2"
   inkscape:window-width="1920"
   inkscape:window-height="1021"
   id="namedview7"
   showgrid="false"
   inkscape:zoom="3.337544"
   inkscape:cx="72.329087"
   inkscape:cy="53.651849"
   inkscape:window-x="0"
   inkscape:window-y="0"
   inkscape:window-maximized="1"
   inkscape:current-layer="flowRoot812" />

<g
   aria-label="LAU
TIAM KOK"
   transform="translate(-13.297528,-16.925388)"
   style="font-style:normal;font-variant:normal;font-weight:300;font-stretch:normal;font-size:26.66666603px;line-height:0;font-family:'Source Sans Pro';-inkscape-font-specification:'Source Sans Pro, Light';font-variant-ligatures:normal;font-variant-caps:normal;font-variant-numeric:normal;font-feature-settings:normal;text-align:start;letter-spacing:45.86999893px;word-spacing:0px;writing-mode:lr-tb;text-anchor:start;fill:#000000;fill-opacity:1;stroke:none"
   id="flowRoot812"><path
     d="M 24.733725,46.897004 V 20.75638 h 13.070312 v 13.070312 h 7.255208 v 13.070312 z"
     style="font-style:normal;font-variant:normal;font-weight:normal;font-stretch:normal;font-size:37.33333206px;line-height:0.89999998;font-family:Lot;-inkscape-font-specification:Lot;text-align:center;letter-spacing:0px;word-spacing:0px;text-anchor:middle"
     id="path819" /><path
     d="M 45.041016,46.897004 61.538411,18.933463 78.035806,46.897004 Z"
     style="font-style:normal;font-variant:normal;font-weight:normal;font-stretch:normal;font-size:37.33333206px;line-height:0.89999998;font-family:Lot;-inkscape-font-specification:Lot;text-align:center;letter-spacing:0px;word-spacing:0px;text-anchor:middle"
     id="path821" /><path
     d="M 75.119142,34.355338 V 20.683463 h 26.140628 v 13.671875 q 0,2.643229 -1.03907,5.067708 -1.039059,2.424479 -2.789059,4.174479 -1.75,1.75 -4.174479,2.789062 -2.424479,1.039063 -5.067708,1.039063 -2.643229,0 -5.067708,-1.039063 -2.424479,-1.039062 -4.174479,-2.789062 -1.75,-1.75 -2.789063,-4.174479 -1.039062,-2.424479 -1.039062,-5.067708 z"
     style="font-style:normal;font-variant:normal;font-weight:normal;font-stretch:normal;font-size:37.33333206px;line-height:0.89999998;font-family:Lot;-inkscape-font-specification:Lot;text-align:center;letter-spacing:0px;word-spacing:0px;text-anchor:middle"
     id="path823" /><path
     d="M 13.686851,67.463149 V 54.356378 H 37.238933 V 67.463149 H 32.171225 V 80.533461 H 19.100913 V 67.463149 Z"
     style="font-style:normal;font-variant:normal;font-weight:normal;font-stretch:normal;font-size:37.33333206px;line-height:0.89999998;font-family:Lot;-inkscape-font-specification:Lot;text-align:center;letter-spacing:0px;word-spacing:0px;text-anchor:middle"
     id="path825" /><path
     d="M 39.098308,80.497002 V 54.356378 h 13.598958 v 26.140624 z"
     style="font-style:normal;font-variant:normal;font-weight:normal;font-stretch:normal;font-size:37.33333206px;line-height:0.89999998;font-family:Lot;-inkscape-font-specification:Lot;text-align:center;letter-spacing:0px;word-spacing:0px;text-anchor:middle"
     id="path827" /><path
     d="m 52.806642,80.497002 16.497396,-27.96354 16.497395,27.96354 z"
     style="font-style:normal;font-variant:normal;font-weight:normal;font-stretch:normal;font-size:37.33333206px;line-height:0.89999998;font-family:Lot;-inkscape-font-specification:Lot;text-align:center;letter-spacing:0px;word-spacing:0px;text-anchor:middle"
     id="path829" /><path
     d="m 85.655596,53.353774 13.070312,9.898437 13.070312,-9.898437 0.0729,27.143228 H 85.728512 Z"
     style="font-style:normal;font-variant:normal;font-weight:normal;font-stretch:normal;font-size:37.33333206px;line-height:0.89999998;font-family:Lot;-inkscape-font-specification:Lot;text-align:center;letter-spacing:0px;word-spacing:0px;text-anchor:middle"
     id="path831" /><path
     d="M 24.551434,114.13346 V 87.956377 h 25.611978 l -9.770833,13.070313 9.770833,13.10677 z"
     style="font-style:normal;font-variant:normal;font-weight:normal;font-stretch:normal;font-size:37.33333206px;line-height:0.89999998;font-family:Lot;-inkscape-font-specification:Lot;text-align:center;letter-spacing:0px;word-spacing:0px;text-anchor:middle"
     id="path833" /><path
     d="m 48.23112,106.40429 q -1.09375,-2.58854 -1.09375,-5.41406 0,-2.82552 1.09375,-5.395833 1.111979,-2.588541 2.971354,-4.447916 1.877604,-1.877604 4.447916,-2.971354 2.588542,-1.111979 5.414063,-1.111979 2.82552,0 5.395833,1.111979 2.588541,1.09375 4.447916,2.971354 1.877604,1.859375 2.971354,4.447916 1.11198,2.570313 1.11198,5.395833 0,2.82552 -1.11198,5.41406 -1.09375,2.57032 -2.971354,4.44792 -1.859375,1.85937 -4.447916,2.97135 -2.570313,1.09375 -5.395833,1.09375 -2.825521,0 -5.414063,-1.09375 -2.570312,-1.11198 -4.447916,-2.97135 -1.859375,-1.8776 -2.971354,-4.44792 z"
     style="font-style:normal;font-variant:normal;font-weight:normal;font-stretch:normal;font-size:37.33333206px;line-height:0.89999998;font-family:Lot;-inkscape-font-specification:Lot;text-align:center;letter-spacing:0px;word-spacing:0px;text-anchor:middle"
     id="path835" /><path
     d="M 76.686848,114.13346 V 87.956377 h 25.611982 l -9.770837,13.070313 9.770837,13.10677 z"
     style="font-style:normal;font-variant:normal;font-weight:normal;font-stretch:normal;font-size:37.33333206px;line-height:0.89999998;font-family:Lot;-inkscape-font-specification:Lot;text-align:center;letter-spacing:0px;word-spacing:0px;text-anchor:middle"
     id="path837" /></g></svg>